<?xml version="1.0" standalone="no"?>
<!DOCTYPE svg PUBLIC "-//W3C//DTD SVG 1.1//EN" "http://www.w3.org/Graphics/SVG/1.1/DTD/svg11.dtd" >
<svg>
<metadata>
Created by FontForge 20120731 at Sat Sep  3 14:38:31 2016
 By www-data
Copyright \(c\) 2016 by Fontfabric LLC. All rights reserved.
</metadata>
<defs>
<font id="Phenomena-Bold" horiz-adv-x="0" >
  <font-face 
    font-family="Phenomena Bold"
    font-weight="700"
    font-stretch="normal"
    units-per-em="1000"
    panose-1="0 0 8 0 0 0 0 0 0 0"
    ascent="800"
    descent="-200"
    x-height="500"
    cap-height="700"
    bbox="-450.865 -254 820 954"
    underline-thickness="50"
    underline-position="-50"
    stemh="81"
    stemv="86"
    unicode-range="U+0020-25CA"
  />
<missing-glyph horiz-adv-x="500" 
d="M410 800v-1000h-317v1000h317zM333 733h-165v-33h65v-37h-66v-33h166v33h-66v37h66v33zM267 604h-100v-104h166v34h-66v70zM233 570v-36h-33v36h33zM333 473h-166v-33h66v-37h-66v-33h100v70h66v33zM333 413h-33v-66h-133v-34h166v100zM333 291h-100v-56h34v23h33v-47
h-100v80h-33v-113h166v113zM333 118h-166v-113h166v113zM300 85v-47h-100v47h100zM333 -18h-166v-33h70l-70 -47v-33h166v33h-102l70 47h32v33z" />
    <glyph glyph-name=".notdef" horiz-adv-x="500" 
d="M410 800v-1000h-317v1000h317zM333 733h-165v-33h65v-37h-66v-33h166v33h-66v37h66v33zM267 604h-100v-104h166v34h-66v70zM233 570v-36h-33v36h33zM333 473h-166v-33h66v-37h-66v-33h100v70h66v33zM333 413h-33v-66h-133v-34h166v100zM333 291h-100v-56h34v23h33v-47
h-100v80h-33v-113h166v113zM333 118h-166v-113h166v113zM300 85v-47h-100v47h100zM333 -18h-166v-33h70l-70 -47v-33h166v33h-102l70 47h32v33z" />
    <glyph glyph-name="A" unicode="A" horiz-adv-x="451" 
d="M67 0c-8 0 -13 5 -13 14v512c0 110 68 184 171 184s172 -74 172 -184v-512c0 -9 -5 -14 -14 -14h-63c-8 0 -14 5 -14 14v222h-162v-222c0 -9 -5 -14 -13 -14h-64zM144 319h162v211c0 60 -29 95 -81 95c-51 0 -81 -35 -81 -95v-211z" />
    <glyph glyph-name="Aacute" unicode="&#xc1;" horiz-adv-x="451" 
d="M185 769c-11 0 -15 8 -9 16l65 91c4 6 11 8 17 8h57c11 0 15 -8 7 -17l-79 -90c-4 -6 -10 -8 -17 -8h-41zM67 0c-8 0 -13 5 -13 14v512c0 110 68 184 171 184s172 -74 172 -184v-512c0 -9 -5 -14 -14 -14h-63c-8 0 -14 5 -14 14v222h-162v-222c0 -9 -5 -14 -13 -14h-64z
M144 319h162v211c0 60 -29 95 -81 95c-51 0 -81 -35 -81 -95v-211z" />
    <glyph glyph-name="Abreve" unicode="&#x102;" horiz-adv-x="451" 
d="M225 768c-65 0 -109 39 -115 99c-1 9 5 14 13 14h39c8 0 12 -4 15 -12c4 -23 21 -37 48 -37s45 14 49 37c2 8 6 12 14 12h39c9 0 14 -4 14 -14c-7 -60 -50 -99 -116 -99zM67 0c-8 0 -13 5 -13 14v512c0 110 68 184 171 184s172 -74 172 -184v-512c0 -9 -5 -14 -14 -14
h-63c-8 0 -14 5 -14 14v222h-162v-222c0 -9 -5 -14 -13 -14h-64zM144 319h162v211c0 60 -29 95 -81 95c-51 0 -81 -35 -81 -95v-211z" />
    <glyph glyph-name="Acircumflex" unicode="&#xc2;" horiz-adv-x="451" 
d="M342 785c6 -9 2 -16 -8 -16h-41c-7 0 -12 2 -16 7l-52 61l-52 -61c-4 -5 -10 -7 -16 -7h-41c-10 0 -14 7 -8 16l69 91c4 5 10 8 17 8h62c7 0 13 -3 17 -8zM67 0c-8 0 -13 5 -13 14v512c0 110 68 184 171 184s172 -74 172 -184v-512c0 -9 -5 -14 -14 -14h-63
c-8 0 -14 5 -14 14v222h-162v-222c0 -9 -5 -14 -13 -14h-64zM144 319h162v211c0 60 -29 95 -81 95c-51 0 -81 -35 -81 -95v-211z" />
    <glyph glyph-name="Adieresis" unicode="&#xc4;" horiz-adv-x="451" 
d="M166 775c-27 0 -44 18 -44 44s17 44 44 44c26 0 44 -18 44 -44s-18 -44 -44 -44zM284 775c-26 0 -44 18 -44 44s18 44 44 44s44 -18 44 -44s-18 -44 -44 -44zM67 0c-8 0 -13 5 -13 14v512c0 110 68 184 171 184s172 -74 172 -184v-512c0 -9 -5 -14 -14 -14h-63
c-8 0 -14 5 -14 14v222h-162v-222c0 -9 -5 -14 -13 -14h-64zM144 319h162v211c0 60 -29 95 -81 95c-51 0 -81 -35 -81 -95v-211z" />
    <glyph glyph-name="Agrave" unicode="&#xc0;" horiz-adv-x="451" 
d="M289 769h-41c-7 0 -13 2 -17 8l-79 90c-8 9 -4 17 7 17h57c6 0 13 -2 17 -8l65 -91c6 -8 2 -16 -9 -16zM67 0c-8 0 -13 5 -13 14v512c0 110 68 184 171 184s172 -74 172 -184v-512c0 -9 -5 -14 -14 -14h-63c-8 0 -14 5 -14 14v222h-162v-222c0 -9 -5 -14 -13 -14h-64z
M144 319h162v211c0 60 -29 95 -81 95c-51 0 -81 -35 -81 -95v-211z" />
    <glyph glyph-name="Amacron" unicode="&#x100;" horiz-adv-x="451" 
d="M138 837c0 8 5 13 14 13h146c8 0 13 -5 13 -13v-35c0 -8 -5 -14 -13 -14h-146c-9 0 -14 6 -14 14v35zM67 0c-8 0 -13 5 -13 14v512c0 110 68 184 171 184s172 -74 172 -184v-512c0 -9 -5 -14 -14 -14h-63c-8 0 -14 5 -14 14v222h-162v-222c0 -9 -5 -14 -13 -14h-64z
M144 319h162v211c0 60 -29 95 -81 95c-51 0 -81 -35 -81 -95v-211z" />
    <glyph glyph-name="Aogonek" unicode="&#x104;" horiz-adv-x="457" 
d="M367 -204c-78 0 -112 34 -112 87c0 42 19 79 49 117v236h-159v-222c0 -9 -5 -14 -13 -14h-65c-8 0 -13 5 -13 14v512c0 110 68 184 171 184s171 -74 171 -184v-512c0 -9 -4 -15 -12 -22c-30 -25 -50 -58 -50 -85s19 -40 48 -40h8c8 0 13 -4 13 -13v-43
c0 -8 -4 -14 -12 -14s-16 -1 -24 -1zM145 319h159v211c0 60 -29 95 -79 95c-51 0 -80 -35 -80 -95v-211z" />
    <glyph glyph-name="Aring" unicode="&#xc5;" horiz-adv-x="451" 
d="M149 825c0 43 30 71 75 71c44 0 74 -28 74 -71c0 -44 -30 -73 -74 -73c-45 0 -75 29 -75 73zM197 824c0 -16 10 -27 27 -27c16 0 27 11 27 27s-11 27 -27 27c-17 0 -27 -11 -27 -27zM67 0c-8 0 -13 5 -13 14v512c0 110 68 184 171 184s172 -74 172 -184v-512
c0 -9 -5 -14 -14 -14h-63c-8 0 -14 5 -14 14v222h-162v-222c0 -9 -5 -14 -13 -14h-64zM144 319h162v211c0 60 -29 95 -81 95c-51 0 -81 -35 -81 -95v-211z" />
    <glyph glyph-name="Atilde" unicode="&#xc3;" horiz-adv-x="451" 
d="M189 802c-9 0 -14 -5 -17 -16c-3 -8 -7 -12 -15 -12h-33c-9 0 -14 5 -14 13c3 35 27 74 73 74c39 0 58 -30 77 -30c10 0 15 6 18 16c2 7 5 13 14 13h34c8 0 13 -5 13 -14c-3 -38 -30 -73 -72 -73c-38 0 -57 29 -78 29zM67 0c-8 0 -13 5 -13 14v512c0 110 68 184 171 184
s172 -74 172 -184v-512c0 -9 -5 -14 -14 -14h-63c-8 0 -14 5 -14 14v222h-162v-222c0 -9 -5 -14 -13 -14h-64zM144 319h162v211c0 60 -29 95 -81 95c-51 0 -81 -35 -81 -95v-211z" />
    <glyph glyph-name="AE" unicode="&#xc6;" horiz-adv-x="607" 
d="M67 0c-8 0 -13 5 -13 14v521c0 102 67 174 165 174c52 0 94 -28 122 -64c28 35 70 61 124 61h93c9 0 14 -5 14 -14v-56c0 -9 -5 -14 -14 -14h-86c-56 0 -87 -34 -87 -92v-143h145c8 0 13 -5 13 -14v-53c0 -9 -5 -14 -13 -14h-145v-131c0 -59 31 -94 87 -94h93
c8 0 13 -5 13 -14v-57c0 -8 -5 -13 -13 -13h-100c-104 0 -172 70 -172 176v131h-149v-290c0 -9 -5 -14 -13 -14h-64zM144 387h149v152c0 52 -29 86 -74 86s-75 -34 -75 -86v-152z" />
    <glyph glyph-name="B" unicode="B" horiz-adv-x="428" 
d="M316 360c50 -25 81 -76 81 -139v-46c0 -108 -69 -178 -170 -178h-133c-23 0 -40 17 -40 41v496c0 106 65 176 162 176c100 0 166 -70 166 -176v-44c0 -59 -25 -107 -66 -130zM144 539v-144h72c47 0 76 33 76 88v56c0 54 -28 87 -76 87c-45 0 -72 -33 -72 -87zM305 170v52
c0 57 -29 91 -80 91h-81v-233h81c51 0 80 34 80 90z" />
    <glyph glyph-name="C" unicode="C" horiz-adv-x="410" 
d="M214 -11c-102 0 -171 72 -171 180v362c0 108 69 180 171 180c98 0 165 -75 168 -192c0 -8 -4 -13 -13 -13h-64c-8 0 -13 4 -13 13c-2 70 -33 107 -79 107c-50 0 -79 -34 -79 -90v-372c0 -56 29 -90 79 -90c51 0 82 41 84 114c0 9 5 13 13 13h64c8 0 13 -5 13 -14
c-4 -121 -71 -198 -173 -198z" />
    <glyph glyph-name="Cacute" unicode="&#x106;" horiz-adv-x="410" 
d="M169 769c-11 0 -15 8 -9 16l65 91c4 6 11 8 17 8h57c11 0 15 -8 7 -17l-79 -90c-4 -6 -10 -8 -17 -8h-41zM214 -11c-102 0 -171 72 -171 180v362c0 108 69 180 171 180c98 0 165 -75 168 -192c0 -8 -4 -13 -13 -13h-64c-8 0 -13 4 -13 13c-2 70 -33 107 -79 107
c-50 0 -79 -34 -79 -90v-372c0 -56 29 -90 79 -90c51 0 82 41 84 114c0 9 5 13 13 13h64c8 0 13 -5 13 -14c-4 -121 -71 -198 -173 -198z" />
    <glyph glyph-name="Ccaron" unicode="&#x10c;" horiz-adv-x="410" 
d="M325 868l-69 -91c-4 -5 -10 -8 -17 -8h-62c-7 0 -13 3 -17 8l-69 91c-6 9 -2 16 8 16h41c6 0 12 -2 16 -7l52 -61l52 61c4 5 9 7 16 7h41c10 0 14 -7 8 -16zM214 -11c-102 0 -171 72 -171 180v362c0 108 69 180 171 180c98 0 165 -75 168 -192c0 -8 -4 -13 -13 -13h-64
c-8 0 -13 4 -13 13c-2 70 -33 107 -79 107c-50 0 -79 -34 -79 -90v-372c0 -56 29 -90 79 -90c51 0 82 41 84 114c0 9 5 13 13 13h64c8 0 13 -5 13 -14c-4 -121 -71 -198 -173 -198z" />
    <glyph glyph-name="Ccedilla" unicode="&#xc7;" horiz-adv-x="410" 
d="M387 187c-4 -112 -62 -187 -152 -197l-6 -34h6c41 -3 74 -33 74 -75c0 -54 -40 -85 -94 -85c-48 0 -85 26 -91 73c-1 8 4 13 13 13h27c8 0 11 -4 14 -11c5 -15 19 -23 37 -23c22 0 39 12 39 33c0 18 -16 31 -38 31c-13 0 -24 -2 -35 -4c-3 -1 -7 0 -9 2l-3 3
c-3 3 -5 5 -4 10l14 69c-82 14 -136 82 -136 177v362c0 108 69 180 171 180c98 0 165 -75 168 -192c0 -8 -4 -13 -13 -13h-64c-8 0 -13 4 -13 13c-2 70 -33 107 -79 107c-50 0 -79 -34 -79 -90v-372c0 -56 29 -90 79 -90c51 0 82 41 84 114c0 9 5 13 13 13h64
c8 0 13 -5 13 -14z" />
    <glyph glyph-name="Cdotaccent" unicode="&#x10a;" horiz-adv-x="410" 
d="M209 770c-30 0 -51 22 -51 51c0 30 21 52 51 52c29 0 52 -22 52 -52c0 -27 -23 -51 -52 -51zM214 -11c-102 0 -171 72 -171 180v362c0 108 69 180 171 180c98 0 165 -75 168 -192c0 -8 -4 -13 -13 -13h-64c-8 0 -13 4 -13 13c-2 70 -33 107 -79 107
c-50 0 -79 -34 -79 -90v-372c0 -56 29 -90 79 -90c51 0 82 41 84 114c0 9 5 13 13 13h64c8 0 13 -5 13 -14c-4 -121 -71 -198 -173 -198z" />
    <glyph glyph-name="D" unicode="D" horiz-adv-x="445" 
d="M101 -3c-26 0 -41 14 -41 40v626c0 26 15 40 41 40h129c105 0 171 -76 171 -181v-344c0 -105 -67 -181 -171 -181h-129zM151 81h76c52 0 83 38 83 95v348c0 57 -30 95 -83 95h-76v-538z" />
    <glyph glyph-name="Eth" unicode="&#xd0;" horiz-adv-x="481" 
d="M267 703c105 0 171 -76 171 -181v-344c0 -105 -67 -181 -171 -181h-129c-26 0 -41 14 -41 40v287h-48c-9 0 -14 5 -14 13v38c0 8 5 13 14 13h48v275c0 26 15 40 41 40h129zM347 176v348c0 57 -30 95 -83 95h-76v-231h54c8 0 13 -5 13 -13v-38c0 -8 -5 -13 -13 -13h-54
v-243h76c52 0 83 38 83 95z" />
    <glyph glyph-name="Dcaron" unicode="&#x10e;" horiz-adv-x="445" 
d="M329 868l-69 -91c-4 -5 -10 -8 -17 -8h-62c-7 0 -13 3 -17 8l-69 91c-6 9 -2 16 8 16h41c6 0 12 -2 16 -7l52 -61l52 61c4 5 9 7 16 7h41c10 0 14 -7 8 -16zM101 -3c-26 0 -41 14 -41 40v626c0 26 15 40 41 40h129c105 0 171 -76 171 -181v-344
c0 -105 -67 -181 -171 -181h-129zM151 81h76c52 0 83 38 83 95v348c0 57 -30 95 -83 95h-76v-538z" />
    <glyph glyph-name="Dcroat" unicode="&#x110;" horiz-adv-x="481" 
d="M267 703c105 0 171 -76 171 -181v-344c0 -105 -67 -181 -171 -181h-129c-26 0 -41 14 -41 40v287h-48c-9 0 -14 5 -14 13v38c0 8 5 13 14 13h48v275c0 26 15 40 41 40h129zM347 176v348c0 57 -30 95 -83 95h-76v-231h54c8 0 13 -5 13 -13v-38c0 -8 -5 -13 -13 -13h-54
v-243h76c52 0 83 38 83 95z" />
    <glyph glyph-name="E" unicode="E" horiz-adv-x="361" 
d="M214 -3c-101 0 -171 76 -171 179v348c0 103 70 179 171 179h105c8 0 13 -5 13 -13v-57c0 -9 -5 -14 -13 -14h-98c-52 0 -87 -40 -87 -97v-127h160c9 0 14 -5 14 -14v-54c0 -9 -5 -14 -14 -14h-160v-135c0 -57 35 -97 87 -97h98c8 0 13 -5 13 -14v-57c0 -8 -5 -13 -13 -13
h-105z" />
    <glyph glyph-name="Eacute" unicode="&#xc9;" horiz-adv-x="361" 
d="M165 769c-11 0 -15 8 -9 16l65 91c4 6 11 8 17 8h57c11 0 15 -8 7 -17l-79 -90c-4 -6 -10 -8 -17 -8h-41zM214 -3c-101 0 -171 76 -171 179v348c0 103 70 179 171 179h105c8 0 13 -5 13 -13v-57c0 -9 -5 -14 -13 -14h-98c-52 0 -87 -40 -87 -97v-127h160
c9 0 14 -5 14 -14v-54c0 -9 -5 -14 -14 -14h-160v-135c0 -57 35 -97 87 -97h98c8 0 13 -5 13 -14v-57c0 -8 -5 -13 -13 -13h-105z" />
    <glyph glyph-name="Ecaron" unicode="&#x11a;" horiz-adv-x="361" 
d="M321 868l-69 -91c-4 -5 -10 -8 -17 -8h-62c-7 0 -13 3 -17 8l-69 91c-6 9 -2 16 8 16h41c6 0 12 -2 16 -7l52 -61l52 61c4 5 9 7 16 7h41c10 0 14 -7 8 -16zM214 -3c-101 0 -171 76 -171 179v348c0 103 70 179 171 179h105c8 0 13 -5 13 -13v-57c0 -9 -5 -14 -13 -14h-98
c-52 0 -87 -40 -87 -97v-127h160c9 0 14 -5 14 -14v-54c0 -9 -5 -14 -14 -14h-160v-135c0 -57 35 -97 87 -97h98c8 0 13 -5 13 -14v-57c0 -8 -5 -13 -13 -13h-105z" />
    <glyph glyph-name="Ecircumflex" unicode="&#xca;" horiz-adv-x="361" 
d="M322 785c6 -9 2 -16 -8 -16h-41c-7 0 -12 2 -16 7l-52 61l-52 -61c-4 -5 -10 -7 -16 -7h-41c-10 0 -14 7 -8 16l69 91c4 5 10 8 17 8h62c7 0 13 -3 17 -8zM214 -3c-101 0 -171 76 -171 179v348c0 103 70 179 171 179h105c8 0 13 -5 13 -13v-57c0 -9 -5 -14 -13 -14h-98
c-52 0 -87 -40 -87 -97v-127h160c9 0 14 -5 14 -14v-54c0 -9 -5 -14 -14 -14h-160v-135c0 -57 35 -97 87 -97h98c8 0 13 -5 13 -14v-57c0 -8 -5 -13 -13 -13h-105z" />
    <glyph glyph-name="Edieresis" unicode="&#xcb;" horiz-adv-x="361" 
d="M146 775c-27 0 -44 18 -44 44s17 44 44 44c26 0 44 -18 44 -44s-18 -44 -44 -44zM264 775c-26 0 -44 18 -44 44s18 44 44 44s44 -18 44 -44s-18 -44 -44 -44zM214 -3c-101 0 -171 76 -171 179v348c0 103 70 179 171 179h105c8 0 13 -5 13 -13v-57c0 -9 -5 -14 -13 -14
h-98c-52 0 -87 -40 -87 -97v-127h160c9 0 14 -5 14 -14v-54c0 -9 -5 -14 -14 -14h-160v-135c0 -57 35 -97 87 -97h98c8 0 13 -5 13 -14v-57c0 -8 -5 -13 -13 -13h-105z" />
    <glyph glyph-name="Edotaccent" unicode="&#x116;" horiz-adv-x="361" 
d="M205 770c-30 0 -51 22 -51 51c0 30 21 52 51 52c29 0 52 -22 52 -52c0 -27 -23 -51 -52 -51zM214 -3c-101 0 -171 76 -171 179v348c0 103 70 179 171 179h105c8 0 13 -5 13 -13v-57c0 -9 -5 -14 -13 -14h-98c-52 0 -87 -40 -87 -97v-127h160c9 0 14 -5 14 -14v-54
c0 -9 -5 -14 -14 -14h-160v-135c0 -57 35 -97 87 -97h98c8 0 13 -5 13 -14v-57c0 -8 -5 -13 -13 -13h-105z" />
    <glyph glyph-name="Egrave" unicode="&#xc8;" horiz-adv-x="361" 
d="M269 769h-41c-7 0 -13 2 -17 8l-79 90c-8 9 -4 17 7 17h57c6 0 13 -2 17 -8l65 -91c6 -8 2 -16 -9 -16zM214 -3c-101 0 -171 76 -171 179v348c0 103 70 179 171 179h105c8 0 13 -5 13 -13v-57c0 -9 -5 -14 -13 -14h-98c-52 0 -87 -40 -87 -97v-127h160c9 0 14 -5 14 -14
v-54c0 -9 -5 -14 -14 -14h-160v-135c0 -57 35 -97 87 -97h98c8 0 13 -5 13 -14v-57c0 -8 -5 -13 -13 -13h-105z" />
    <glyph glyph-name="Emacron" unicode="&#x112;" horiz-adv-x="361" 
d="M118 837c0 8 5 13 14 13h146c8 0 13 -5 13 -13v-35c0 -8 -5 -14 -13 -14h-146c-9 0 -14 6 -14 14v35zM214 -3c-101 0 -171 76 -171 179v348c0 103 70 179 171 179h105c8 0 13 -5 13 -13v-57c0 -9 -5 -14 -13 -14h-98c-52 0 -87 -40 -87 -97v-127h160c9 0 14 -5 14 -14
v-54c0 -9 -5 -14 -14 -14h-160v-135c0 -57 35 -97 87 -97h98c8 0 13 -5 13 -14v-57c0 -8 -5 -13 -13 -13h-105z" />
    <glyph glyph-name="Eogonek" unicode="&#x118;" horiz-adv-x="365" 
d="M221 619c-52 0 -87 -40 -87 -97v-127h160c9 0 14 -5 14 -14v-54c0 -9 -5 -14 -14 -14h-160v-135c0 -57 35 -97 87 -97h98c8 0 13 -5 13 -14v-57c0 -8 -5 -13 -13 -13h-28c-31 -27 -51 -62 -51 -90c0 -27 19 -40 48 -40h8c8 0 13 -4 13 -13v-43c0 -8 -4 -13 -12 -13
c-8 -1 -16 -2 -24 -2c-78 0 -112 34 -112 87c0 41 20 77 51 114c-100 1 -169 77 -169 179v348c0 103 70 179 171 179h105c8 0 13 -5 13 -13v-57c0 -9 -5 -14 -13 -14h-98z" />
    <glyph glyph-name="F" unicode="F" horiz-adv-x="343" 
d="M67 0c-8 0 -13 5 -13 14v507c0 103 69 179 170 179h88c9 0 14 -5 14 -13v-57c0 -9 -5 -14 -14 -14h-81c-52 0 -87 -40 -87 -97v-130h149c8 0 13 -5 13 -13v-57c0 -8 -5 -13 -13 -13h-149v-292c0 -9 -5 -14 -13 -14h-64z" />
    <glyph glyph-name="G" unicode="G" horiz-adv-x="428" 
d="M219 -11c-104 0 -176 76 -176 185v353c0 109 69 184 173 184c100 0 169 -75 172 -182c0 -9 -5 -14 -13 -14h-64c-8 0 -13 5 -14 14c-3 61 -33 97 -81 97c-51 0 -82 -37 -82 -96v-360c0 -59 35 -96 86 -96c50 0 85 37 85 89v136h-69c-9 0 -14 5 -14 13v53c0 9 5 14 14 14
h118c26 0 41 -15 41 -41v-170c0 -103 -72 -179 -176 -179z" />
    <glyph glyph-name="Gbreve" unicode="&#x11e;" horiz-adv-x="428" 
d="M212 768c-65 0 -109 39 -115 99c-1 9 5 14 13 14h39c8 0 12 -4 15 -12c4 -23 21 -37 48 -37s45 14 49 37c2 8 6 12 14 12h39c9 0 14 -4 14 -14c-7 -60 -50 -99 -116 -99zM219 -11c-104 0 -176 76 -176 185v353c0 109 69 184 173 184c100 0 169 -75 172 -182
c0 -9 -5 -14 -13 -14h-64c-8 0 -13 5 -14 14c-3 61 -33 97 -81 97c-51 0 -82 -37 -82 -96v-360c0 -59 35 -96 86 -96c50 0 85 37 85 89v136h-69c-9 0 -14 5 -14 13v53c0 9 5 14 14 14h118c26 0 41 -15 41 -41v-170c0 -103 -72 -179 -176 -179z" />
    <glyph glyph-name="Gcommaaccent" unicode="&#x122;" horiz-adv-x="428" 
d="M219 -11c-104 0 -176 76 -176 185v353c0 109 69 184 173 184c100 0 169 -75 172 -182c0 -9 -5 -14 -13 -14h-64c-8 0 -13 5 -14 14c-3 61 -33 97 -81 97c-51 0 -82 -37 -82 -96v-360c0 -59 35 -96 86 -96c50 0 85 37 85 89v136h-69c-9 0 -14 5 -14 13v53c0 9 5 14 14 14
h118c26 0 41 -15 41 -41v-170c0 -103 -72 -179 -176 -179zM171 -70c0 9 6 13 14 13h55c9 0 14 -6 13 -15l-33 -170c-1 -8 -6 -12 -14 -12h-32c-8 0 -13 5 -13 14z" />
    <glyph glyph-name="Gdotaccent" unicode="&#x120;" horiz-adv-x="428" 
d="M212 770c-30 0 -51 22 -51 51c0 30 21 52 51 52c29 0 52 -22 52 -52c0 -27 -23 -51 -52 -51zM219 -11c-104 0 -176 76 -176 185v353c0 109 69 184 173 184c100 0 169 -75 172 -182c0 -9 -5 -14 -13 -14h-64c-8 0 -13 5 -14 14c-3 61 -33 97 -81 97c-51 0 -82 -37 -82 -96
v-360c0 -59 35 -96 86 -96c50 0 85 37 85 89v136h-69c-9 0 -14 5 -14 13v53c0 9 5 14 14 14h118c26 0 41 -15 41 -41v-170c0 -103 -72 -179 -176 -179z" />
    <glyph glyph-name="H" unicode="H" horiz-adv-x="454" 
d="M304 687c0 8 5 13 14 13h63c8 0 13 -5 13 -13v-673c0 -9 -5 -14 -13 -14h-63c-9 0 -14 5 -14 14v299h-154v-299c0 -9 -5 -14 -13 -14h-63c-9 0 -14 5 -14 14v673c0 8 5 13 14 13h63c8 0 13 -5 13 -13v-291h154v291z" />
    <glyph glyph-name="Hbar" unicode="&#x126;" horiz-adv-x="521" 
d="M473 572c8 0 13 -5 13 -13v-36c0 -9 -5 -14 -13 -14h-46v-495c0 -9 -5 -14 -13 -14h-64c-8 0 -13 5 -13 14v299h-153v-299c0 -9 -5 -14 -13 -14h-63c-9 0 -14 5 -14 14v495h-45c-9 0 -14 5 -14 14v36c0 8 5 13 14 13h45v115c0 8 5 13 14 13h63c8 0 13 -5 13 -13v-115h153
v115c0 8 5 13 13 13h64c8 0 13 -5 13 -13v-115h46zM337 396v113h-153v-113h153z" />
    <glyph glyph-name="I" unicode="I" horiz-adv-x="211" 
d="M60 687c0 8 5 13 14 13h63c8 0 13 -5 13 -13v-673c0 -9 -5 -14 -13 -14h-63c-9 0 -14 5 -14 14v673z" />
    <glyph glyph-name="Iacute" unicode="&#xcd;" horiz-adv-x="225" 
d="M72 769c-11 0 -15 8 -9 16l65 91c4 6 11 8 17 8h57c11 0 15 -8 7 -17l-79 -90c-4 -6 -10 -8 -17 -8h-41zM68 687c0 8 5 13 14 13h63c8 0 13 -5 13 -13v-673c0 -9 -5 -14 -13 -14h-63c-9 0 -14 5 -14 14v673z" />
    <glyph glyph-name="Icircumflex" unicode="&#xce;" horiz-adv-x="265" 
d="M249 785c6 -9 2 -16 -8 -16h-41c-7 0 -12 2 -16 7l-52 61l-52 -61c-4 -5 -10 -7 -16 -7h-41c-10 0 -14 7 -8 16l69 91c4 5 10 8 17 8h62c7 0 13 -3 17 -8zM88 687c0 8 5 13 14 13h63c8 0 13 -5 13 -13v-673c0 -9 -5 -14 -13 -14h-63c-9 0 -14 5 -14 14v673z" />
    <glyph glyph-name="Idieresis" unicode="&#xcf;" horiz-adv-x="226" 
d="M54 775c-27 0 -44 18 -44 44s17 44 44 44c26 0 44 -18 44 -44s-18 -44 -44 -44zM172 775c-26 0 -44 18 -44 44s18 44 44 44s44 -18 44 -44s-18 -44 -44 -44zM69 687c0 8 5 13 14 13h63c8 0 13 -5 13 -13v-673c0 -9 -5 -14 -13 -14h-63c-9 0 -14 5 -14 14v673z" />
    <glyph glyph-name="Idotaccent" unicode="&#x130;" horiz-adv-x="211" 
d="M106 770c-30 0 -51 22 -51 51c0 30 21 52 51 52c29 0 52 -22 52 -52c0 -27 -23 -51 -52 -51zM60 687c0 8 5 13 14 13h63c8 0 13 -5 13 -13v-673c0 -9 -5 -14 -13 -14h-63c-9 0 -14 5 -14 14v673z" />
    <glyph glyph-name="Igrave" unicode="&#xcc;" horiz-adv-x="211" 
d="M170 769h-41c-7 0 -13 2 -17 8l-79 90c-8 9 -4 17 7 17h57c6 0 13 -2 17 -8l65 -91c6 -8 2 -16 -9 -16zM60 687c0 8 5 13 14 13h63c8 0 13 -5 13 -13v-673c0 -9 -5 -14 -13 -14h-63c-9 0 -14 5 -14 14v673z" />
    <glyph glyph-name="Imacron" unicode="&#x12a;" horiz-adv-x="211" 
d="M19 837c0 8 5 13 14 13h146c8 0 13 -5 13 -13v-35c0 -8 -5 -14 -13 -14h-146c-9 0 -14 6 -14 14v35zM60 687c0 8 5 13 14 13h63c8 0 13 -5 13 -13v-673c0 -9 -5 -14 -13 -14h-63c-9 0 -14 5 -14 14v673z" />
    <glyph glyph-name="Iogonek" unicode="&#x12e;" horiz-adv-x="208" 
d="M157 -133c9 0 14 -4 14 -13v-43c0 -8 -5 -12 -13 -13s-16 -2 -23 -2c-82 0 -119 36 -119 87c0 42 22 84 54 117c-6 0 -11 5 -11 14v673c0 8 5 13 13 13h63c9 0 14 -5 14 -13v-673c0 -9 -5 -14 -12 -14c-27 -26 -44 -62 -44 -90c0 -29 23 -43 57 -43h7z" />
    <glyph glyph-name="J" unicode="J" horiz-adv-x="406" 
d="M182 -11c-103 0 -166 80 -169 198c0 9 4 14 13 14h64c8 0 13 -4 13 -13c3 -70 31 -114 81 -114s78 37 78 100v513c0 8 5 13 14 13h63c9 0 14 -5 14 -13v-507c0 -115 -59 -191 -171 -191z" />
    <glyph glyph-name="K" unicode="K" horiz-adv-x="446" 
d="M74 0c-9 0 -14 5 -14 14v673c0 8 5 13 14 13h63c8 0 13 -5 13 -13v-293h80l82 295c2 7 8 11 15 11h63c10 0 14 -6 12 -15l-92 -314c57 -26 88 -85 88 -161v-196c0 -9 -5 -14 -14 -14h-63c-9 0 -14 5 -14 14v198c0 60 -31 98 -84 98h-73v-296c0 -9 -5 -14 -13 -14h-63z
" />
    <glyph glyph-name="Kcommaaccent" unicode="&#x136;" horiz-adv-x="446" 
d="M74 0c-9 0 -14 5 -14 14v673c0 8 5 13 14 13h63c8 0 13 -5 13 -13v-293h80l82 295c2 7 8 11 15 11h63c10 0 14 -6 12 -15l-92 -314c57 -26 88 -85 88 -161v-196c0 -9 -5 -14 -14 -14h-63c-9 0 -14 5 -14 14v198c0 60 -31 98 -84 98h-73v-296c0 -9 -5 -14 -13 -14h-63z
M186 -70c0 9 6 13 14 13h55c9 0 14 -6 13 -15l-33 -170c-1 -8 -6 -12 -14 -12h-32c-8 0 -13 5 -13 14z" />
    <glyph glyph-name="L" unicode="L" horiz-adv-x="346" 
d="M224 81h96c9 0 14 -5 14 -14v-57c0 -8 -5 -13 -14 -13h-101c-102 0 -165 76 -165 176v514c0 8 5 13 13 13h64c9 0 14 -5 14 -13v-511c0 -57 33 -95 79 -95z" />
    <glyph glyph-name="Lacute" unicode="&#x139;" horiz-adv-x="346" 
d="M63 769c-11 0 -15 8 -9 16l65 91c4 6 11 8 17 8h57c11 0 15 -8 7 -17l-79 -90c-4 -6 -10 -8 -17 -8h-41zM224 81h96c9 0 14 -5 14 -14v-57c0 -8 -5 -13 -14 -13h-101c-102 0 -165 76 -165 176v514c0 8 5 13 13 13h64c9 0 14 -5 14 -13v-511c0 -57 33 -95 79 -95z" />
    <glyph glyph-name="Lcaron" unicode="&#x13d;" horiz-adv-x="342" 
d="M214 521c-9 0 -14 6 -13 14l8 154c1 9 7 13 15 13h56c9 0 13 -6 12 -15l-28 -153c-1 -8 -6 -13 -14 -13h-36zM215 -2c-101 0 -165 76 -165 176v513c0 8 5 13 14 13h64c8 0 14 -5 14 -13v-510c0 -57 33 -95 79 -95h96c8 0 13 -5 13 -14v-56c0 -9 -5 -14 -13 -14h-102z" />
    <glyph glyph-name="Lcommaaccent" unicode="&#x13b;" horiz-adv-x="346" 
d="M224 81h96c9 0 14 -5 14 -14v-57c0 -8 -5 -13 -14 -13h-101c-102 0 -165 76 -165 176v514c0 8 5 13 13 13h64c9 0 14 -5 14 -13v-511c0 -57 33 -95 79 -95zM135 -70c0 9 6 13 14 13h55c9 0 14 -6 13 -15l-33 -170c-1 -8 -6 -12 -14 -12h-32c-8 0 -13 5 -13 14z" />
    <glyph glyph-name="Lslash" unicode="&#x141;" horiz-adv-x="408" 
d="M386 81c9 0 14 -5 14 -14v-57c0 -8 -5 -13 -14 -13h-101c-102 0 -165 76 -165 176v136l-76 -29c-9 -3 -15 1 -15 11v53c0 8 4 13 10 16l81 31v296c0 8 5 13 13 13h64c9 0 14 -5 14 -13v-261l100 38c10 3 16 -1 16 -11v-54c0 -7 -4 -12 -11 -15l-105 -40v-168
c0 -57 33 -95 79 -95h96z" />
    <glyph glyph-name="M" unicode="M" horiz-adv-x="669" 
d="M453 711c100 0 163 -73 163 -186v-511c0 -9 -5 -14 -14 -14h-63c-8 0 -13 5 -13 14v515c0 62 -26 97 -73 97c-45 0 -74 -35 -74 -97v-515c0 -9 -5 -14 -13 -14h-63c-8 0 -13 5 -13 14v515c0 62 -30 97 -73 97c-49 0 -74 -35 -74 -97v-515c0 -9 -5 -14 -13 -14h-63
c-8 0 -13 5 -13 14v511c0 113 62 186 163 186c56 0 91 -26 118 -63c27 37 63 63 118 63z" />
    <glyph glyph-name="N" unicode="N" horiz-adv-x="451" 
d="M67 0c-8 0 -13 5 -13 14v513c0 108 67 184 171 184s172 -76 172 -184v-513c0 -9 -5 -14 -14 -14h-63c-8 0 -14 5 -14 14v517c0 57 -31 95 -81 95s-81 -38 -81 -95v-517c0 -9 -5 -14 -13 -14h-64z" />
    <glyph glyph-name="Nacute" unicode="&#x143;" horiz-adv-x="451" 
d="M187 769c-11 0 -15 8 -9 16l65 91c4 6 11 8 17 8h57c11 0 15 -8 7 -17l-79 -90c-4 -6 -10 -8 -17 -8h-41zM67 0c-8 0 -13 5 -13 14v513c0 108 67 184 171 184s172 -76 172 -184v-513c0 -9 -5 -14 -14 -14h-63c-8 0 -14 5 -14 14v517c0 57 -31 95 -81 95s-81 -38 -81 -95
v-517c0 -9 -5 -14 -13 -14h-64z" />
    <glyph glyph-name="Ncaron" unicode="&#x147;" horiz-adv-x="451" 
d="M343 868l-69 -91c-4 -5 -10 -8 -17 -8h-62c-7 0 -13 3 -17 8l-69 91c-6 9 -2 16 8 16h41c6 0 12 -2 16 -7l52 -61l52 61c4 5 9 7 16 7h41c10 0 14 -7 8 -16zM67 0c-8 0 -13 5 -13 14v513c0 108 67 184 171 184s172 -76 172 -184v-513c0 -9 -5 -14 -14 -14h-63
c-8 0 -14 5 -14 14v517c0 57 -31 95 -81 95s-81 -38 -81 -95v-517c0 -9 -5 -14 -13 -14h-64z" />
    <glyph glyph-name="Ncommaaccent" unicode="&#x145;" horiz-adv-x="451" 
d="M67 0c-8 0 -13 5 -13 14v513c0 108 67 184 171 184s172 -76 172 -184v-513c0 -9 -5 -14 -14 -14h-63c-8 0 -14 5 -14 14v517c0 57 -31 95 -81 95s-81 -38 -81 -95v-517c0 -9 -5 -14 -13 -14h-64zM187 -70c0 9 6 13 14 13h55c9 0 14 -6 13 -15l-33 -170
c-1 -8 -6 -12 -14 -12h-32c-8 0 -13 5 -13 14z" />
    <glyph glyph-name="Eng" unicode="&#x14a;" horiz-adv-x="451" 
d="M225 -204c-10 0 -15 5 -15 13v58c0 8 5 13 13 13c60 3 83 36 83 97v554c0 57 -31 95 -81 95s-81 -38 -81 -95v-517c0 -9 -5 -14 -13 -14h-64c-8 0 -13 5 -13 14v513c0 108 67 184 171 184s172 -76 172 -184v-543c0 -116 -59 -186 -172 -188z" />
    <glyph glyph-name="Ntilde" unicode="&#xd1;" horiz-adv-x="451" 
d="M191 802c-9 0 -14 -5 -17 -16c-3 -8 -7 -12 -15 -12h-33c-9 0 -14 5 -14 13c3 35 27 74 73 74c39 0 58 -30 77 -30c10 0 15 6 18 16c2 7 5 13 14 13h34c8 0 13 -5 13 -14c-3 -38 -30 -73 -72 -73c-38 0 -57 29 -78 29zM67 0c-8 0 -13 5 -13 14v513c0 108 67 184 171 184
s172 -76 172 -184v-513c0 -9 -5 -14 -14 -14h-63c-8 0 -14 5 -14 14v517c0 57 -31 95 -81 95s-81 -38 -81 -95v-517c0 -9 -5 -14 -13 -14h-64z" />
    <glyph glyph-name="O" unicode="O" horiz-adv-x="439" 
d="M220 -10c-104 0 -177 76 -177 188v344c0 112 73 188 177 188s176 -76 176 -181v-358c0 -105 -72 -181 -176 -181zM220 74c51 0 85 38 85 93v366c0 55 -34 93 -85 93s-86 -38 -86 -100v-352c0 -62 35 -100 86 -100z" />
    <glyph glyph-name="Oacute" unicode="&#xd3;" horiz-adv-x="439" 
d="M179 769c-11 0 -15 8 -9 16l65 91c4 6 11 8 17 8h57c11 0 15 -8 7 -17l-79 -90c-4 -6 -10 -8 -17 -8h-41zM220 -10c-104 0 -177 76 -177 188v344c0 112 73 188 177 188s176 -76 176 -181v-358c0 -105 -72 -181 -176 -181zM220 74c51 0 85 38 85 93v366
c0 55 -34 93 -85 93s-86 -38 -86 -100v-352c0 -62 35 -100 86 -100z" />
    <glyph glyph-name="Ocircumflex" unicode="&#xd4;" horiz-adv-x="439" 
d="M336 785c6 -9 2 -16 -8 -16h-41c-7 0 -12 2 -16 7l-52 61l-52 -61c-4 -5 -10 -7 -16 -7h-41c-10 0 -14 7 -8 16l69 91c4 5 10 8 17 8h62c7 0 13 -3 17 -8zM220 -10c-104 0 -177 76 -177 188v344c0 112 73 188 177 188s176 -76 176 -181v-358c0 -105 -72 -181 -176 -181z
M220 74c51 0 85 38 85 93v366c0 55 -34 93 -85 93s-86 -38 -86 -100v-352c0 -62 35 -100 86 -100z" />
    <glyph glyph-name="Odieresis" unicode="&#xd6;" horiz-adv-x="439" 
d="M160 775c-27 0 -44 18 -44 44s17 44 44 44c26 0 44 -18 44 -44s-18 -44 -44 -44zM278 775c-26 0 -44 18 -44 44s18 44 44 44s44 -18 44 -44s-18 -44 -44 -44zM220 -10c-104 0 -177 76 -177 188v344c0 112 73 188 177 188s176 -76 176 -181v-358
c0 -105 -72 -181 -176 -181zM220 74c51 0 85 38 85 93v366c0 55 -34 93 -85 93s-86 -38 -86 -100v-352c0 -62 35 -100 86 -100z" />
    <glyph glyph-name="Ograve" unicode="&#xd2;" horiz-adv-x="439" 
d="M283 769h-41c-7 0 -13 2 -17 8l-79 90c-8 9 -4 17 7 17h57c6 0 13 -2 17 -8l65 -91c6 -8 2 -16 -9 -16zM220 -10c-104 0 -177 76 -177 188v344c0 112 73 188 177 188s176 -76 176 -181v-358c0 -105 -72 -181 -176 -181zM220 74c51 0 85 38 85 93v366c0 55 -34 93 -85 93
s-86 -38 -86 -100v-352c0 -62 35 -100 86 -100z" />
    <glyph glyph-name="Ohungarumlaut" unicode="&#x150;" horiz-adv-x="439" 
d="M115 769c-11 0 -15 8 -8 16l65 91c4 6 10 8 17 8h57c11 0 14 -8 7 -17l-80 -90c-4 -6 -9 -8 -16 -8h-42zM236 769c-11 0 -15 8 -8 16l65 91c4 6 10 8 17 8h57c11 0 14 -8 7 -17l-80 -90c-4 -6 -9 -8 -16 -8h-42zM220 -10c-104 0 -177 76 -177 188v344
c0 112 73 188 177 188s176 -76 176 -181v-358c0 -105 -72 -181 -176 -181zM220 74c51 0 85 38 85 93v366c0 55 -34 93 -85 93s-86 -38 -86 -100v-352c0 -62 35 -100 86 -100z" />
    <glyph glyph-name="Omacron" unicode="&#x14c;" horiz-adv-x="439" 
d="M132 837c0 8 5 13 14 13h146c8 0 13 -5 13 -13v-35c0 -8 -5 -14 -13 -14h-146c-9 0 -14 6 -14 14v35zM220 -10c-104 0 -177 76 -177 188v344c0 112 73 188 177 188s176 -76 176 -181v-358c0 -105 -72 -181 -176 -181zM220 74c51 0 85 38 85 93v366c0 55 -34 93 -85 93
s-86 -38 -86 -100v-352c0 -62 35 -100 86 -100z" />
    <glyph glyph-name="Oslash" unicode="&#xd8;" horiz-adv-x="441" 
d="M86 -45c-10 0 -15 6 -12 15l21 70c-33 33 -52 80 -52 138v344c0 112 73 188 177 188c25 0 49 -4 69 -12l11 36c3 7 8 11 16 11h34c10 0 15 -6 12 -15l-20 -66c35 -32 55 -79 55 -135v-358c0 -105 -72 -181 -177 -181c-26 0 -51 5 -73 14l-12 -38c-2 -7 -7 -11 -15 -11
h-34zM143 202l121 412c-12 7 -27 12 -44 12c-51 0 -85 -38 -85 -100v-278c0 -17 2 -33 8 -46zM220 74c51 0 86 38 86 93v305c0 16 -3 31 -7 44l-127 -426c13 -11 29 -16 48 -16z" />
    <glyph glyph-name="Otilde" unicode="&#xd5;" horiz-adv-x="439" 
d="M183 802c-9 0 -14 -5 -17 -16c-3 -8 -7 -12 -15 -12h-33c-9 0 -14 5 -14 13c3 35 27 74 73 74c39 0 58 -30 77 -30c10 0 15 6 18 16c2 7 5 13 14 13h34c8 0 13 -5 13 -14c-3 -38 -30 -73 -72 -73c-38 0 -57 29 -78 29zM220 -10c-104 0 -177 76 -177 188v344
c0 112 73 188 177 188s176 -76 176 -181v-358c0 -105 -72 -181 -176 -181zM220 74c51 0 85 38 85 93v366c0 55 -34 93 -85 93s-86 -38 -86 -100v-352c0 -62 35 -100 86 -100z" />
    <glyph glyph-name="OE" unicode="&#x152;" horiz-adv-x="610" 
d="M212 -9c-99 0 -169 75 -169 180v358c0 105 70 180 169 180c57 0 101 -28 127 -72c25 41 67 67 120 67h109c8 0 13 -5 13 -14v-56c0 -8 -5 -13 -13 -13h-102c-52 0 -86 -43 -86 -102v-124h155c8 0 13 -5 13 -14v-54c0 -8 -5 -13 -13 -13h-155v-133c0 -59 34 -101 86 -101
h102c8 0 13 -5 13 -14v-56c0 -9 -5 -14 -13 -14h-109c-53 0 -95 27 -120 69c-26 -46 -70 -74 -127 -74zM212 75c47 0 78 41 78 97v356c0 56 -31 97 -78 97s-78 -37 -78 -91v-368c0 -54 31 -91 78 -91z" />
    <glyph glyph-name="P" unicode="P" horiz-adv-x="420" 
d="M67 0c-8 0 -13 5 -13 14v512c0 109 65 185 168 185c104 0 172 -76 172 -185v-102c0 -102 -67 -172 -171 -172h-79v-238c0 -9 -5 -14 -13 -14h-64zM144 336h76c52 0 83 32 83 86v108c0 58 -31 96 -80 96s-79 -38 -79 -96v-194z" />
    <glyph glyph-name="Thorn" unicode="&#xde;" horiz-adv-x="417" 
d="M74 0c-9 0 -14 5 -14 14v673c0 8 5 13 14 13h63c9 0 14 -5 14 -13v-116h74c95 0 166 -72 166 -168v-105c0 -96 -71 -168 -166 -168h-74v-116c0 -9 -5 -14 -14 -14h-63zM151 214h71c45 0 78 33 78 80v113c0 48 -33 81 -78 81h-71v-274z" />
    <glyph glyph-name="Q" unicode="Q" horiz-adv-x="450" 
d="M402 24c6 -7 6 -14 0 -19l-31 -31c-6 -6 -13 -6 -19 0l-39 40c-27 -16 -58 -24 -93 -24c-104 0 -177 76 -177 181v358c0 105 73 181 177 181c105 0 177 -76 177 -181v-358c0 -42 -12 -80 -32 -109zM220 74c10 0 20 2 28 4l-28 29c-6 6 -6 14 0 19l32 31c5 6 13 6 19 0
l28 -29c5 12 7 25 7 39v366c0 55 -35 93 -86 93s-85 -38 -85 -93v-366c0 -55 34 -93 85 -93z" />
    <glyph glyph-name="R" unicode="R" horiz-adv-x="444" 
d="M67 0c-8 0 -13 5 -13 14v512c0 109 69 185 170 185c103 0 173 -76 173 -185v-80c0 -77 -37 -133 -89 -161l107 -270c3 -9 -4 -15 -13 -15h-68c-8 0 -12 4 -14 12l-95 252h-81v-250c0 -9 -5 -14 -13 -14h-64zM144 347h77c52 0 85 38 85 97v86c0 58 -33 96 -81 96
s-81 -38 -81 -96v-183z" />
    <glyph glyph-name="Racute" unicode="&#x154;" horiz-adv-x="444" 
d="M182 769c-11 0 -15 8 -9 16l65 91c4 6 11 8 17 8h57c11 0 15 -8 7 -17l-79 -90c-4 -6 -10 -8 -17 -8h-41zM67 0c-8 0 -13 5 -13 14v512c0 109 69 185 170 185c103 0 173 -76 173 -185v-80c0 -77 -37 -133 -89 -161l107 -270c3 -9 -4 -15 -13 -15h-68c-8 0 -12 4 -14 12
l-95 252h-81v-250c0 -9 -5 -14 -13 -14h-64zM144 347h77c52 0 85 38 85 97v86c0 58 -33 96 -81 96s-81 -38 -81 -96v-183z" />
    <glyph glyph-name="Rcaron" unicode="&#x158;" horiz-adv-x="444" 
d="M338 868l-69 -91c-4 -5 -10 -8 -17 -8h-62c-7 0 -13 3 -17 8l-69 91c-6 9 -2 16 8 16h41c6 0 12 -2 16 -7l52 -61l52 61c4 5 9 7 16 7h41c10 0 14 -7 8 -16zM67 0c-8 0 -13 5 -13 14v512c0 109 69 185 170 185c103 0 173 -76 173 -185v-80c0 -77 -37 -133 -89 -161
l107 -270c3 -9 -4 -15 -13 -15h-68c-8 0 -12 4 -14 12l-95 252h-81v-250c0 -9 -5 -14 -13 -14h-64zM144 347h77c52 0 85 38 85 97v86c0 58 -33 96 -81 96s-81 -38 -81 -96v-183z" />
    <glyph glyph-name="Rcommaaccent" unicode="&#x156;" horiz-adv-x="444" 
d="M67 0c-8 0 -13 5 -13 14v512c0 109 69 185 170 185c103 0 173 -76 173 -185v-80c0 -77 -37 -133 -89 -161l107 -270c3 -9 -4 -15 -13 -15h-68c-8 0 -12 4 -14 12l-95 252h-81v-250c0 -9 -5 -14 -13 -14h-64zM144 347h77c52 0 85 38 85 97v86c0 58 -33 96 -81 96
s-81 -38 -81 -96v-183zM182 -70c0 9 6 13 14 13h55c9 0 14 -6 13 -15l-33 -170c-1 -8 -6 -12 -14 -12h-32c-8 0 -13 5 -13 14z" />
    <glyph glyph-name="S" unicode="S" horiz-adv-x="408" 
d="M205 -11c-104 0 -171 77 -175 198c0 9 5 14 14 14h63c8 0 13 -5 14 -13c2 -76 31 -114 85 -114c53 0 81 29 81 83c0 155 -251 202 -251 394c0 98 66 160 165 160c98 0 163 -75 167 -192c0 -8 -4 -13 -13 -13h-63c-8 0 -13 5 -13 13c-3 74 -30 108 -77 108
c-49 0 -76 -26 -76 -76c0 -143 252 -190 252 -394c0 -103 -69 -168 -173 -168z" />
    <glyph glyph-name="Sacute" unicode="&#x15a;" horiz-adv-x="408" 
d="M163 769c-11 0 -15 8 -9 16l65 91c4 6 11 8 17 8h57c11 0 15 -8 7 -17l-79 -90c-4 -6 -10 -8 -17 -8h-41zM205 -11c-104 0 -171 77 -175 198c0 9 5 14 14 14h63c8 0 13 -5 14 -13c2 -76 31 -114 85 -114c53 0 81 29 81 83c0 155 -251 202 -251 394c0 98 66 160 165 160
c98 0 163 -75 167 -192c0 -8 -4 -13 -13 -13h-63c-8 0 -13 5 -13 13c-3 74 -30 108 -77 108c-49 0 -76 -26 -76 -76c0 -143 252 -190 252 -394c0 -103 -69 -168 -173 -168z" />
    <glyph glyph-name="Scaron" unicode="&#x160;" horiz-adv-x="408" 
d="M319 868l-69 -91c-4 -5 -10 -8 -17 -8h-62c-7 0 -13 3 -17 8l-69 91c-6 9 -2 16 8 16h41c6 0 12 -2 16 -7l52 -61l52 61c4 5 9 7 16 7h41c10 0 14 -7 8 -16zM205 -11c-104 0 -171 77 -175 198c0 9 5 14 14 14h63c8 0 13 -5 14 -13c2 -76 31 -114 85 -114
c53 0 81 29 81 83c0 155 -251 202 -251 394c0 98 66 160 165 160c98 0 163 -75 167 -192c0 -8 -4 -13 -13 -13h-63c-8 0 -13 5 -13 13c-3 74 -30 108 -77 108c-49 0 -76 -26 -76 -76c0 -143 252 -190 252 -394c0 -103 -69 -168 -173 -168z" />
    <glyph glyph-name="Scedilla" unicode="&#x15e;" horiz-adv-x="408" 
d="M378 157c0 -97 -62 -161 -156 -167l-6 -34h6c41 -3 74 -33 74 -75c0 -54 -40 -85 -94 -85c-48 0 -85 26 -91 73c-1 8 4 13 13 13h27c8 0 11 -4 14 -11c5 -15 19 -23 37 -23c22 0 39 12 39 33c0 18 -16 31 -38 31c-13 0 -24 -2 -35 -4c-3 -1 -7 0 -9 2l-3 3
c-3 3 -5 5 -4 10l15 70c-82 17 -134 89 -137 194c0 9 5 14 14 14h63c8 0 13 -5 14 -13c2 -76 31 -114 85 -114c53 0 81 29 81 83c0 155 -251 202 -251 394c0 98 66 160 165 160c98 0 163 -75 167 -192c0 -8 -4 -13 -13 -13h-63c-8 0 -13 5 -13 13c-3 74 -30 108 -77 108
c-49 0 -76 -26 -76 -76c0 -143 252 -190 252 -394z" />
    <glyph glyph-name="Scommaaccent" unicode="&#x218;" horiz-adv-x="408" 
d="M205 -11c-104 0 -171 77 -175 198c0 9 5 14 14 14h63c8 0 13 -5 14 -13c2 -76 31 -114 85 -114c53 0 81 29 81 83c0 155 -251 202 -251 394c0 98 66 160 165 160c98 0 163 -75 167 -192c0 -8 -4 -13 -13 -13h-63c-8 0 -13 5 -13 13c-3 74 -30 108 -77 108
c-49 0 -76 -26 -76 -76c0 -143 252 -190 252 -394c0 -103 -69 -168 -173 -168zM173 -70c0 9 6 13 14 13h55c9 0 14 -6 13 -15l-33 -170c-1 -8 -6 -12 -14 -12h-32c-8 0 -13 5 -13 14z" />
    <glyph glyph-name="T" unicode="T" horiz-adv-x="359" 
d="M333 700c9 0 14 -5 14 -13v-57c0 -9 -5 -14 -14 -14h-108v-602c0 -9 -5 -14 -14 -14h-63c-8 0 -13 5 -13 14v602h-109c-8 0 -13 5 -13 14v57c0 8 5 13 13 13h307z" />
    <glyph glyph-name="Tbar" unicode="&#x166;" horiz-adv-x="361" 
d="M334 700c8 0 13 -5 13 -13v-56c0 -9 -5 -14 -13 -14h-109v-203h66c8 0 13 -5 13 -13v-39c0 -8 -5 -13 -13 -13h-66v-335c0 -9 -5 -14 -13 -14h-63c-9 0 -14 5 -14 14v335h-65c-9 0 -14 5 -14 13v39c0 8 5 13 14 13h65v203h-108c-9 0 -14 5 -14 14v56c0 8 5 13 14 13h307z
" />
    <glyph glyph-name="Tcaron" unicode="&#x164;" horiz-adv-x="359" 
d="M296 868l-69 -91c-4 -5 -10 -8 -17 -8h-62c-7 0 -13 3 -17 8l-69 91c-6 9 -2 16 8 16h41c6 0 12 -2 16 -7l52 -61l52 61c4 5 9 7 16 7h41c10 0 14 -7 8 -16zM333 700c9 0 14 -5 14 -13v-57c0 -9 -5 -14 -14 -14h-108v-602c0 -9 -5 -14 -14 -14h-63c-8 0 -13 5 -13 14v602
h-109c-8 0 -13 5 -13 14v57c0 8 5 13 13 13h307z" />
    <glyph glyph-name="uni0162" unicode="&#x162;" horiz-adv-x="359" 
d="M333 700c9 0 14 -5 14 -13v-57c0 -9 -5 -14 -14 -14h-108v-602c0 -9 -5 -14 -14 -14h-63c-8 0 -13 5 -13 14v602h-109c-8 0 -13 5 -13 14v57c0 8 5 13 13 13h307zM140 -70c0 9 6 13 14 13h55c9 0 14 -6 13 -15l-33 -170c-1 -8 -6 -12 -14 -12h-32c-8 0 -13 5 -13 14z" />
    <glyph glyph-name="uni021A" unicode="&#x21a;" horiz-adv-x="359" 
d="M333 700c9 0 14 -5 14 -13v-57c0 -9 -5 -14 -14 -14h-108v-602c0 -9 -5 -14 -14 -14h-63c-8 0 -13 5 -13 14v602h-109c-8 0 -13 5 -13 14v57c0 8 5 13 13 13h307zM150 -70c0 9 6 13 14 13h55c9 0 14 -6 13 -15l-33 -170c-1 -8 -6 -12 -14 -12h-32c-8 0 -13 5 -13 14z" />
    <glyph glyph-name="U" unicode="U" horiz-adv-x="451" 
d="M67 700h64c8 0 13 -5 13 -14v-517c0 -57 31 -95 81 -95s81 38 81 95v517c0 9 6 14 14 14h63c9 0 14 -5 14 -14v-513c0 -108 -68 -184 -172 -184s-171 76 -171 184v513c0 9 5 14 13 14z" />
    <glyph glyph-name="Uacute" unicode="&#xda;" horiz-adv-x="451" 
d="M182 769c-11 0 -15 8 -9 16l65 91c4 6 11 8 17 8h57c11 0 15 -8 7 -17l-79 -90c-4 -6 -10 -8 -17 -8h-41zM67 700h64c8 0 13 -5 13 -14v-517c0 -57 31 -95 81 -95s81 38 81 95v517c0 9 6 14 14 14h63c9 0 14 -5 14 -14v-513c0 -108 -68 -184 -172 -184s-171 76 -171 184
v513c0 9 5 14 13 14z" />
    <glyph glyph-name="Ucircumflex" unicode="&#xdb;" horiz-adv-x="451" 
d="M339 785c6 -9 2 -16 -8 -16h-41c-7 0 -12 2 -16 7l-52 61l-52 -61c-4 -5 -10 -7 -16 -7h-41c-10 0 -14 7 -8 16l69 91c4 5 10 8 17 8h62c7 0 13 -3 17 -8zM67 700h64c8 0 13 -5 13 -14v-517c0 -57 31 -95 81 -95s81 38 81 95v517c0 9 6 14 14 14h63c9 0 14 -5 14 -14
v-513c0 -108 -68 -184 -172 -184s-171 76 -171 184v513c0 9 5 14 13 14z" />
    <glyph glyph-name="Udieresis" unicode="&#xdc;" horiz-adv-x="451" 
d="M163 775c-27 0 -44 18 -44 44s17 44 44 44c26 0 44 -18 44 -44s-18 -44 -44 -44zM281 775c-26 0 -44 18 -44 44s18 44 44 44s44 -18 44 -44s-18 -44 -44 -44zM67 700h64c8 0 13 -5 13 -14v-517c0 -57 31 -95 81 -95s81 38 81 95v517c0 9 6 14 14 14h63c9 0 14 -5 14 -14
v-513c0 -108 -68 -184 -172 -184s-171 76 -171 184v513c0 9 5 14 13 14z" />
    <glyph glyph-name="Ugrave" unicode="&#xd9;" horiz-adv-x="451" 
d="M286 769h-41c-7 0 -13 2 -17 8l-79 90c-8 9 -4 17 7 17h57c6 0 13 -2 17 -8l65 -91c6 -8 2 -16 -9 -16zM67 700h64c8 0 13 -5 13 -14v-517c0 -57 31 -95 81 -95s81 38 81 95v517c0 9 6 14 14 14h63c9 0 14 -5 14 -14v-513c0 -108 -68 -184 -172 -184s-171 76 -171 184
v513c0 9 5 14 13 14z" />
    <glyph glyph-name="Uhungarumlaut" unicode="&#x170;" horiz-adv-x="451" 
d="M118 769c-11 0 -15 8 -8 16l65 91c4 6 10 8 17 8h57c11 0 14 -8 7 -17l-80 -90c-4 -6 -9 -8 -16 -8h-42zM239 769c-11 0 -15 8 -8 16l65 91c4 6 10 8 17 8h57c11 0 14 -8 7 -17l-80 -90c-4 -6 -9 -8 -16 -8h-42zM67 700h64c8 0 13 -5 13 -14v-517c0 -57 31 -95 81 -95
s81 38 81 95v517c0 9 6 14 14 14h63c9 0 14 -5 14 -14v-513c0 -108 -68 -184 -172 -184s-171 76 -171 184v513c0 9 5 14 13 14z" />
    <glyph glyph-name="Umacron" unicode="&#x16a;" horiz-adv-x="451" 
d="M135 837c0 8 5 13 14 13h146c8 0 13 -5 13 -13v-35c0 -8 -5 -14 -13 -14h-146c-9 0 -14 6 -14 14v35zM67 700h64c8 0 13 -5 13 -14v-517c0 -57 31 -95 81 -95s81 38 81 95v517c0 9 6 14 14 14h63c9 0 14 -5 14 -14v-513c0 -108 -68 -184 -172 -184s-171 76 -171 184v513
c0 9 5 14 13 14z" />
    <glyph glyph-name="Uogonek" unicode="&#x172;" horiz-adv-x="447" 
d="M303 687c0 8 5 13 13 13h64c8 0 13 -5 13 -13v-521c0 -62 -28 -104 -63 -142s-62 -85 -62 -121c0 -25 20 -38 56 -36c10 1 15 -4 15 -13v-45c0 -8 -5 -13 -13 -13c-87 -8 -139 20 -139 84c0 35 20 77 47 111c-6 -1 -12 -2 -17 -2c-97 3 -163 78 -163 177v521
c0 8 5 13 13 13h64c8 0 13 -5 13 -13v-525c0 -50 32 -88 79 -88c48 0 80 38 80 88v525z" />
    <glyph glyph-name="Uring" unicode="&#x16e;" horiz-adv-x="451" 
d="M146 825c0 43 30 71 75 71c44 0 74 -28 74 -71c0 -44 -30 -73 -74 -73c-45 0 -75 29 -75 73zM194 824c0 -16 10 -27 27 -27c16 0 27 11 27 27s-11 27 -27 27c-17 0 -27 -11 -27 -27zM67 700h64c8 0 13 -5 13 -14v-517c0 -57 31 -95 81 -95s81 38 81 95v517
c0 9 6 14 14 14h63c9 0 14 -5 14 -14v-513c0 -108 -68 -184 -172 -184s-171 76 -171 184v513c0 9 5 14 13 14z" />
    <glyph glyph-name="V" unicode="V" horiz-adv-x="397" 
d="M376 700c9 0 14 -6 12 -14l-119 -653c-4 -24 -19 -37 -43 -37h-55c-24 0 -39 13 -43 37l-119 653c-1 8 3 14 12 14h65c8 0 14 -4 15 -12l98 -586l98 586c1 8 6 12 14 12h65z" />
    <glyph glyph-name="W" unicode="W" horiz-adv-x="669" 
d="M602 700c9 0 14 -5 14 -13v-512c0 -113 -62 -186 -163 -186c-57 0 -91 26 -119 63c-27 -37 -62 -63 -117 -63c-101 0 -163 73 -163 186v512c0 8 5 13 13 13h63c8 0 13 -5 13 -13v-516c0 -62 26 -97 74 -97c44 0 73 35 73 97v516c0 8 5 13 13 13h63c8 0 13 -5 13 -13v-516
c0 -62 31 -97 74 -97c48 0 73 35 73 97v516c0 8 5 13 13 13h63z" />
    <glyph glyph-name="Wacute" unicode="&#x1e82;" horiz-adv-x="669" 
d="M295 769c-11 0 -15 8 -9 16l65 91c4 6 11 8 17 8h57c11 0 15 -8 7 -17l-79 -90c-4 -6 -10 -8 -17 -8h-41zM602 700c9 0 14 -5 14 -13v-512c0 -113 -62 -186 -163 -186c-57 0 -91 26 -119 63c-27 -37 -62 -63 -117 -63c-101 0 -163 73 -163 186v512c0 8 5 13 13 13h63
c8 0 13 -5 13 -13v-516c0 -62 26 -97 74 -97c44 0 73 35 73 97v516c0 8 5 13 13 13h63c8 0 13 -5 13 -13v-516c0 -62 31 -97 74 -97c48 0 73 35 73 97v516c0 8 5 13 13 13h63z" />
    <glyph glyph-name="Wcircumflex" unicode="&#x174;" horiz-adv-x="669" 
d="M226 769c-10 0 -14 7 -8 16l69 91c4 5 10 8 17 8h62c7 0 13 -3 17 -8l69 -91c6 -9 2 -16 -8 -16h-41c-7 0 -12 2 -16 7l-52 61l-52 -61c-4 -5 -10 -7 -16 -7h-41zM602 700c9 0 14 -5 14 -13v-512c0 -113 -62 -186 -163 -186c-57 0 -91 26 -119 63
c-27 -37 -62 -63 -117 -63c-101 0 -163 73 -163 186v512c0 8 5 13 13 13h63c8 0 13 -5 13 -13v-516c0 -62 26 -97 74 -97c44 0 73 35 73 97v516c0 8 5 13 13 13h63c8 0 13 -5 13 -13v-516c0 -62 31 -97 74 -97c48 0 73 35 73 97v516c0 8 5 13 13 13h63z" />
    <glyph glyph-name="Wdieresis" unicode="&#x1e84;" horiz-adv-x="669" 
d="M276 775c-27 0 -44 18 -44 44s17 44 44 44c26 0 44 -18 44 -44s-18 -44 -44 -44zM394 775c-26 0 -44 18 -44 44s18 44 44 44s44 -18 44 -44s-18 -44 -44 -44zM602 700c9 0 14 -5 14 -13v-512c0 -113 -62 -186 -163 -186c-57 0 -91 26 -119 63c-27 -37 -62 -63 -117 -63
c-101 0 -163 73 -163 186v512c0 8 5 13 13 13h63c8 0 13 -5 13 -13v-516c0 -62 26 -97 74 -97c44 0 73 35 73 97v516c0 8 5 13 13 13h63c8 0 13 -5 13 -13v-516c0 -62 31 -97 74 -97c48 0 73 35 73 97v516c0 8 5 13 13 13h63z" />
    <glyph glyph-name="Wgrave" unicode="&#x1e80;" horiz-adv-x="669" 
d="M341 777l-79 90c-8 9 -4 17 7 17h57c6 0 13 -2 17 -8l65 -91c6 -8 2 -16 -9 -16h-41c-7 0 -13 2 -17 8zM602 700c9 0 14 -5 14 -13v-512c0 -113 -62 -186 -163 -186c-57 0 -91 26 -119 63c-27 -37 -62 -63 -117 -63c-101 0 -163 73 -163 186v512c0 8 5 13 13 13h63
c8 0 13 -5 13 -13v-516c0 -62 26 -97 74 -97c44 0 73 35 73 97v516c0 8 5 13 13 13h63c8 0 13 -5 13 -13v-516c0 -62 31 -97 74 -97c48 0 73 35 73 97v516c0 8 5 13 13 13h63z" />
    <glyph glyph-name="X" unicode="X" horiz-adv-x="426" 
d="M383 492c0 -61 -25 -107 -70 -137c45 -31 70 -77 70 -138v-203c0 -9 -5 -14 -14 -14h-63c-9 0 -14 5 -14 14v207c0 53 -32 91 -79 91s-79 -38 -79 -91v-207c0 -9 -5 -14 -14 -14h-63c-9 0 -14 5 -14 14v203c0 61 25 107 70 138c-45 30 -70 76 -70 137v195c0 8 5 13 14 13
h63c9 0 14 -5 14 -13v-199c0 -53 32 -92 79 -92s79 39 79 92v199c0 8 5 13 14 13h63c9 0 14 -5 14 -13v-195z" />
    <glyph glyph-name="Y" unicode="Y" horiz-adv-x="416" 
d="M177 0c-9 0 -14 5 -14 14v215c-75 18 -125 86 -125 173v285c0 8 5 13 14 13h63c8 0 14 -5 14 -13v-289c0 -52 31 -91 79 -91s80 39 80 91v289c0 8 5 13 13 13h63c9 0 14 -5 14 -13v-285c0 -87 -49 -155 -125 -173v-215c0 -9 -5 -14 -13 -14h-63z" />
    <glyph glyph-name="Yacute" unicode="&#xdd;" horiz-adv-x="416" 
d="M168 769c-11 0 -15 8 -9 16l65 91c4 6 11 8 17 8h57c11 0 15 -8 7 -17l-79 -90c-4 -6 -10 -8 -17 -8h-41zM177 0c-9 0 -14 5 -14 14v215c-75 18 -125 86 -125 173v285c0 8 5 13 14 13h63c8 0 14 -5 14 -13v-289c0 -52 31 -91 79 -91s80 39 80 91v289c0 8 5 13 13 13h63
c9 0 14 -5 14 -13v-285c0 -87 -49 -155 -125 -173v-215c0 -9 -5 -14 -13 -14h-63z" />
    <glyph glyph-name="Ycircumflex" unicode="&#x176;" horiz-adv-x="416" 
d="M325 785c6 -9 2 -16 -8 -16h-41c-7 0 -12 2 -16 7l-52 61l-52 -61c-4 -5 -10 -7 -16 -7h-41c-10 0 -14 7 -8 16l69 91c4 5 10 8 17 8h62c7 0 13 -3 17 -8zM177 0c-9 0 -14 5 -14 14v215c-75 18 -125 86 -125 173v285c0 8 5 13 14 13h63c8 0 14 -5 14 -13v-289
c0 -52 31 -91 79 -91s80 39 80 91v289c0 8 5 13 13 13h63c9 0 14 -5 14 -13v-285c0 -87 -49 -155 -125 -173v-215c0 -9 -5 -14 -13 -14h-63z" />
    <glyph glyph-name="Ydieresis" unicode="&#x178;" horiz-adv-x="416" 
d="M149 775c-27 0 -44 18 -44 44s17 44 44 44c26 0 44 -18 44 -44s-18 -44 -44 -44zM267 775c-26 0 -44 18 -44 44s18 44 44 44s44 -18 44 -44s-18 -44 -44 -44zM177 0c-9 0 -14 5 -14 14v215c-75 18 -125 86 -125 173v285c0 8 5 13 14 13h63c8 0 14 -5 14 -13v-289
c0 -52 31 -91 79 -91s80 39 80 91v289c0 8 5 13 13 13h63c9 0 14 -5 14 -13v-285c0 -87 -49 -155 -125 -173v-215c0 -9 -5 -14 -13 -14h-63z" />
    <glyph glyph-name="Ygrave" unicode="&#x1ef2;" horiz-adv-x="416" 
d="M272 769h-41c-7 0 -13 2 -17 8l-79 90c-8 9 -4 17 7 17h57c6 0 13 -2 17 -8l65 -91c6 -8 2 -16 -9 -16zM177 0c-9 0 -14 5 -14 14v215c-75 18 -125 86 -125 173v285c0 8 5 13 14 13h63c8 0 14 -5 14 -13v-289c0 -52 31 -91 79 -91s80 39 80 91v289c0 8 5 13 13 13h63
c9 0 14 -5 14 -13v-285c0 -87 -49 -155 -125 -173v-215c0 -9 -5 -14 -13 -14h-63z" />
    <glyph glyph-name="Z" unicode="Z" horiz-adv-x="401" 
d="M123 84h234c8 0 13 -5 13 -14v-56c0 -9 -5 -14 -13 -14h-282c-28 0 -44 16 -44 43v19c0 22 2 36 11 54l233 500h-209c-8 0 -13 5 -13 14v57c0 8 5 13 13 13h257c27 0 43 -13 44 -42v-19c1 -21 0 -36 -9 -54z" />
    <glyph glyph-name="Zacute" unicode="&#x179;" horiz-adv-x="401" 
d="M169 769c-11 0 -15 8 -9 16l65 91c4 6 11 8 17 8h57c11 0 15 -8 7 -17l-79 -90c-4 -6 -10 -8 -17 -8h-41zM123 84h234c8 0 13 -5 13 -14v-56c0 -9 -5 -14 -13 -14h-282c-28 0 -44 16 -44 43v19c0 22 2 36 11 54l233 500h-209c-8 0 -13 5 -13 14v57c0 8 5 13 13 13h257
c27 0 43 -13 44 -42v-19c1 -21 0 -36 -9 -54z" />
    <glyph glyph-name="Zcaron" unicode="&#x17d;" horiz-adv-x="401" 
d="M325 868l-69 -91c-4 -5 -10 -8 -17 -8h-62c-7 0 -13 3 -17 8l-69 91c-6 9 -2 16 8 16h41c6 0 12 -2 16 -7l52 -61l52 61c4 5 9 7 16 7h41c10 0 14 -7 8 -16zM123 84h234c8 0 13 -5 13 -14v-56c0 -9 -5 -14 -13 -14h-282c-28 0 -44 16 -44 43v19c0 22 2 36 11 54l233 500
h-209c-8 0 -13 5 -13 14v57c0 8 5 13 13 13h257c27 0 43 -13 44 -42v-19c1 -21 0 -36 -9 -54z" />
    <glyph glyph-name="Zdotaccent" unicode="&#x17b;" horiz-adv-x="401" 
d="M209 763c-30 0 -51 22 -51 51c0 30 21 52 51 52c29 0 52 -22 52 -52c0 -27 -23 -51 -52 -51zM123 84h234c8 0 13 -5 13 -14v-56c0 -9 -5 -14 -13 -14h-282c-28 0 -44 16 -44 43v19c0 22 2 36 11 54l233 500h-209c-8 0 -13 5 -13 14v57c0 8 5 13 13 13h257
c27 0 43 -13 44 -42v-19c1 -21 0 -36 -9 -54z" />
    <glyph glyph-name="uni0162.ss01" horiz-adv-x="361" 
d="M334 700c8 0 13 -5 13 -13v-57c0 -9 -5 -14 -13 -14h-109v-602c0 -9 -4 -14 -11 -14h-5l-8 -44h6c40 -3 73 -33 73 -75c0 -54 -40 -85 -93 -85c-48 0 -86 26 -91 73c-2 8 4 13 13 13h27c8 0 11 -4 14 -11c5 -15 19 -23 37 -23c22 0 38 12 38 33c0 18 -16 31 -37 31
c-13 0 -24 -2 -35 -4c-4 -1 -7 0 -10 2l-3 3c-2 3 -4 5 -3 10l15 77h-5c-7 0 -12 5 -12 14v602h-108c-9 0 -14 5 -14 14v57c0 8 5 13 14 13h307z" />
    <glyph glyph-name="a" unicode="a" horiz-adv-x="389" 
d="M194 -10c-97 0 -162 67 -162 161c0 83 64 147 158 147h75v55c0 45 -27 76 -72 76c-42 0 -65 -28 -68 -69c-1 -9 -5 -12 -14 -12h-58c-8 0 -13 6 -13 14c6 87 65 149 154 149c95 0 156 -68 156 -162v-201c0 -92 -60 -158 -156 -158zM193 72c46 0 72 30 72 76v73h-72
c-47 0 -75 -31 -75 -70c0 -48 28 -79 75 -79z" />
    <glyph glyph-name="aacute" unicode="&#xe1;" horiz-adv-x="389" 
d="M270 677c12 0 15 -8 8 -17l-70 -93c-4 -6 -10 -8 -17 -8h-41c-11 0 -15 7 -9 16l57 92c3 6 9 10 16 10h56zM194 -10c-97 0 -162 67 -162 161c0 83 64 147 158 147h75v55c0 45 -27 76 -72 76c-42 0 -65 -28 -68 -69c-1 -9 -5 -12 -14 -12h-58c-8 0 -13 6 -13 14
c6 87 65 149 154 149c95 0 156 -68 156 -162v-201c0 -92 -60 -158 -156 -158zM193 72c46 0 72 30 72 76v73h-72c-47 0 -75 -31 -75 -70c0 -48 28 -79 75 -79z" />
    <glyph glyph-name="abreve" unicode="&#x103;" horiz-adv-x="389" 
d="M194 561c-65 0 -110 39 -116 100c0 9 5 14 13 14h39c9 0 13 -4 15 -13c4 -23 21 -36 49 -36c27 0 44 13 48 36c3 9 7 13 15 13h39c8 0 13 -5 13 -14c-6 -60 -50 -100 -115 -100zM194 -10c-97 0 -162 67 -162 161c0 83 64 147 158 147h75v55c0 45 -27 76 -72 76
c-42 0 -65 -28 -68 -69c-1 -9 -5 -12 -14 -12h-58c-8 0 -13 6 -13 14c6 87 65 149 154 149c95 0 156 -68 156 -162v-201c0 -92 -60 -158 -156 -158zM193 72c46 0 72 30 72 76v73h-72c-47 0 -75 -31 -75 -70c0 -48 28 -79 75 -79z" />
    <glyph glyph-name="acircumflex" unicode="&#xe2;" horiz-adv-x="389" 
d="M92 559c-11 0 -15 8 -9 16l65 93c4 7 10 9 16 9h59c7 0 12 -2 16 -9l65 -93c6 -8 2 -16 -9 -16h-39c-7 0 -13 2 -17 8l-45 57l-45 -57c-4 -6 -10 -8 -17 -8h-40zM194 -10c-97 0 -162 67 -162 161c0 83 64 147 158 147h75v55c0 45 -27 76 -72 76c-42 0 -65 -28 -68 -69
c-1 -9 -5 -12 -14 -12h-58c-8 0 -13 6 -13 14c6 87 65 149 154 149c95 0 156 -68 156 -162v-201c0 -92 -60 -158 -156 -158zM193 72c46 0 72 30 72 76v73h-72c-47 0 -75 -31 -75 -70c0 -48 28 -79 75 -79z" />
    <glyph glyph-name="adieresis" unicode="&#xe4;" horiz-adv-x="389" 
d="M135 568c-27 0 -44 18 -44 44s17 44 44 44c26 0 44 -18 44 -44s-18 -44 -44 -44zM253 568c-26 0 -44 18 -44 44s18 44 44 44s44 -18 44 -44s-18 -44 -44 -44zM194 -10c-97 0 -162 67 -162 161c0 83 64 147 158 147h75v55c0 45 -27 76 -72 76c-42 0 -65 -28 -68 -69
c-1 -9 -5 -12 -14 -12h-58c-8 0 -13 6 -13 14c6 87 65 149 154 149c95 0 156 -68 156 -162v-201c0 -92 -60 -158 -156 -158zM193 72c46 0 72 30 72 76v73h-72c-47 0 -75 -31 -75 -70c0 -48 28 -79 75 -79z" />
    <glyph glyph-name="agrave" unicode="&#xe0;" horiz-adv-x="389" 
d="M104 677h56c7 0 13 -4 16 -10l57 -92c6 -9 2 -16 -9 -16h-41c-7 0 -13 2 -17 8l-70 93c-7 9 -4 17 8 17zM194 -10c-97 0 -162 67 -162 161c0 83 64 147 158 147h75v55c0 45 -27 76 -72 76c-42 0 -65 -28 -68 -69c-1 -9 -5 -12 -14 -12h-58c-8 0 -13 6 -13 14
c6 87 65 149 154 149c95 0 156 -68 156 -162v-201c0 -92 -60 -158 -156 -158zM193 72c46 0 72 30 72 76v73h-72c-47 0 -75 -31 -75 -70c0 -48 28 -79 75 -79z" />
    <glyph glyph-name="amacron" unicode="&#x101;" horiz-adv-x="389" 
d="M107 636c0 8 5 13 14 13h146c8 0 13 -5 13 -13v-35c0 -8 -5 -14 -13 -14h-146c-9 0 -14 6 -14 14v35zM194 -10c-97 0 -162 67 -162 161c0 83 64 147 158 147h75v55c0 45 -27 76 -72 76c-42 0 -65 -28 -68 -69c-1 -9 -5 -12 -14 -12h-58c-8 0 -13 6 -13 14
c6 87 65 149 154 149c95 0 156 -68 156 -162v-201c0 -92 -60 -158 -156 -158zM193 72c46 0 72 30 72 76v73h-72c-47 0 -75 -31 -75 -70c0 -48 28 -79 75 -79z" />
    <glyph glyph-name="aogonek" unicode="&#x105;" horiz-adv-x="390" 
d="M301 -204c-76 -8 -139 18 -139 84c0 40 22 77 48 111c-9 -2 -15 -2 -22 -2c-94 3 -156 69 -156 161c0 84 68 148 159 148h74v55c0 45 -30 76 -71 76c-40 0 -67 -27 -70 -67c0 -9 -5 -12 -13 -12h-58c-9 0 -14 5 -13 14c6 86 69 147 155 147c91 0 155 -68 155 -162v-221
c0 -44 -17 -76 -45 -104c-34 -35 -62 -89 -62 -121c0 -24 20 -36 57 -36c9 0 14 -4 14 -13v-45c0 -8 -5 -13 -13 -13zM193 71c45 0 72 23 72 57v93h-72c-43 0 -75 -31 -75 -71c0 -47 28 -79 75 -79z" />
    <glyph glyph-name="aring" unicode="&#xe5;" horiz-adv-x="389" 
d="M119 620c0 43 30 71 75 71c44 0 74 -28 74 -71c0 -44 -30 -73 -74 -73c-45 0 -75 29 -75 73zM167 619c0 -16 10 -27 27 -27c16 0 27 11 27 27s-11 27 -27 27c-17 0 -27 -11 -27 -27zM194 -10c-97 0 -162 67 -162 161c0 83 64 147 158 147h75v55c0 45 -27 76 -72 76
c-42 0 -65 -28 -68 -69c-1 -9 -5 -12 -14 -12h-58c-8 0 -13 6 -13 14c6 87 65 149 154 149c95 0 156 -68 156 -162v-201c0 -92 -60 -158 -156 -158zM193 72c46 0 72 30 72 76v73h-72c-47 0 -75 -31 -75 -70c0 -48 28 -79 75 -79z" />
    <glyph glyph-name="atilde" unicode="&#xe3;" horiz-adv-x="389" 
d="M156 602c-9 0 -14 -5 -17 -16c-3 -8 -7 -12 -15 -12h-33c-9 0 -14 5 -14 13c3 35 27 74 73 74c39 0 58 -30 77 -30c10 0 15 6 18 16c2 7 5 13 14 13h34c8 0 13 -5 13 -14c-3 -38 -30 -73 -72 -73c-38 0 -57 29 -78 29zM194 -10c-97 0 -162 67 -162 161
c0 83 64 147 158 147h75v55c0 45 -27 76 -72 76c-42 0 -65 -28 -68 -69c-1 -9 -5 -12 -14 -12h-58c-8 0 -13 6 -13 14c6 87 65 149 154 149c95 0 156 -68 156 -162v-201c0 -92 -60 -158 -156 -158zM193 72c46 0 72 30 72 76v73h-72c-47 0 -75 -31 -75 -70
c0 -48 28 -79 75 -79z" />
    <glyph glyph-name="ae" unicode="&#xe6;" horiz-adv-x="600" 
d="M189 -11c-94 0 -157 65 -157 155c0 84 68 148 159 148h66v61c0 45 -29 76 -67 76s-64 -27 -67 -67c0 -9 -5 -12 -13 -12h-58c-9 0 -14 5 -14 14c6 86 68 147 153 147c47 0 84 -25 109 -60c27 35 63 60 113 60c92 0 155 -62 155 -152c0 -84 -63 -147 -160 -147h-65v-63
c0 -47 26 -78 70 -78c41 0 63 26 67 74c1 9 6 13 14 13h58c9 0 14 -5 14 -13c-6 -94 -63 -156 -154 -156c-50 0 -86 24 -110 59c-25 -35 -63 -59 -113 -59zM343 290h65c50 0 74 28 74 68c0 45 -24 71 -69 71c-43 0 -70 -31 -70 -76v-63zM187 71c44 0 70 31 70 77v67h-64
c-45 0 -75 -31 -75 -71c0 -44 26 -73 69 -73z" />
    <glyph glyph-name="b" unicode="b" horiz-adv-x="405" 
d="M216 511c90 0 149 -68 149 -163v-196c0 -95 -63 -163 -159 -163c-95 0 -159 68 -159 163v535c0 8 5 13 14 13h58c9 0 14 -5 14 -13v-213c20 23 48 37 83 37zM280 149v202c0 47 -28 78 -74 78s-73 -31 -73 -78v-202c0 -47 27 -78 73 -78s74 31 74 78z" />
    <glyph glyph-name="c" unicode="c" horiz-adv-x="385" 
d="M198 -11c-95 0 -159 68 -159 163v196c0 95 63 163 157 163c90 0 150 -62 156 -153c1 -8 -4 -13 -13 -13h-59c-8 0 -13 4 -14 13c-4 45 -29 71 -70 71c-44 0 -71 -31 -71 -78v-202c0 -47 27 -78 72 -78c42 0 69 29 73 78c1 10 5 14 13 14h60c8 0 13 -5 13 -15
c-6 -94 -67 -159 -158 -159z" />
    <glyph glyph-name="cacute" unicode="&#x107;" horiz-adv-x="385" 
d="M271 677c12 0 15 -8 8 -17l-70 -93c-4 -6 -10 -8 -17 -8h-41c-11 0 -15 7 -9 16l57 92c3 6 9 10 16 10h56zM198 -11c-95 0 -159 68 -159 163v196c0 95 63 163 157 163c90 0 150 -62 156 -153c1 -8 -4 -13 -13 -13h-59c-8 0 -13 4 -14 13c-4 45 -29 71 -70 71
c-44 0 -71 -31 -71 -78v-202c0 -47 27 -78 72 -78c42 0 69 29 73 78c1 10 5 14 13 14h60c8 0 13 -5 13 -15c-6 -94 -67 -159 -158 -159z" />
    <glyph glyph-name="ccaron" unicode="&#x10d;" horiz-adv-x="385" 
d="M93 677h40c7 0 13 -2 17 -8l45 -57l45 57c4 6 10 8 17 8h39c11 0 15 -8 9 -16l-65 -93c-4 -7 -9 -9 -16 -9h-59c-6 0 -12 2 -16 9l-65 93c-6 8 -2 16 9 16zM198 -11c-95 0 -159 68 -159 163v196c0 95 63 163 157 163c90 0 150 -62 156 -153c1 -8 -4 -13 -13 -13h-59
c-8 0 -13 4 -14 13c-4 45 -29 71 -70 71c-44 0 -71 -31 -71 -78v-202c0 -47 27 -78 72 -78c42 0 69 29 73 78c1 10 5 14 13 14h60c8 0 13 -5 13 -15c-6 -94 -67 -159 -158 -159z" />
    <glyph glyph-name="ccedilla" unicode="&#xe7;" horiz-adv-x="385" 
d="M356 148c-5 -86 -57 -147 -135 -158l-6 -34h6c41 -3 74 -33 74 -75c0 -54 -40 -85 -94 -85c-48 0 -85 26 -91 73c-1 8 4 13 13 13h27c8 0 11 -4 14 -11c5 -15 19 -23 37 -23c22 0 39 12 39 33c0 18 -16 31 -38 31c-13 0 -24 -2 -35 -4c-3 -1 -7 0 -9 2l-3 3
c-3 3 -5 5 -4 10l14 69c-76 14 -126 76 -126 160v196c0 95 63 163 157 163c90 0 150 -62 156 -153c1 -8 -4 -13 -13 -13h-59c-8 0 -13 4 -14 13c-4 45 -29 71 -70 71c-44 0 -71 -31 -71 -78v-202c0 -47 27 -78 72 -78c42 0 69 29 73 78c1 10 5 14 13 14h60c8 0 13 -5 13 -15
z" />
    <glyph glyph-name="cdotaccent" unicode="&#x10b;" horiz-adv-x="385" 
d="M195 563c-30 0 -51 22 -51 51c0 30 21 52 51 52c29 0 52 -22 52 -52c0 -27 -23 -51 -52 -51zM198 -11c-95 0 -159 68 -159 163v196c0 95 63 163 157 163c90 0 150 -62 156 -153c1 -8 -4 -13 -13 -13h-59c-8 0 -13 4 -14 13c-4 45 -29 71 -70 71c-44 0 -71 -31 -71 -78
v-202c0 -47 27 -78 72 -78c42 0 69 29 73 78c1 10 5 14 13 14h60c8 0 13 -5 13 -15c-6 -94 -67 -159 -158 -159z" />
    <glyph glyph-name="d" unicode="d" horiz-adv-x="405" 
d="M344 700c9 0 14 -5 14 -13v-535c0 -95 -64 -163 -159 -163c-96 0 -159 68 -159 163v196c0 95 59 163 149 163c35 0 63 -14 83 -37v213c0 8 5 13 14 13h58zM272 149v202c0 47 -27 78 -73 78s-74 -31 -74 -78v-202c0 -47 28 -78 74 -78s73 31 73 78z" />
    <glyph glyph-name="eth" unicode="&#xf0;" horiz-adv-x="413" 
d="M319 627c25 -35 38 -81 38 -133v-340c0 -97 -62 -165 -159 -165c-96 0 -159 68 -159 165v191c0 95 59 162 150 162c35 0 63 -14 83 -37v30c0 32 -9 61 -25 83l-82 -49c-8 -5 -13 2 -13 10v25c0 6 4 11 10 14l51 31c-19 12 -43 18 -70 18h-24c-8 0 -13 5 -13 14v51
c0 8 5 13 13 13h25c60 0 109 -18 145 -49l53 32c8 4 13 -2 13 -10v-25c0 -7 -4 -11 -10 -15zM272 151v197c0 46 -28 78 -74 78s-73 -32 -73 -78v-197c0 -49 27 -80 73 -80c47 0 74 31 74 80z" />
    <glyph glyph-name="dcaron" unicode="&#x10f;" horiz-adv-x="497" 
d="M473 702c9 0 14 -6 13 -15l-33 -170c-1 -8 -6 -12 -14 -12h-32c-8 0 -13 5 -13 14l10 170c0 9 6 13 14 13h55zM344 700c9 0 14 -5 14 -13v-535c0 -95 -64 -163 -159 -163c-96 0 -159 68 -159 163v196c0 95 59 163 149 163c35 0 63 -14 83 -37v213c0 8 5 13 14 13h58z
M272 149v202c0 47 -27 78 -73 78s-74 -31 -74 -78v-202c0 -47 28 -78 74 -78s73 31 73 78z" />
    <glyph glyph-name="dcroat" unicode="&#x111;" horiz-adv-x="416" 
d="M398 637c7 0 13 -5 13 -13v-26c0 -8 -6 -14 -13 -14h-40v-432c0 -95 -64 -163 -159 -163c-96 0 -159 68 -159 163v196c0 95 59 163 149 163c35 0 63 -14 83 -37v110h-79c-8 0 -13 6 -13 14v26c0 8 5 13 13 13h79v50c0 8 5 13 14 13h58c9 0 14 -5 14 -13v-50h40zM272 149
v202c0 47 -27 78 -73 78s-74 -31 -74 -78v-202c0 -47 28 -78 74 -78s73 31 73 78z" />
    <glyph glyph-name="e" unicode="e" horiz-adv-x="390" 
d="M197 -10c-94 0 -158 65 -158 163v196c1 95 63 161 159 161c94 1 160 -66 160 -158c0 -88 -64 -151 -159 -151h-74v-52c0 -46 27 -78 73 -78c41 0 68 30 71 74c1 9 6 13 14 13h59c8 0 13 -5 13 -13c-5 -93 -68 -155 -158 -155zM125 279h74c46 0 73 29 73 71
c0 48 -28 79 -74 79c-47 0 -73 -31 -73 -79v-71z" />
    <glyph glyph-name="eacute" unicode="&#xe9;" horiz-adv-x="390" 
d="M272 677c12 0 15 -8 8 -17l-70 -93c-4 -6 -10 -8 -17 -8h-41c-11 0 -15 7 -9 16l57 92c3 6 9 10 16 10h56zM197 -10c-94 0 -158 65 -158 163v196c1 95 63 161 159 161c94 1 160 -66 160 -158c0 -88 -64 -151 -159 -151h-74v-52c0 -46 27 -78 73 -78c41 0 68 30 71 74
c1 9 6 13 14 13h59c8 0 13 -5 13 -13c-5 -93 -68 -155 -158 -155zM125 279h74c46 0 73 29 73 71c0 48 -28 79 -74 79c-47 0 -73 -31 -73 -79v-71z" />
    <glyph glyph-name="ecaron" unicode="&#x11b;" horiz-adv-x="390" 
d="M94 677h40c7 0 13 -2 17 -8l45 -57l45 57c4 6 10 8 17 8h39c11 0 15 -8 9 -16l-65 -93c-4 -7 -9 -9 -16 -9h-59c-6 0 -12 2 -16 9l-65 93c-6 8 -2 16 9 16zM197 -10c-94 0 -158 65 -158 163v196c1 95 63 161 159 161c94 1 160 -66 160 -158c0 -88 -64 -151 -159 -151h-74
v-52c0 -46 27 -78 73 -78c41 0 68 30 71 74c1 9 6 13 14 13h59c8 0 13 -5 13 -13c-5 -93 -68 -155 -158 -155zM125 279h74c46 0 73 29 73 71c0 48 -28 79 -74 79c-47 0 -73 -31 -73 -79v-71z" />
    <glyph glyph-name="ecircumflex" unicode="&#xea;" horiz-adv-x="390" 
d="M94 559c-11 0 -15 8 -9 16l65 93c4 7 10 9 16 9h59c7 0 12 -2 16 -9l65 -93c6 -8 2 -16 -9 -16h-39c-7 0 -13 2 -17 8l-45 57l-45 -57c-4 -6 -10 -8 -17 -8h-40zM197 -10c-94 0 -158 65 -158 163v196c1 95 63 161 159 161c94 1 160 -66 160 -158
c0 -88 -64 -151 -159 -151h-74v-52c0 -46 27 -78 73 -78c41 0 68 30 71 74c1 9 6 13 14 13h59c8 0 13 -5 13 -13c-5 -93 -68 -155 -158 -155zM125 279h74c46 0 73 29 73 71c0 48 -28 79 -74 79c-47 0 -73 -31 -73 -79v-71z" />
    <glyph glyph-name="edieresis" unicode="&#xeb;" horiz-adv-x="390" 
d="M137 568c-27 0 -44 18 -44 44s17 44 44 44c26 0 44 -18 44 -44s-18 -44 -44 -44zM255 568c-26 0 -44 18 -44 44s18 44 44 44s44 -18 44 -44s-18 -44 -44 -44zM197 -10c-94 0 -158 65 -158 163v196c1 95 63 161 159 161c94 1 160 -66 160 -158c0 -88 -64 -151 -159 -151
h-74v-52c0 -46 27 -78 73 -78c41 0 68 30 71 74c1 9 6 13 14 13h59c8 0 13 -5 13 -13c-5 -93 -68 -155 -158 -155zM125 279h74c46 0 73 29 73 71c0 48 -28 79 -74 79c-47 0 -73 -31 -73 -79v-71z" />
    <glyph glyph-name="edotaccent" unicode="&#x117;" horiz-adv-x="390" 
d="M196 563c-30 0 -51 22 -51 51c0 30 21 52 51 52c29 0 52 -22 52 -52c0 -27 -23 -51 -52 -51zM197 -10c-94 0 -158 65 -158 163v196c1 95 63 161 159 161c94 1 160 -66 160 -158c0 -88 -64 -151 -159 -151h-74v-52c0 -46 27 -78 73 -78c41 0 68 30 71 74c1 9 6 13 14 13
h59c8 0 13 -5 13 -13c-5 -93 -68 -155 -158 -155zM125 279h74c46 0 73 29 73 71c0 48 -28 79 -74 79c-47 0 -73 -31 -73 -79v-71z" />
    <glyph glyph-name="egrave" unicode="&#xe8;" horiz-adv-x="390" 
d="M106 677h56c7 0 13 -4 16 -10l57 -92c6 -9 2 -16 -9 -16h-41c-7 0 -13 2 -17 8l-70 93c-7 9 -4 17 8 17zM197 -10c-94 0 -158 65 -158 163v196c1 95 63 161 159 161c94 1 160 -66 160 -158c0 -88 -64 -151 -159 -151h-74v-52c0 -46 27 -78 73 -78c41 0 68 30 71 74
c1 9 6 13 14 13h59c8 0 13 -5 13 -13c-5 -93 -68 -155 -158 -155zM125 279h74c46 0 73 29 73 71c0 48 -28 79 -74 79c-47 0 -73 -31 -73 -79v-71z" />
    <glyph glyph-name="emacron" unicode="&#x113;" horiz-adv-x="390" 
d="M109 636c0 8 5 13 14 13h146c8 0 13 -5 13 -13v-35c0 -8 -5 -14 -13 -14h-146c-9 0 -14 6 -14 14v35zM197 -10c-94 0 -158 65 -158 163v196c1 95 63 161 159 161c94 1 160 -66 160 -158c0 -88 -64 -151 -159 -151h-74v-52c0 -46 27 -78 73 -78c41 0 68 30 71 74
c1 9 6 13 14 13h59c8 0 13 -5 13 -13c-5 -93 -68 -155 -158 -155zM125 279h74c46 0 73 29 73 71c0 48 -28 79 -74 79c-47 0 -73 -31 -73 -79v-71z" />
    <glyph glyph-name="eogonek" unicode="&#x119;" horiz-adv-x="390" 
d="M289 -204c-65 -13 -140 17 -140 86c0 37 18 81 46 111c-6 -1 -15 -1 -20 0c-83 4 -136 73 -136 159v199c0 92 64 160 157 160c94 0 158 -64 158 -157c0 -91 -67 -152 -159 -152h-70v-53c0 -47 27 -78 73 -78c45 0 71 32 72 79c1 9 5 13 14 13h58c10 0 14 -6 14 -14
c0 -57 -30 -99 -62 -129c-39 -36 -65 -82 -65 -113c0 -34 25 -41 58 -40c8 0 14 -3 14 -13v-45c0 -8 -5 -12 -12 -13zM125 280h70c43 0 73 27 73 73c0 47 -26 76 -72 76c-44 0 -71 -31 -71 -77v-72z" />
    <glyph glyph-name="f" unicode="f" horiz-adv-x="301" 
d="M268 500c8 0 13 -5 13 -13v-52c0 -8 -5 -13 -13 -13h-99v-408c0 -9 -6 -14 -14 -14h-58c-9 0 -14 5 -14 14v408h-57c-8 0 -13 5 -13 13v52c0 8 5 13 13 13h57v21c0 115 69 183 171 183c8 0 13 -5 13 -14v-53c0 -9 -5 -14 -13 -14c-53 0 -85 -31 -85 -97v-26h99z" />
    <glyph glyph-name="g" unicode="g" horiz-adv-x="405" 
d="M199 511c95 0 159 -68 159 -163v-396c0 -99 -62 -163 -159 -163c-93 0 -155 63 -159 161c-1 9 4 14 13 14h59c8 0 13 -4 14 -14c3 -50 30 -79 73 -79c46 0 73 29 73 78v99c-21 -22 -49 -35 -80 -35c-89 0 -153 68 -153 163v172c0 95 64 163 160 163zM199 94
c46 0 73 32 73 79v178c0 47 -27 78 -73 78s-74 -31 -74 -78v-178c0 -47 28 -79 74 -79z" />
    <glyph glyph-name="gbreve" unicode="&#x11f;" horiz-adv-x="405" 
d="M202 561c-65 0 -110 39 -116 100c0 9 5 14 13 14h39c9 0 13 -4 15 -13c4 -23 21 -36 49 -36c27 0 44 13 48 36c3 9 7 13 15 13h39c8 0 13 -5 13 -14c-6 -60 -50 -100 -115 -100zM199 511c95 0 159 -68 159 -163v-396c0 -99 -62 -163 -159 -163c-93 0 -155 63 -159 161
c-1 9 4 14 13 14h59c8 0 13 -4 14 -14c3 -50 30 -79 73 -79c46 0 73 29 73 78v99c-21 -22 -49 -35 -80 -35c-89 0 -153 68 -153 163v172c0 95 64 163 160 163zM199 94c46 0 73 32 73 79v178c0 47 -27 78 -73 78s-74 -31 -74 -78v-178c0 -47 28 -79 74 -79z" />
    <glyph glyph-name="gcommaaccent" unicode="&#x123;" horiz-adv-x="407" 
d="M173 563c-8 0 -14 4 -14 13l-10 142c0 8 5 13 13 13h33c8 0 13 -4 15 -12l29 -141c1 -9 -4 -15 -13 -15h-53zM199 511c95 0 159 -68 159 -163v-396c0 -99 -62 -163 -159 -163c-93 0 -155 63 -159 161c-1 9 4 14 13 14h59c8 0 13 -4 14 -14c3 -50 30 -79 73 -79
c46 0 73 29 73 78v99c-21 -22 -49 -35 -80 -35c-89 0 -153 68 -153 163v172c0 95 64 163 160 163zM199 94c46 0 73 32 73 79v178c0 47 -27 78 -73 78s-74 -31 -74 -78v-178c0 -47 28 -79 74 -79z" />
    <glyph glyph-name="gdotaccent" unicode="&#x121;" horiz-adv-x="405" 
d="M202 563c-30 0 -51 22 -51 51c0 30 21 52 51 52c29 0 52 -22 52 -52c0 -27 -23 -51 -52 -51zM199 511c95 0 159 -68 159 -163v-396c0 -99 -62 -163 -159 -163c-93 0 -155 63 -159 161c-1 9 4 14 13 14h59c8 0 13 -4 14 -14c3 -50 30 -79 73 -79c46 0 73 29 73 78v99
c-21 -22 -49 -35 -80 -35c-89 0 -153 68 -153 163v172c0 95 64 163 160 163zM199 94c46 0 73 32 73 79v178c0 47 -27 78 -73 78s-74 -31 -74 -78v-178c0 -47 28 -79 74 -79z" />
    <glyph glyph-name="h" unicode="h" horiz-adv-x="418" 
d="M69 0c-9 0 -14 5 -14 14v673c0 8 5 13 14 13h58c9 0 14 -5 14 -13v-211c19 21 47 35 80 35c91 0 150 -68 150 -165v-332c0 -9 -5 -14 -14 -14h-58c-9 0 -14 5 -14 14v335c0 49 -27 80 -73 80c-43 0 -71 -31 -71 -80v-335c0 -9 -5 -14 -14 -14h-58z" />
    <glyph glyph-name="hbar" unicode="&#x127;" horiz-adv-x="456" 
d="M106 0c-8 0 -13 5 -13 14v564h-67c-8 0 -13 5 -13 13v31c0 8 5 13 13 13h67v52c0 8 5 13 13 13h59c8 0 13 -5 13 -13v-52h129c9 0 14 -5 14 -13v-31c0 -8 -5 -13 -14 -13h-129v-106c19 21 47 35 81 35c90 0 149 -67 149 -164v-329c0 -9 -5 -14 -13 -14h-59
c-8 0 -13 5 -13 14v332c0 48 -27 80 -73 80c-43 0 -72 -32 -72 -80v-332c0 -9 -5 -14 -13 -14h-59z" />
    <glyph glyph-name="i" unicode="i" horiz-adv-x="196" 
d="M98 563c-30 0 -51 22 -51 51c0 30 21 52 51 52c29 0 52 -22 52 -52c0 -27 -23 -51 -52 -51zM69 0c-9 0 -14 5 -14 14v473c0 8 5 13 14 13h58c9 0 14 -5 14 -13v-473c0 -9 -5 -14 -14 -14h-58z" />
    <glyph glyph-name="dotlessi" unicode="&#x131;" horiz-adv-x="196" 
d="M69 0c-9 0 -14 5 -14 14v473c0 8 5 13 14 13h58c9 0 14 -5 14 -13v-473c0 -9 -5 -14 -14 -14h-58z" />
    <glyph glyph-name="iacute" unicode="&#xed;" horiz-adv-x="196" 
d="M174 677c12 0 15 -8 8 -17l-70 -93c-4 -6 -10 -8 -17 -8h-41c-11 0 -15 7 -9 16l57 92c3 6 9 10 16 10h56zM69 0c-9 0 -14 5 -14 14v473c0 8 5 13 14 13h58c9 0 14 -5 14 -13v-473c0 -9 -5 -14 -14 -14h-58z" />
    <glyph glyph-name="icircumflex" unicode="&#xee;" horiz-adv-x="226" 
d="M25 559c-11 0 -15 8 -9 16l65 93c4 7 10 9 16 9h59c7 0 12 -2 16 -9l65 -93c6 -8 2 -16 -9 -16h-39c-7 0 -13 2 -17 8l-45 57l-45 -57c-4 -6 -10 -8 -17 -8h-40zM98 0c-9 0 -14 5 -14 14v473c0 8 5 13 14 13h58c9 0 14 -5 14 -13v-473c0 -9 -5 -14 -14 -14h-58z" />
    <glyph glyph-name="idieresis" unicode="&#xef;" horiz-adv-x="201" 
d="M48 570c-24 0 -40 16 -41 41c1 25 17 41 41 41s42 -16 42 -41s-18 -41 -42 -41zM155 570c-25 0 -42 16 -42 41s17 41 42 41c23 0 40 -16 40 -41s-17 -41 -40 -41zM72 0c-9 0 -14 5 -14 14v473c0 8 5 13 14 13h58c9 0 14 -5 14 -13v-473c0 -9 -5 -14 -14 -14h-58z" />
    <glyph glyph-name="i.loclTRK" horiz-adv-x="196" 
d="M98 563c-30 0 -51 22 -51 51c0 30 21 52 51 52c29 0 52 -22 52 -52c0 -27 -23 -51 -52 -51zM69 0c-9 0 -14 5 -14 14v473c0 8 5 13 14 13h58c9 0 14 -5 14 -13v-473c0 -9 -5 -14 -14 -14h-58z" />
    <glyph glyph-name="igrave" unicode="&#xec;" horiz-adv-x="196" 
d="M8 677h56c7 0 13 -4 16 -10l57 -92c6 -9 2 -16 -9 -16h-41c-7 0 -13 2 -17 8l-70 93c-7 9 -4 17 8 17zM69 0c-9 0 -14 5 -14 14v473c0 8 5 13 14 13h58c9 0 14 -5 14 -13v-473c0 -9 -5 -14 -14 -14h-58z" />
    <glyph glyph-name="imacron" unicode="&#x12b;" horiz-adv-x="167" 
d="M3 636c0 8 5 13 14 13h133c9 0 14 -5 14 -13v-35c0 -8 -5 -14 -14 -14h-133c-9 0 -14 6 -14 14v35zM54 0c-9 0 -14 5 -14 14v473c0 8 5 13 14 13h58c9 0 14 -5 14 -13v-473c0 -9 -5 -14 -14 -14h-58z" />
    <glyph glyph-name="iogonek" unicode="&#x12f;" horiz-adv-x="216" 
d="M109 563c-30 0 -51 22 -51 51c0 30 22 52 52 52c29 0 51 -22 51 -51c0 -28 -22 -52 -52 -52zM130 -205c-69 0 -110 33 -110 87c0 37 20 83 48 118v487c0 8 5 13 14 13h58c9 0 14 -5 14 -13v-477c0 -8 -5 -14 -14 -22c-31 -32 -44 -64 -44 -86c0 -27 25 -36 56 -37h3
c9 0 14 -5 14 -13v-41c0 -12 -11 -16 -39 -16z" />
    <glyph glyph-name="j" unicode="j" horiz-adv-x="255" 
d="M148 563c-30 0 -51 22 -51 51c0 30 21 52 51 52c29 0 52 -22 52 -52c0 -27 -23 -51 -52 -51zM14 -205c-9 0 -14 5 -14 13v55c0 8 4 13 14 13h7c59 2 86 35 86 91v520c0 8 5 13 13 13h59c8 0 13 -5 13 -13v-513c0 -110 -60 -178 -169 -179h-9z" />
    <glyph glyph-name="k" unicode="k" horiz-adv-x="400" 
d="M271 281c55 -22 91 -74 91 -141v-126c0 -9 -5 -14 -13 -14h-59c-8 0 -13 5 -13 14v129c0 45 -31 74 -76 74h-60v-203c0 -9 -5 -14 -14 -14h-58c-9 0 -14 5 -14 14v673c0 8 5 13 14 13h58c9 0 14 -5 14 -13v-389h48l91 192c4 7 9 10 16 10h62c10 0 16 -6 12 -16z" />
    <glyph glyph-name="kcommaaccent" unicode="&#x137;" horiz-adv-x="400" 
d="M271 281c55 -22 91 -74 91 -141v-126c0 -9 -5 -14 -13 -14h-59c-8 0 -13 5 -13 14v129c0 45 -31 74 -76 74h-60v-203c0 -9 -5 -14 -14 -14h-58c-9 0 -14 5 -14 14v673c0 8 5 13 14 13h58c9 0 14 -5 14 -13v-389h48l91 192c4 7 9 10 16 10h62c10 0 16 -6 12 -16zM172 -70
c0 9 6 13 14 13h55c9 0 14 -6 13 -15l-33 -170c-1 -8 -6 -12 -14 -12h-32c-8 0 -13 5 -13 14z" />
    <glyph glyph-name="l" unicode="l" horiz-adv-x="196" 
d="M69 0c-9 0 -14 5 -14 14v673c0 8 5 13 14 13h58c9 0 14 -5 14 -13v-673c0 -9 -5 -14 -14 -14h-58z" />
    <glyph glyph-name="lacute" unicode="&#x13a;" horiz-adv-x="218" 
d="M69 769c-11 0 -15 8 -9 16l65 91c4 6 11 8 17 8h57c11 0 15 -8 7 -17l-79 -90c-4 -6 -10 -8 -17 -8h-41zM69 0c-9 0 -14 5 -14 14v673c0 8 5 13 14 13h58c9 0 14 -5 14 -13v-673c0 -9 -5 -14 -14 -14h-58z" />
    <glyph glyph-name="lcaron" unicode="&#x13e;" horiz-adv-x="292" 
d="M205 521c-9 0 -13 6 -13 14l9 154c0 9 6 13 14 13h56c9 0 13 -6 12 -15l-27 -153c-2 -8 -7 -13 -15 -13h-36zM69 0c-9 0 -14 5 -14 14v673c0 8 5 13 14 13h58c9 0 14 -5 14 -13v-673c0 -9 -5 -14 -14 -14h-58z" />
    <glyph glyph-name="lcommaaccent" unicode="&#x13c;" horiz-adv-x="196" 
d="M69 0c-9 0 -14 5 -14 14v673c0 8 5 13 14 13h58c9 0 14 -5 14 -13v-673c0 -9 -5 -14 -14 -14h-58zM58 -70c0 9 6 13 14 13h55c9 0 14 -6 13 -15l-33 -170c-1 -8 -6 -12 -14 -12h-32c-8 0 -13 5 -13 14z" />
    <glyph glyph-name="lslash" unicode="&#x142;" horiz-adv-x="220" 
d="M198 476c9 4 16 0 16 -10v-46c0 -7 -4 -12 -11 -15l-49 -19v-372c0 -9 -5 -14 -14 -14h-58c-9 0 -14 5 -14 14v337l-46 -18c-9 -4 -15 0 -15 10v46c0 7 4 13 10 15l51 20v263c0 8 5 13 14 13h58c9 0 14 -5 14 -13v-229z" />
    <glyph glyph-name="m" unicode="m" horiz-adv-x="611" 
d="M414 511c91 0 150 -68 150 -163v-334c0 -9 -5 -14 -13 -14h-58c-9 0 -14 5 -14 14v337c0 47 -23 78 -65 78s-66 -31 -66 -78v-337c0 -9 -5 -14 -13 -14h-58c-9 0 -14 5 -14 14v337c0 47 -23 78 -65 78s-66 -31 -66 -78v-337c0 -9 -5 -14 -14 -14h-57c-9 0 -14 5 -14 14
v334c0 95 60 163 151 163c46 0 85 -25 108 -61c23 36 61 61 108 61z" />
    <glyph glyph-name="n" unicode="n" horiz-adv-x="406" 
d="M61 0c-9 0 -14 5 -14 14v334c0 95 63 163 156 163s156 -68 156 -163v-334c0 -9 -5 -14 -14 -14h-58c-9 0 -14 5 -14 14v337c0 47 -26 79 -70 79s-70 -32 -70 -79v-337c0 -9 -5 -14 -14 -14h-58z" />
    <glyph glyph-name="nacute" unicode="&#x144;" horiz-adv-x="406" 
d="M279 677c12 0 15 -8 8 -17l-70 -93c-4 -6 -10 -8 -17 -8h-41c-11 0 -15 7 -9 16l57 92c3 6 9 10 16 10h56zM61 0c-9 0 -14 5 -14 14v334c0 95 63 163 156 163s156 -68 156 -163v-334c0 -9 -5 -14 -14 -14h-58c-9 0 -14 5 -14 14v337c0 47 -26 79 -70 79s-70 -32 -70 -79
v-337c0 -9 -5 -14 -14 -14h-58z" />
    <glyph glyph-name="ncaron" unicode="&#x148;" horiz-adv-x="406" 
d="M101 677h40c7 0 13 -2 17 -8l45 -57l45 57c4 6 10 8 17 8h39c11 0 15 -8 9 -16l-65 -93c-4 -7 -9 -9 -16 -9h-59c-6 0 -12 2 -16 9l-65 93c-6 8 -2 16 9 16zM61 0c-9 0 -14 5 -14 14v334c0 95 63 163 156 163s156 -68 156 -163v-334c0 -9 -5 -14 -14 -14h-58
c-9 0 -14 5 -14 14v337c0 47 -26 79 -70 79s-70 -32 -70 -79v-337c0 -9 -5 -14 -14 -14h-58z" />
    <glyph glyph-name="ncommaaccent" unicode="&#x146;" horiz-adv-x="405" 
d="M61 0c-9 0 -14 5 -14 14v334c0 95 63 163 156 163s156 -68 156 -163v-334c0 -9 -5 -14 -14 -14h-58c-9 0 -14 5 -14 14v337c0 47 -26 79 -70 79s-70 -32 -70 -79v-337c0 -9 -5 -14 -14 -14h-58zM169 -70c0 9 6 13 14 13h55c9 0 14 -6 13 -15l-33 -170
c-1 -8 -6 -12 -14 -12h-32c-8 0 -13 5 -13 14z" />
    <glyph glyph-name="eng" unicode="&#x14b;" horiz-adv-x="406" 
d="M191 -210c-8 0 -14 6 -14 14v54c0 7 5 13 14 13c51 1 82 39 82 93v387c0 47 -26 79 -70 79s-70 -32 -70 -79v-337c0 -9 -5 -14 -14 -14h-58c-9 0 -14 5 -14 14v334c0 95 63 163 156 163s156 -68 156 -163v-377c0 -108 -64 -180 -168 -181z" />
    <glyph glyph-name="ntilde" unicode="&#xf1;" horiz-adv-x="406" 
d="M165 602c-9 0 -14 -5 -17 -16c-3 -8 -7 -12 -15 -12h-33c-9 0 -14 5 -14 13c3 35 27 74 73 74c39 0 58 -30 77 -30c10 0 15 6 18 16c2 7 5 13 14 13h34c8 0 13 -5 13 -14c-3 -38 -30 -73 -72 -73c-38 0 -57 29 -78 29zM61 0c-9 0 -14 5 -14 14v334c0 95 63 163 156 163
s156 -68 156 -163v-334c0 -9 -5 -14 -14 -14h-58c-9 0 -14 5 -14 14v337c0 47 -26 79 -70 79s-70 -32 -70 -79v-337c0 -9 -5 -14 -14 -14h-58z" />
    <glyph glyph-name="o" unicode="o" horiz-adv-x="399" 
d="M199 -11c-96 0 -160 68 -160 163v196c0 95 64 163 160 163c97 0 160 -68 160 -163v-196c0 -95 -63 -163 -160 -163zM199 70c46 0 74 32 74 79v202c0 47 -28 79 -74 79s-73 -32 -73 -79v-202c0 -47 27 -79 73 -79z" />
    <glyph glyph-name="oacute" unicode="&#xf3;" horiz-adv-x="399" 
d="M276 677c12 0 15 -8 8 -17l-70 -93c-4 -6 -10 -8 -17 -8h-41c-11 0 -15 7 -9 16l57 92c3 6 9 10 16 10h56zM199 -11c-96 0 -160 68 -160 163v196c0 95 64 163 160 163c97 0 160 -68 160 -163v-196c0 -95 -63 -163 -160 -163zM199 70c46 0 74 32 74 79v202
c0 47 -28 79 -74 79s-73 -32 -73 -79v-202c0 -47 27 -79 73 -79z" />
    <glyph glyph-name="ocircumflex" unicode="&#xf4;" horiz-adv-x="399" 
d="M98 559c-11 0 -15 8 -9 16l65 93c4 7 10 9 16 9h59c7 0 12 -2 16 -9l65 -93c6 -8 2 -16 -9 -16h-39c-7 0 -13 2 -17 8l-45 57l-45 -57c-4 -6 -10 -8 -17 -8h-40zM199 -11c-96 0 -160 68 -160 163v196c0 95 64 163 160 163c97 0 160 -68 160 -163v-196
c0 -95 -63 -163 -160 -163zM199 70c46 0 74 32 74 79v202c0 47 -28 79 -74 79s-73 -32 -73 -79v-202c0 -47 27 -79 73 -79z" />
    <glyph glyph-name="odieresis" unicode="&#xf6;" horiz-adv-x="399" 
d="M141 568c-27 0 -44 18 -44 44s17 44 44 44c26 0 44 -18 44 -44s-18 -44 -44 -44zM259 568c-26 0 -44 18 -44 44s18 44 44 44s44 -18 44 -44s-18 -44 -44 -44zM199 -11c-96 0 -160 68 -160 163v196c0 95 64 163 160 163c97 0 160 -68 160 -163v-196
c0 -95 -63 -163 -160 -163zM199 70c46 0 74 32 74 79v202c0 47 -28 79 -74 79s-73 -32 -73 -79v-202c0 -47 27 -79 73 -79z" />
    <glyph glyph-name="ograve" unicode="&#xf2;" horiz-adv-x="399" 
d="M110 677h56c7 0 13 -4 16 -10l57 -92c6 -9 2 -16 -9 -16h-41c-7 0 -13 2 -17 8l-70 93c-7 9 -4 17 8 17zM199 -11c-96 0 -160 68 -160 163v196c0 95 64 163 160 163c97 0 160 -68 160 -163v-196c0 -95 -63 -163 -160 -163zM199 70c46 0 74 32 74 79v202
c0 47 -28 79 -74 79s-73 -32 -73 -79v-202c0 -47 27 -79 73 -79z" />
    <glyph glyph-name="ohungarumlaut" unicode="&#x151;" horiz-adv-x="399" 
d="M231 677c11 0 14 -8 8 -17l-70 -93c-5 -6 -11 -8 -17 -8h-34c-11 0 -14 7 -9 16l57 92c4 6 9 10 16 10h49zM342 677c11 0 14 -8 8 -17l-70 -93c-4 -6 -10 -8 -17 -8h-34c-11 0 -14 7 -9 16l57 92c4 6 9 10 16 10h49zM199 -11c-96 0 -160 68 -160 163v196
c0 95 64 163 160 163c97 0 160 -68 160 -163v-196c0 -95 -63 -163 -160 -163zM199 70c46 0 74 32 74 79v202c0 47 -28 79 -74 79s-73 -32 -73 -79v-202c0 -47 27 -79 73 -79z" />
    <glyph glyph-name="omacron" unicode="&#x14d;" horiz-adv-x="399" 
d="M113 636c0 8 5 13 14 13h146c8 0 13 -5 13 -13v-35c0 -8 -5 -14 -13 -14h-146c-9 0 -14 6 -14 14v35zM199 -11c-96 0 -160 68 -160 163v196c0 95 64 163 160 163c97 0 160 -68 160 -163v-196c0 -95 -63 -163 -160 -163zM199 70c46 0 74 32 74 79v202c0 47 -28 79 -74 79
s-73 -32 -73 -79v-202c0 -47 27 -79 73 -79z" />
    <glyph glyph-name="oslash" unicode="&#xf8;" horiz-adv-x="399" 
d="M291 485c43 -28 68 -77 68 -137v-196c0 -95 -63 -163 -160 -163c-16 0 -30 2 -44 5l-8 -28c-2 -7 -8 -11 -15 -11h-33c-10 0 -15 6 -12 15l14 49c-39 29 -62 76 -62 133v196c0 95 64 163 160 163c13 0 26 -1 38 -4l7 27c1 7 7 11 15 11h33c9 0 14 -6 12 -15zM126 149
c0 -10 1 -19 3 -27l86 307c-5 1 -11 1 -16 1c-46 0 -73 -32 -73 -79v-202zM273 149v202c0 15 -3 28 -8 39l-88 -317c7 -2 14 -3 22 -3c46 0 74 32 74 79z" />
    <glyph glyph-name="otilde" unicode="&#xf5;" horiz-adv-x="399" 
d="M162 602c-9 0 -14 -5 -17 -16c-3 -8 -7 -12 -15 -12h-33c-9 0 -14 5 -14 13c3 35 27 74 73 74c39 0 58 -30 77 -30c10 0 15 6 18 16c2 7 5 13 14 13h34c8 0 13 -5 13 -14c-3 -38 -30 -73 -72 -73c-38 0 -57 29 -78 29zM199 -11c-96 0 -160 68 -160 163v196
c0 95 64 163 160 163c97 0 160 -68 160 -163v-196c0 -95 -63 -163 -160 -163zM199 70c46 0 74 32 74 79v202c0 47 -28 79 -74 79s-73 -32 -73 -79v-202c0 -47 27 -79 73 -79z" />
    <glyph glyph-name="oe" unicode="&#x153;" horiz-adv-x="607" 
d="M195 -11c-93 0 -156 68 -156 163v196c0 95 63 163 156 163c51 0 87 -22 112 -58c24 36 60 58 111 58c89 0 153 -64 153 -158c0 -89 -66 -151 -154 -151h-67v-53c0 -47 26 -78 69 -78c39 0 64 26 68 66c2 9 6 13 14 13h59c8 0 13 -5 13 -14c-6 -86 -66 -147 -155 -147
c-51 0 -86 27 -111 63c-26 -36 -61 -63 -112 -63zM195 71c43 0 70 31 70 78v202c0 47 -27 78 -70 78c-44 0 -70 -31 -70 -78v-202c0 -47 26 -78 70 -78zM350 280h67c39 0 68 27 68 72c0 49 -25 77 -67 77s-68 -31 -68 -77v-72z" />
    <glyph glyph-name="p" unicode="p" horiz-adv-x="405" 
d="M207 511c95 0 159 -68 159 -163v-196c0 -95 -64 -163 -145 -163c-36 0 -65 13 -88 34v-210c0 -8 -5 -13 -13 -13h-59c-9 0 -14 5 -14 13v535c0 95 64 163 160 163zM280 149v202c0 47 -27 78 -73 78s-74 -31 -74 -78v-202c0 -47 28 -78 74 -78s73 31 73 78z" />
    <glyph glyph-name="thorn" unicode="&#xfe;" horiz-adv-x="409" 
d="M69 -200c-9 0 -14 5 -14 13v874c0 8 5 13 14 13h58c9 0 14 -5 14 -13v-213c19 23 48 37 81 37c89 0 147 -68 147 -163v-196c0 -95 -63 -163 -148 -163c-31 0 -59 14 -80 37v-213c0 -8 -5 -13 -14 -13h-58zM212 71c45 0 72 31 72 78v202c0 47 -27 78 -72 78
c-44 0 -71 -31 -71 -78v-202c0 -47 27 -78 71 -78z" />
    <glyph glyph-name="q" unicode="q" horiz-adv-x="405" 
d="M198 511c96 0 160 -68 160 -163v-535c0 -8 -5 -13 -14 -13h-59c-8 0 -13 5 -13 13v210c-23 -21 -52 -34 -88 -34c-81 0 -145 68 -145 163v196c0 95 64 163 159 163zM198 71c46 0 74 31 74 78v202c0 47 -28 78 -74 78s-73 -31 -73 -78v-202c0 -47 27 -78 73 -78z" />
    <glyph glyph-name="r" unicode="r" horiz-adv-x="281" 
d="M61 0c-9 0 -14 5 -14 14v313c0 108 70 175 171 175h37c8 0 13 -5 13 -14v-54c0 -8 -5 -13 -13 -13h-36c-52 0 -86 -33 -86 -87v-320c0 -9 -5 -14 -14 -14h-58z" />
    <glyph glyph-name="racute" unicode="&#x155;" horiz-adv-x="281" 
d="M243 677c12 0 15 -8 8 -17l-70 -93c-4 -6 -10 -8 -17 -8h-41c-11 0 -15 7 -9 16l57 92c3 6 9 10 16 10h56zM61 0c-9 0 -14 5 -14 14v313c0 108 70 175 171 175h37c8 0 13 -5 13 -14v-54c0 -8 -5 -13 -13 -13h-36c-52 0 -86 -33 -86 -87v-320c0 -9 -5 -14 -14 -14h-58z
" />
    <glyph glyph-name="rcaron" unicode="&#x159;" horiz-adv-x="281" 
d="M65 677h40c7 0 13 -2 17 -8l45 -57l45 57c4 6 10 8 17 8h39c11 0 15 -8 9 -16l-65 -93c-4 -7 -9 -9 -16 -9h-59c-6 0 -12 2 -16 9l-65 93c-6 8 -2 16 9 16zM61 0c-9 0 -14 5 -14 14v313c0 108 70 175 171 175h37c8 0 13 -5 13 -14v-54c0 -8 -5 -13 -13 -13h-36
c-52 0 -86 -33 -86 -87v-320c0 -9 -5 -14 -14 -14h-58z" />
    <glyph glyph-name="rcommaaccent" unicode="&#x157;" horiz-adv-x="281" 
d="M61 0c-9 0 -14 5 -14 14v313c0 108 70 175 171 175h37c8 0 13 -5 13 -14v-54c0 -8 -5 -13 -13 -13h-36c-52 0 -86 -33 -86 -87v-320c0 -9 -5 -14 -14 -14h-58zM58 -70c0 9 6 13 14 13h55c9 0 14 -6 13 -15l-33 -170c-1 -8 -6 -12 -14 -12h-32c-8 0 -13 5 -13 14z" />
    <glyph glyph-name="s" unicode="s" horiz-adv-x="386" 
d="M199 -11c-104 0 -164 71 -167 159c0 8 3 15 14 15h58c7 0 13 -3 14 -13c4 -51 28 -79 80 -79c46 0 70 26 70 62c0 101 -230 74 -230 238c0 80 61 140 151 140c107 0 154 -69 157 -147c0 -7 -3 -14 -13 -14h-59c-8 0 -13 5 -14 13c-3 39 -26 67 -69 67
c-41 0 -68 -25 -68 -61c0 -96 231 -69 231 -237c0 -81 -62 -143 -155 -143z" />
    <glyph glyph-name="sacute" unicode="&#x15b;" horiz-adv-x="386" 
d="M275 677c12 0 15 -8 8 -17l-70 -93c-4 -6 -10 -8 -17 -8h-41c-11 0 -15 7 -9 16l57 92c3 6 9 10 16 10h56zM199 -11c-104 0 -164 71 -167 159c0 8 3 15 14 15h58c7 0 13 -3 14 -13c4 -51 28 -79 80 -79c46 0 70 26 70 62c0 101 -230 74 -230 238c0 80 61 140 151 140
c107 0 154 -69 157 -147c0 -7 -3 -14 -13 -14h-59c-8 0 -13 5 -14 13c-3 39 -26 67 -69 67c-41 0 -68 -25 -68 -61c0 -96 231 -69 231 -237c0 -81 -62 -143 -155 -143z" />
    <glyph glyph-name="scaron" unicode="&#x161;" horiz-adv-x="386" 
d="M97 677h40c7 0 13 -2 17 -8l45 -57l45 57c4 6 10 8 17 8h39c11 0 15 -8 9 -16l-65 -93c-4 -7 -9 -9 -16 -9h-59c-6 0 -12 2 -16 9l-65 93c-6 8 -2 16 9 16zM199 -11c-104 0 -164 71 -167 159c0 8 3 15 14 15h58c7 0 13 -3 14 -13c4 -51 28 -79 80 -79c46 0 70 26 70 62
c0 101 -230 74 -230 238c0 80 61 140 151 140c107 0 154 -69 157 -147c0 -7 -3 -14 -13 -14h-59c-8 0 -13 5 -14 13c-3 39 -26 67 -69 67c-41 0 -68 -25 -68 -61c0 -96 231 -69 231 -237c0 -81 -62 -143 -155 -143z" />
    <glyph glyph-name="scedilla" unicode="&#x15f;" horiz-adv-x="386" 
d="M354 132c0 -73 -50 -131 -129 -141l-6 -35h6c41 -3 74 -33 74 -75c0 -54 -40 -85 -94 -85c-48 0 -85 26 -91 73c-1 8 4 13 13 13h27c8 0 11 -4 14 -11c5 -15 19 -23 37 -23c22 0 39 12 39 33c0 18 -16 31 -38 31c-13 0 -24 -2 -35 -4c-3 -1 -7 0 -9 2l-3 3
c-3 3 -5 5 -4 10l14 68c-85 12 -134 78 -137 157c0 8 3 15 14 15h58c7 0 13 -3 14 -13c4 -51 28 -79 80 -79c46 0 70 26 70 62c0 101 -230 74 -230 238c0 80 61 140 151 140c107 0 154 -69 157 -147c0 -7 -3 -14 -13 -14h-59c-8 0 -13 5 -14 13c-3 39 -26 67 -69 67
c-41 0 -68 -25 -68 -61c0 -96 231 -69 231 -237z" />
    <glyph glyph-name="scommaaccent" unicode="&#x219;" horiz-adv-x="386" 
d="M199 -11c-104 0 -164 71 -167 159c0 8 3 15 14 15h58c7 0 13 -3 14 -13c4 -51 28 -79 80 -79c46 0 70 26 70 62c0 101 -230 74 -230 238c0 80 61 140 151 140c107 0 154 -69 157 -147c0 -7 -3 -14 -13 -14h-59c-8 0 -13 5 -14 13c-3 39 -26 67 -69 67
c-41 0 -68 -25 -68 -61c0 -96 231 -69 231 -237c0 -81 -62 -143 -155 -143zM169 -70c0 9 6 13 14 13h55c9 0 14 -6 13 -15l-33 -170c-1 -8 -6 -12 -14 -12h-32c-8 0 -13 5 -13 14z" />
    <glyph glyph-name="germandbls" unicode="&#xdf;" horiz-adv-x="406" 
d="M67 0c-8 0 -13 5 -13 14v539c0 93 64 158 150 158s152 -65 152 -158l-1 -79c0 -42 -25 -77 -58 -103c44 -26 78 -72 78 -127v-84c0 -92 -69 -161 -159 -162h-35c-7 0 -12 5 -12 12v57c0 8 5 13 12 13h35c42 0 73 33 73 77v90c0 44 -32 78 -72 78h-37c-7 0 -11 5 -11 12
v55c0 7 4 12 11 12h25c37 0 65 29 65 64v88c0 44 -29 73 -66 73c-36 0 -64 -29 -64 -73l-1 -542c0 -10 -5 -14 -14 -14h-58z" />
    <glyph glyph-name="t" unicode="t" horiz-adv-x="289" 
d="M255 78c9 0 14 -5 14 -13v-55c0 -8 -5 -13 -14 -13h-15c-99 0 -158 67 -158 177v248h-56c-8 0 -13 5 -13 13v52c0 8 5 13 13 13h56v129c0 9 5 14 14 14h58c8 0 13 -5 13 -14v-129h77c8 0 13 -5 13 -13v-52c0 -8 -5 -13 -13 -13h-77v-249c0 -63 26 -95 77 -95h11z" />
    <glyph glyph-name="tbar" unicode="&#x167;" horiz-adv-x="289" 
d="M255 76c9 0 14 -5 14 -13v-54c0 -9 -5 -14 -14 -14h-10c-100 0 -163 67 -163 180v88h-44c-8 0 -13 5 -13 14v32c0 9 5 14 13 14h44v99h-56c-8 0 -13 5 -13 13v52c0 8 5 13 13 13h56v129c0 9 5 14 14 14h58c8 0 13 -5 13 -14v-129h77c8 0 13 -5 13 -13v-52
c0 -8 -5 -13 -13 -13h-77v-99h65c8 0 13 -5 13 -14v-32c0 -9 -5 -14 -13 -14h-65v-92c0 -62 29 -95 79 -95h9z" />
    <glyph glyph-name="tcaron" unicode="&#x165;" horiz-adv-x="311" 
d="M273 704c9 0 14 -6 12 -15l-28 -143c-2 -8 -6 -12 -15 -12h-32c-8 0 -13 5 -13 14l9 143c1 9 7 13 15 13h52zM255 78c9 0 14 -5 14 -13v-55c0 -8 -5 -13 -14 -13h-15c-99 0 -158 67 -158 177v248h-56c-8 0 -13 5 -13 13v52c0 8 5 13 13 13h56v129c0 9 5 14 14 14h58
c8 0 13 -5 13 -14v-129h77c8 0 13 -5 13 -13v-52c0 -8 -5 -13 -13 -13h-77v-249c0 -63 26 -95 77 -95h11z" />
    <glyph glyph-name="uni0163" unicode="&#x163;" horiz-adv-x="289" 
d="M255 78c9 0 14 -5 14 -13v-55c0 -8 -5 -13 -14 -13h-15c-99 0 -158 67 -158 177v248h-56c-8 0 -13 5 -13 13v52c0 8 5 13 13 13h56v129c0 9 5 14 14 14h58c8 0 13 -5 13 -14v-129h77c8 0 13 -5 13 -13v-52c0 -8 -5 -13 -13 -13h-77v-249c0 -63 26 -95 77 -95h11zM193 -57
c9 0 14 -6 13 -15l-33 -170c-1 -8 -6 -12 -14 -12h-32c-8 0 -13 5 -13 14l10 170c0 9 6 13 14 13h55z" />
    <glyph glyph-name="uni021B" unicode="&#x21b;" horiz-adv-x="289" 
d="M255 78c9 0 14 -5 14 -13v-55c0 -8 -5 -13 -14 -13h-15c-99 0 -158 67 -158 177v248h-56c-8 0 -13 5 -13 13v52c0 8 5 13 13 13h56v129c0 9 5 14 14 14h58c8 0 13 -5 13 -14v-129h77c8 0 13 -5 13 -13v-52c0 -8 -5 -13 -13 -13h-77v-249c0 -63 26 -95 77 -95h11zM193 -57
c9 0 14 -6 13 -15l-33 -170c-1 -8 -6 -12 -14 -12h-32c-8 0 -13 5 -13 14l10 170c0 9 6 13 14 13h55z" />
    <glyph glyph-name="u" unicode="u" horiz-adv-x="406" 
d="M61 500h58c9 0 14 -5 14 -14v-337c0 -47 26 -79 70 -79s70 32 70 79v337c0 9 5 14 14 14h58c9 0 14 -5 14 -14v-334c0 -95 -63 -163 -156 -163s-156 68 -156 163v334c0 9 5 14 14 14z" />
    <glyph glyph-name="uacute" unicode="&#xfa;" horiz-adv-x="406" 
d="M277 677c12 0 15 -8 8 -17l-70 -93c-4 -6 -10 -8 -17 -8h-41c-11 0 -15 7 -9 16l57 92c3 6 9 10 16 10h56zM61 500h58c9 0 14 -5 14 -14v-337c0 -47 26 -79 70 -79s70 32 70 79v337c0 9 5 14 14 14h58c9 0 14 -5 14 -14v-334c0 -95 -63 -163 -156 -163s-156 68 -156 163
v334c0 9 5 14 14 14z" />
    <glyph glyph-name="ucircumflex" unicode="&#xfb;" horiz-adv-x="406" 
d="M99 559c-11 0 -15 8 -9 16l65 93c4 7 10 9 16 9h59c7 0 12 -2 16 -9l65 -93c6 -8 2 -16 -9 -16h-39c-7 0 -13 2 -17 8l-45 57l-45 -57c-4 -6 -10 -8 -17 -8h-40zM61 500h58c9 0 14 -5 14 -14v-337c0 -47 26 -79 70 -79s70 32 70 79v337c0 9 5 14 14 14h58
c9 0 14 -5 14 -14v-334c0 -95 -63 -163 -156 -163s-156 68 -156 163v334c0 9 5 14 14 14z" />
    <glyph glyph-name="udieresis" unicode="&#xfc;" horiz-adv-x="406" 
d="M142 568c-27 0 -44 18 -44 44s17 44 44 44c26 0 44 -18 44 -44s-18 -44 -44 -44zM260 568c-26 0 -44 18 -44 44s18 44 44 44s44 -18 44 -44s-18 -44 -44 -44zM61 500h58c9 0 14 -5 14 -14v-337c0 -47 26 -79 70 -79s70 32 70 79v337c0 9 5 14 14 14h58c9 0 14 -5 14 -14
v-334c0 -95 -63 -163 -156 -163s-156 68 -156 163v334c0 9 5 14 14 14z" />
    <glyph glyph-name="ugrave" unicode="&#xf9;" horiz-adv-x="406" 
d="M111 677h56c7 0 13 -4 16 -10l57 -92c6 -9 2 -16 -9 -16h-41c-7 0 -13 2 -17 8l-70 93c-7 9 -4 17 8 17zM61 500h58c9 0 14 -5 14 -14v-337c0 -47 26 -79 70 -79s70 32 70 79v337c0 9 5 14 14 14h58c9 0 14 -5 14 -14v-334c0 -95 -63 -163 -156 -163s-156 68 -156 163
v334c0 9 5 14 14 14z" />
    <glyph glyph-name="uhungarumlaut" unicode="&#x171;" horiz-adv-x="406" 
d="M232 677c11 0 14 -8 8 -17l-70 -93c-5 -6 -11 -8 -17 -8h-34c-11 0 -14 7 -9 16l57 92c4 6 9 10 16 10h49zM343 677c11 0 14 -8 8 -17l-70 -93c-4 -6 -10 -8 -17 -8h-34c-11 0 -14 7 -9 16l57 92c4 6 9 10 16 10h49zM61 500h58c9 0 14 -5 14 -14v-337
c0 -47 26 -79 70 -79s70 32 70 79v337c0 9 5 14 14 14h58c9 0 14 -5 14 -14v-334c0 -95 -63 -163 -156 -163s-156 68 -156 163v334c0 9 5 14 14 14z" />
    <glyph glyph-name="umacron" unicode="&#x16b;" horiz-adv-x="406" 
d="M114 636c0 8 5 13 14 13h146c8 0 13 -5 13 -13v-35c0 -8 -5 -14 -13 -14h-146c-9 0 -14 6 -14 14v35zM61 500h58c9 0 14 -5 14 -14v-337c0 -47 26 -79 70 -79s70 32 70 79v337c0 9 5 14 14 14h58c9 0 14 -5 14 -14v-334c0 -95 -63 -163 -156 -163s-156 68 -156 163v334
c0 9 5 14 14 14z" />
    <glyph glyph-name="uogonek" unicode="&#x173;" horiz-adv-x="407" 
d="M306 -204c-74 -8 -138 18 -138 84c0 35 22 77 48 111c-2 0 -16 -1 -24 -1c-83 5 -145 71 -145 157v340c0 8 5 13 14 13h58c9 0 14 -5 14 -13v-343c0 -42 30 -73 71 -73c40 0 71 31 71 73v343c0 8 5 13 13 13h58c9 0 14 -5 14 -13v-340c0 -43 -16 -85 -41 -109
c-40 -43 -69 -97 -69 -132c0 -29 22 -41 56 -39c9 1 14 -4 14 -13v-45c0 -8 -4 -13 -14 -13z" />
    <glyph glyph-name="uring" unicode="&#x16f;" horiz-adv-x="406" 
d="M126 620c0 43 30 71 75 71c44 0 74 -28 74 -71c0 -44 -30 -73 -74 -73c-45 0 -75 29 -75 73zM174 619c0 -16 10 -27 27 -27c16 0 27 11 27 27s-11 27 -27 27c-17 0 -27 -11 -27 -27zM61 500h58c9 0 14 -5 14 -14v-337c0 -47 26 -79 70 -79s70 32 70 79v337
c0 9 5 14 14 14h58c9 0 14 -5 14 -14v-334c0 -95 -63 -163 -156 -163s-156 68 -156 163v334c0 9 5 14 14 14z" />
    <glyph glyph-name="v" unicode="v" horiz-adv-x="376" 
d="M279 488c1 8 7 12 15 12h61c10 0 14 -6 12 -15l-113 -453c-5 -24 -21 -36 -45 -36h-41c-25 0 -40 12 -45 36l-113 453c-2 9 2 15 11 15h62c8 0 14 -4 15 -12l90 -411z" />
    <glyph glyph-name="w" unicode="w" horiz-adv-x="611" 
d="M414 -11c-47 0 -85 25 -108 61c-23 -36 -62 -61 -108 -61c-91 0 -151 68 -151 163v334c0 9 5 14 14 14h57c9 0 14 -5 14 -14v-337c0 -47 24 -78 66 -78s65 31 65 78v337c0 9 5 14 14 14h58c8 0 13 -5 13 -14v-337c0 -47 24 -78 66 -78s65 31 65 78v337c0 9 5 14 14 14h58
c8 0 13 -5 13 -14v-334c0 -95 -59 -163 -150 -163z" />
    <glyph glyph-name="wacute" unicode="&#x1e83;" horiz-adv-x="611" 
d="M383 677c12 0 15 -8 8 -17l-70 -93c-4 -6 -10 -8 -17 -8h-41c-11 0 -15 7 -9 16l57 92c3 6 9 10 16 10h56zM414 -11c-47 0 -85 25 -108 61c-23 -36 -62 -61 -108 -61c-91 0 -151 68 -151 163v334c0 9 5 14 14 14h57c9 0 14 -5 14 -14v-337c0 -47 24 -78 66 -78
s65 31 65 78v337c0 9 5 14 14 14h58c8 0 13 -5 13 -14v-337c0 -47 24 -78 66 -78s65 31 65 78v337c0 9 5 14 14 14h58c8 0 13 -5 13 -14v-334c0 -95 -59 -163 -150 -163z" />
    <glyph glyph-name="wcircumflex" unicode="&#x175;" horiz-adv-x="611" 
d="M205 559c-11 0 -15 8 -9 16l65 93c4 7 10 9 16 9h59c7 0 12 -2 16 -9l65 -93c6 -8 2 -16 -9 -16h-39c-7 0 -13 2 -17 8l-45 57l-45 -57c-4 -6 -10 -8 -17 -8h-40zM414 -11c-47 0 -85 25 -108 61c-23 -36 -62 -61 -108 -61c-91 0 -151 68 -151 163v334c0 9 5 14 14 14h57
c9 0 14 -5 14 -14v-337c0 -47 24 -78 66 -78s65 31 65 78v337c0 9 5 14 14 14h58c8 0 13 -5 13 -14v-337c0 -47 24 -78 66 -78s65 31 65 78v337c0 9 5 14 14 14h58c8 0 13 -5 13 -14v-334c0 -95 -59 -163 -150 -163z" />
    <glyph glyph-name="wdieresis" unicode="&#x1e85;" horiz-adv-x="611" 
d="M248 568c-27 0 -44 18 -44 44s17 44 44 44c26 0 44 -18 44 -44s-18 -44 -44 -44zM366 568c-26 0 -44 18 -44 44s18 44 44 44s44 -18 44 -44s-18 -44 -44 -44zM414 -11c-47 0 -85 25 -108 61c-23 -36 -62 -61 -108 -61c-91 0 -151 68 -151 163v334c0 9 5 14 14 14h57
c9 0 14 -5 14 -14v-337c0 -47 24 -78 66 -78s65 31 65 78v337c0 9 5 14 14 14h58c8 0 13 -5 13 -14v-337c0 -47 24 -78 66 -78s65 31 65 78v337c0 9 5 14 14 14h58c8 0 13 -5 13 -14v-334c0 -95 -59 -163 -150 -163z" />
    <glyph glyph-name="wgrave" unicode="&#x1e81;" horiz-adv-x="611" 
d="M217 677h56c7 0 13 -4 16 -10l57 -92c6 -9 2 -16 -9 -16h-41c-7 0 -13 2 -17 8l-70 93c-7 9 -4 17 8 17zM414 -11c-47 0 -85 25 -108 61c-23 -36 -62 -61 -108 -61c-91 0 -151 68 -151 163v334c0 9 5 14 14 14h57c9 0 14 -5 14 -14v-337c0 -47 24 -78 66 -78s65 31 65 78
v337c0 9 5 14 14 14h58c8 0 13 -5 13 -14v-337c0 -47 24 -78 66 -78s65 31 65 78v337c0 9 5 14 14 14h58c8 0 13 -5 13 -14v-334c0 -95 -59 -163 -150 -163z" />
    <glyph glyph-name="x" unicode="x" horiz-adv-x="391" 
d="M53 0c-9 0 -14 5 -14 14v113c0 52 25 95 67 123c-42 27 -67 69 -67 121v116c0 8 5 13 14 13h59c8 0 13 -5 13 -13v-119c0 -46 27 -78 70 -78c44 0 71 32 71 78v119c0 8 5 13 13 13h59c8 0 13 -5 13 -13v-116c0 -52 -24 -94 -66 -121c42 -28 66 -71 66 -123v-113
c0 -9 -5 -14 -13 -14h-59c-8 0 -13 5 -13 14v116c0 47 -27 79 -71 79c-43 0 -70 -32 -70 -79v-116c0 -9 -5 -14 -13 -14h-59z" />
    <glyph glyph-name="y" unicode="y" horiz-adv-x="418" 
d="M349 500c8 0 14 -5 14 -13v-535c0 -99 -62 -163 -158 -163c-91 0 -152 63 -157 161c-1 9 4 14 13 14h59c8 0 12 -4 13 -14c3 -50 29 -79 72 -79c46 0 72 29 72 78v101c-19 -22 -47 -36 -79 -36c-88 0 -151 67 -151 162v311c0 8 5 13 14 13h58c9 0 14 -5 14 -13v-314
c0 -46 27 -78 72 -78s72 32 72 78v314c0 8 5 13 14 13h58z" />
    <glyph glyph-name="yacute" unicode="&#xfd;" horiz-adv-x="418" 
d="M164 559c-11 0 -15 7 -9 16l57 92c3 6 9 10 16 10h56c12 0 15 -8 8 -17l-70 -93c-4 -6 -10 -8 -17 -8h-41zM349 500c8 0 14 -5 14 -13v-535c0 -99 -62 -163 -158 -163c-91 0 -152 63 -157 161c-1 9 4 14 13 14h59c8 0 12 -4 13 -14c3 -50 29 -79 72 -79c46 0 72 29 72 78
v101c-19 -22 -47 -36 -79 -36c-88 0 -151 67 -151 162v311c0 8 5 13 14 13h58c9 0 14 -5 14 -13v-314c0 -46 27 -78 72 -78s72 32 72 78v314c0 8 5 13 14 13h58z" />
    <glyph glyph-name="ycircumflex" unicode="&#x177;" horiz-adv-x="418" 
d="M106 559c-11 0 -15 8 -9 16l65 93c4 7 10 9 16 9h59c7 0 12 -2 16 -9l65 -93c6 -8 2 -16 -9 -16h-39c-7 0 -13 2 -17 8l-45 57l-45 -57c-4 -6 -10 -8 -17 -8h-40zM349 500c8 0 14 -5 14 -13v-535c0 -99 -62 -163 -158 -163c-91 0 -152 63 -157 161c-1 9 4 14 13 14h59
c8 0 12 -4 13 -14c3 -50 29 -79 72 -79c46 0 72 29 72 78v101c-19 -22 -47 -36 -79 -36c-88 0 -151 67 -151 162v311c0 8 5 13 14 13h58c9 0 14 -5 14 -13v-314c0 -46 27 -78 72 -78s72 32 72 78v314c0 8 5 13 14 13h58z" />
    <glyph glyph-name="ydieresis" unicode="&#xff;" horiz-adv-x="418" 
d="M149 568c-27 0 -44 18 -44 44s17 44 44 44c26 0 44 -18 44 -44s-18 -44 -44 -44zM267 568c-26 0 -44 18 -44 44s18 44 44 44s44 -18 44 -44s-18 -44 -44 -44zM349 500c8 0 14 -5 14 -13v-535c0 -99 -62 -163 -158 -163c-91 0 -152 63 -157 161c-1 9 4 14 13 14h59
c8 0 12 -4 13 -14c3 -50 29 -79 72 -79c46 0 72 29 72 78v101c-19 -22 -47 -36 -79 -36c-88 0 -151 67 -151 162v311c0 8 5 13 14 13h58c9 0 14 -5 14 -13v-314c0 -46 27 -78 72 -78s72 32 72 78v314c0 8 5 13 14 13h58z" />
    <glyph glyph-name="ygrave" unicode="&#x1ef3;" horiz-adv-x="418" 
d="M180 567l-70 93c-7 9 -4 17 8 17h56c7 0 13 -4 16 -10l57 -92c6 -9 2 -16 -9 -16h-41c-7 0 -13 2 -17 8zM349 500c8 0 14 -5 14 -13v-535c0 -99 -62 -163 -158 -163c-91 0 -152 63 -157 161c-1 9 4 14 13 14h59c8 0 12 -4 13 -14c3 -50 29 -79 72 -79c46 0 72 29 72 78
v101c-19 -22 -47 -36 -79 -36c-88 0 -151 67 -151 162v311c0 8 5 13 14 13h58c9 0 14 -5 14 -13v-314c0 -46 27 -78 72 -78s72 32 72 78v314c0 8 5 13 14 13h58z" />
    <glyph glyph-name="z" unicode="z" horiz-adv-x="352" 
d="M128 81h180c9 0 14 -5 14 -14v-53c0 -9 -5 -14 -14 -14h-244c-21 0 -34 13 -34 35v19c0 14 2 27 10 41l187 324h-174c-8 0 -14 5 -14 14v54c0 8 6 13 14 13h235c21 0 34 -12 34 -33v-25c0 -13 -1 -26 -10 -41z" />
    <glyph glyph-name="zacute" unicode="&#x17a;" horiz-adv-x="352" 
d="M250 677c12 0 15 -8 8 -17l-70 -93c-4 -6 -10 -8 -17 -8h-41c-11 0 -15 7 -9 16l57 92c3 6 9 10 16 10h56zM128 81h180c9 0 14 -5 14 -14v-53c0 -9 -5 -14 -14 -14h-244c-21 0 -34 13 -34 35v19c0 14 2 27 10 41l187 324h-174c-8 0 -14 5 -14 14v54c0 8 6 13 14 13h235
c21 0 34 -12 34 -33v-25c0 -13 -1 -26 -10 -41z" />
    <glyph glyph-name="zcaron" unicode="&#x17e;" horiz-adv-x="352" 
d="M72 677h40c7 0 13 -2 17 -8l45 -57l45 57c4 6 10 8 17 8h39c11 0 15 -8 9 -16l-65 -93c-4 -7 -9 -9 -16 -9h-59c-6 0 -12 2 -16 9l-65 93c-6 8 -2 16 9 16zM128 81h180c9 0 14 -5 14 -14v-53c0 -9 -5 -14 -14 -14h-244c-21 0 -34 13 -34 35v19c0 14 2 27 10 41l187 324
h-174c-8 0 -14 5 -14 14v54c0 8 6 13 14 13h235c21 0 34 -12 34 -33v-25c0 -13 -1 -26 -10 -41z" />
    <glyph glyph-name="zdotaccent" unicode="&#x17c;" horiz-adv-x="352" 
d="M174 563c-30 0 -51 22 -51 51c0 30 21 52 51 52c29 0 52 -22 52 -52c0 -27 -23 -51 -52 -51zM128 81h180c9 0 14 -5 14 -14v-53c0 -9 -5 -14 -14 -14h-244c-21 0 -34 13 -34 35v19c0 14 2 27 10 41l187 324h-174c-8 0 -14 5 -14 14v54c0 8 6 13 14 13h235
c21 0 34 -12 34 -33v-25c0 -13 -1 -26 -10 -41z" />
    <glyph glyph-name="uni0163.ss01" horiz-adv-x="294" 
d="M198 -44c41 -3 74 -33 74 -75c0 -54 -40 -85 -93 -85c-48 0 -86 26 -91 73c-2 8 4 13 12 13h28c8 0 11 -4 14 -11c5 -15 19 -23 37 -23c22 0 38 12 38 33c0 18 -16 31 -37 31c-13 0 -25 -2 -35 -4c-4 -1 -7 0 -10 2l-3 3c-2 3 -4 5 -3 10l19 98c-43 28 -66 80 -66 151
v250h-56c-8 0 -13 5 -13 13v52c0 8 5 13 13 13h56v129c0 9 5 14 14 14h58c8 0 13 -5 13 -14v-129h77c8 0 13 -5 13 -13v-52c0 -8 -5 -13 -13 -13h-77v-251c0 -63 26 -95 77 -95h11c9 0 14 -5 14 -13v-54c0 -9 -5 -14 -14 -14h-15c-14 0 -27 1 -40 4l-7 -43h5z" />
    <glyph glyph-name="uni0410" unicode="&#x410;" horiz-adv-x="451" 
d="M67 0c-8 0 -13 5 -13 14v512c0 110 68 184 171 184s172 -74 172 -184v-512c0 -9 -5 -14 -14 -14h-63c-8 0 -14 5 -14 14v222h-162v-222c0 -9 -5 -14 -13 -14h-64zM144 319h162v211c0 60 -29 95 -81 95c-51 0 -81 -35 -81 -95v-211z" />
    <glyph glyph-name="uni0411" unicode="&#x411;" horiz-adv-x="417" 
d="M95 -3c-25 0 -41 16 -41 41v484c0 104 72 181 177 181h117c8 0 14 -6 14 -13v-57c0 -8 -6 -14 -14 -14h-117c-52 0 -87 -40 -87 -97v-111h81c108 0 169 -81 169 -184v-47c0 -110 -61 -183 -169 -183h-130zM144 81h77c51 0 82 41 82 99v47c0 58 -31 100 -82 100h-77v-246z
" />
    <glyph glyph-name="uni0412" unicode="&#x412;" horiz-adv-x="428" 
d="M316 360c50 -25 81 -76 81 -139v-46c0 -108 -69 -178 -170 -178h-133c-23 0 -40 17 -40 41v496c0 106 65 176 162 176c100 0 166 -70 166 -176v-44c0 -59 -25 -107 -66 -130zM144 539v-144h72c47 0 76 33 76 88v56c0 54 -28 87 -76 87c-45 0 -72 -33 -72 -87zM305 170v52
c0 57 -29 91 -80 91h-81v-233h81c51 0 80 34 80 90z" />
    <glyph glyph-name="uni0413" unicode="&#x413;" horiz-adv-x="359" 
d="M67 0c-8 0 -13 5 -13 14v504c0 114 67 185 177 185h102c8 0 13 -6 13 -14v-56c0 -8 -5 -14 -13 -14h-100c-58 0 -89 -35 -89 -97v-508c0 -9 -5 -14 -13 -14h-64z" />
    <glyph glyph-name="uni0403" unicode="&#x403;" horiz-adv-x="359" 
d="M190 769c-11 0 -15 8 -9 16l65 91c4 6 11 8 17 8h57c11 0 15 -8 7 -17l-79 -90c-4 -6 -10 -8 -17 -8h-41zM67 0c-8 0 -13 5 -13 14v504c0 114 67 185 177 185h102c8 0 13 -6 13 -14v-56c0 -8 -5 -14 -13 -14h-100c-58 0 -89 -35 -89 -97v-508c0 -9 -5 -14 -13 -14h-64z
" />
    <glyph glyph-name="uni0490" unicode="&#x490;" horiz-adv-x="357" 
d="M331 790c9 0 14 -5 14 -13v-143c0 -8 -6 -14 -14 -14h-100c-55 0 -87 -36 -87 -96v-510c0 -9 -5 -14 -13 -14h-64c-8 0 -13 5 -13 14v510c0 108 69 180 177 180h36v73c0 8 5 13 14 13h50z" />
    <glyph glyph-name="uni0414" unicode="&#x414;" horiz-adv-x="502" 
d="M25 -113c-9 0 -14 6 -14 14v146c0 22 13 35 32 44c44 17 62 61 62 169v266c0 102 68 178 169 178h102c35 0 54 -19 54 -54v-562l5 -4c34 0 54 -23 54 -59v-124c0 -8 -5 -14 -13 -14h-61c-8 0 -14 6 -14 14v99h-302v-99c0 -8 -5 -14 -13 -14h-61zM146 84h194v536h-64
c-49 0 -81 -40 -81 -93v-279c0 -91 -13 -137 -49 -164z" />
    <glyph glyph-name="uni0415" unicode="&#x415;" horiz-adv-x="361" 
d="M214 -3c-101 0 -171 76 -171 179v348c0 103 70 179 171 179h105c8 0 13 -5 13 -13v-57c0 -9 -5 -14 -13 -14h-98c-52 0 -87 -40 -87 -97v-127h160c9 0 14 -5 14 -14v-54c0 -9 -5 -14 -14 -14h-160v-135c0 -57 35 -97 87 -97h98c8 0 13 -5 13 -14v-57c0 -8 -5 -13 -13 -13
h-105z" />
    <glyph glyph-name="uni0401" unicode="&#x401;" horiz-adv-x="361" 
d="M147 775c-27 0 -44 18 -44 44s17 44 44 44c26 0 44 -18 44 -44s-18 -44 -44 -44zM265 775c-26 0 -44 18 -44 44s18 44 44 44s44 -18 44 -44s-18 -44 -44 -44zM214 -3c-101 0 -171 76 -171 179v348c0 103 70 179 171 179h105c8 0 13 -5 13 -13v-57c0 -9 -5 -14 -13 -14
h-98c-52 0 -87 -40 -87 -97v-127h160c9 0 14 -5 14 -14v-54c0 -9 -5 -14 -14 -14h-160v-135c0 -57 35 -97 87 -97h98c8 0 13 -5 13 -14v-57c0 -8 -5 -13 -13 -13h-105z" />
    <glyph glyph-name="uni0416" unicode="&#x416;" horiz-adv-x="666" 
d="M64 0c-9 0 -14 5 -14 14v203c0 69 32 127 85 154l-91 314c-2 9 2 15 12 15h62c8 0 14 -4 16 -11l82 -295h73v293c0 8 5 13 13 13h62c9 0 14 -5 14 -13v-293h73l82 295c2 7 8 11 15 11h63c9 0 13 -6 11 -15l-90 -314c52 -27 84 -85 84 -154v-203c0 -9 -5 -14 -13 -14h-64
c-8 0 -13 5 -13 14v205c0 53 -32 91 -82 91h-66v-296c0 -9 -5 -14 -14 -14h-62c-8 0 -13 5 -13 14v296h-67c-50 0 -81 -38 -81 -91v-205c0 -9 -6 -14 -14 -14h-63z" />
    <glyph glyph-name="uni0417" unicode="&#x417;" horiz-adv-x="409" 
d="M199 -8c-99 0 -166 69 -172 172c0 8 5 13 14 13h64c8 0 13 -4 13 -13c4 -54 36 -88 82 -88c53 0 87 39 87 93v53c0 52 -33 92 -86 92h-68c-8 0 -13 5 -13 14v54c0 9 5 14 13 14h65c46 0 73 37 73 90v53c0 54 -27 88 -72 88s-69 -31 -72 -91c-1 -9 -6 -14 -14 -14h-64
c-8 0 -13 5 -13 14c5 107 67 175 163 175c97 0 162 -73 162 -178v-42c0 -58 -24 -106 -64 -132c51 -27 80 -80 80 -138v-49c0 -105 -70 -180 -178 -180z" />
    <glyph glyph-name="uni0418" unicode="&#x418;" horiz-adv-x="452" 
d="M301 687c0 8 5 13 14 13h63c8 0 13 -5 13 -13v-650c0 -26 -14 -40 -40 -40h-125c-111 0 -172 80 -172 186v504c0 8 5 13 13 13h64c8 0 13 -5 13 -13v-505c0 -60 32 -101 83 -101h74v606z" />
    <glyph glyph-name="uni0419" unicode="&#x419;" horiz-adv-x="452" 
d="M222 768c-65 0 -109 39 -115 99c-1 9 5 14 13 14h39c8 0 12 -4 15 -12c4 -23 21 -37 48 -37s45 14 49 37c2 8 6 12 14 12h39c9 0 14 -4 14 -14c-7 -60 -50 -99 -116 -99zM301 687c0 8 5 13 14 13h63c8 0 13 -5 13 -13v-650c0 -26 -14 -40 -40 -40h-125
c-111 0 -172 80 -172 186v504c0 8 5 13 13 13h64c8 0 13 -5 13 -13v-505c0 -60 32 -101 83 -101h74v606z" />
    <glyph glyph-name="uni040D" unicode="&#x40d;" horiz-adv-x="452" 
d="M286 769h-41c-7 0 -13 2 -17 8l-79 90c-8 9 -4 17 7 17h57c6 0 13 -2 17 -8l65 -91c6 -8 2 -16 -9 -16zM301 687c0 8 5 13 14 13h63c8 0 13 -5 13 -13v-650c0 -26 -14 -40 -40 -40h-125c-111 0 -172 80 -172 186v504c0 8 5 13 13 13h64c8 0 13 -5 13 -13v-505
c0 -60 32 -101 83 -101h74v606z" />
    <glyph glyph-name="uni041A" unicode="&#x41a;" horiz-adv-x="446" 
d="M74 0c-9 0 -14 5 -14 14v673c0 8 5 13 14 13h63c8 0 13 -5 13 -13v-293h80l82 295c2 7 8 11 15 11h63c10 0 14 -6 12 -15l-92 -314c57 -26 88 -85 88 -161v-196c0 -9 -5 -14 -14 -14h-63c-9 0 -14 5 -14 14v198c0 60 -31 98 -84 98h-73v-296c0 -9 -5 -14 -13 -14h-63z
" />
    <glyph glyph-name="uni040C" unicode="&#x40c;" horiz-adv-x="446" 
d="M185 769c-11 0 -15 8 -9 16l65 91c4 6 11 8 17 8h57c11 0 15 -8 7 -17l-79 -90c-4 -6 -10 -8 -17 -8h-41zM74 0c-9 0 -14 5 -14 14v673c0 8 5 13 14 13h63c8 0 13 -5 13 -13v-293h80l82 295c2 7 8 11 15 11h63c10 0 14 -6 12 -15l-92 -314c57 -26 88 -85 88 -161v-196
c0 -9 -5 -14 -14 -14h-63c-9 0 -14 5 -14 14v198c0 60 -31 98 -84 98h-73v-296c0 -9 -5 -14 -13 -14h-63z" />
    <glyph glyph-name="uni041B" unicode="&#x41b;" horiz-adv-x="485" 
d="M26 -3c-8 -1 -13 4 -13 13v57c0 8 4 13 13 14c47 5 74 46 74 114v332c0 106 68 176 170 176h102c34 0 53 -19 53 -53v-637c0 -8 -5 -13 -13 -13h-63c-9 0 -14 5 -14 13v606h-64c-50 0 -80 -34 -80 -92v-339c0 -111 -64 -186 -165 -191z" />
    <glyph glyph-name="uni041C" unicode="&#x41c;" horiz-adv-x="633" 
d="M74 0c-9 0 -14 5 -14 14v647c0 27 14 42 41 42h58c23 0 35 -12 42 -35l78 -247c12 -39 26 -84 37 -124h2c10 40 24 85 36 124l78 247c7 23 20 35 42 35h59c26 0 40 -15 40 -42v-647c0 -9 -5 -14 -13 -14h-63c-8 0 -13 5 -13 14l1 364c0 73 1 143 3 215h-2
c-12 -45 -25 -95 -39 -140l-73 -229c-6 -22 -21 -34 -45 -34h-25c-24 0 -39 12 -45 34l-73 229c-13 45 -27 95 -38 140h-3c2 -72 3 -142 4 -215v-364c0 -9 -4 -14 -13 -14h-62z" />
    <glyph glyph-name="uni041D" unicode="&#x41d;" horiz-adv-x="454" 
d="M304 687c0 8 5 13 14 13h63c8 0 13 -5 13 -13v-673c0 -9 -5 -14 -13 -14h-63c-9 0 -14 5 -14 14v299h-154v-299c0 -9 -5 -14 -13 -14h-63c-9 0 -14 5 -14 14v673c0 8 5 13 14 13h63c8 0 13 -5 13 -13v-291h154v291z" />
    <glyph glyph-name="uni041E" unicode="&#x41e;" horiz-adv-x="439" 
d="M220 -10c-104 0 -177 76 -177 188v344c0 112 73 188 177 188s176 -76 176 -181v-358c0 -105 -72 -181 -176 -181zM220 74c51 0 85 38 85 93v366c0 55 -34 93 -85 93s-86 -38 -86 -100v-352c0 -62 35 -100 86 -100z" />
    <glyph glyph-name="uni041F" unicode="&#x41f;" horiz-adv-x="457" 
d="M74 0c-9 0 -14 5 -14 14v633c0 34 19 53 54 53h230c34 0 53 -19 53 -53v-633c0 -9 -5 -14 -13 -14h-65c-8 0 -13 5 -13 14v602h-154v-602c0 -9 -5 -14 -14 -14h-64z" />
    <glyph glyph-name="uni0420" unicode="&#x420;" horiz-adv-x="420" 
d="M67 0c-8 0 -13 5 -13 14v512c0 109 65 185 168 185c104 0 172 -76 172 -185v-102c0 -102 -67 -172 -171 -172h-79v-238c0 -9 -5 -14 -13 -14h-64zM144 336h76c52 0 83 32 83 86v108c0 58 -31 96 -80 96s-79 -38 -79 -96v-194z" />
    <glyph glyph-name="uni0421" unicode="&#x421;" horiz-adv-x="410" 
d="M214 -11c-102 0 -171 72 -171 180v362c0 108 69 180 171 180c98 0 165 -75 168 -192c0 -8 -4 -13 -13 -13h-64c-8 0 -13 4 -13 13c-2 70 -33 107 -79 107c-50 0 -79 -34 -79 -90v-372c0 -56 29 -90 79 -90c51 0 82 41 84 114c0 9 5 13 13 13h64c8 0 13 -5 13 -14
c-4 -121 -71 -198 -173 -198z" />
    <glyph glyph-name="uni0422" unicode="&#x422;" horiz-adv-x="359" 
d="M333 700c9 0 14 -5 14 -13v-57c0 -9 -5 -14 -14 -14h-108v-602c0 -9 -5 -14 -14 -14h-63c-8 0 -13 5 -13 14v602h-109c-8 0 -13 5 -13 14v57c0 8 5 13 13 13h307z" />
    <glyph glyph-name="uni0423" unicode="&#x423;" horiz-adv-x="420" 
d="M52 -4c-8 0 -13 5 -13 14v56c0 9 5 14 13 14h140c51 0 84 40 84 98v78h-75c-106 0 -173 77 -173 183v248c0 8 5 13 14 13h63c9 0 14 -5 14 -13v-250c0 -57 33 -98 83 -98h74v348c0 8 5 13 13 13h64c8 0 13 -5 13 -13v-507c0 -106 -67 -184 -172 -184h-142z" />
    <glyph glyph-name="uni040E" unicode="&#x40e;" horiz-adv-x="420" 
d="M200 768c-65 0 -109 39 -115 99c-1 9 5 14 13 14h39c8 0 12 -4 15 -12c4 -23 21 -37 48 -37s45 14 49 37c2 8 6 12 14 12h39c9 0 14 -4 14 -14c-7 -60 -50 -99 -116 -99zM52 -4c-8 0 -13 5 -13 14v56c0 9 5 14 13 14h140c51 0 84 40 84 98v78h-75
c-106 0 -173 77 -173 183v248c0 8 5 13 14 13h63c9 0 14 -5 14 -13v-250c0 -57 33 -98 83 -98h74v348c0 8 5 13 13 13h64c8 0 13 -5 13 -13v-507c0 -106 -67 -184 -172 -184h-142z" />
    <glyph glyph-name="uni0424" unicode="&#x424;" horiz-adv-x="621" 
d="M279 -52c-8 0 -13 6 -13 14v86h-59c-107 0 -176 76 -176 192v232c0 115 69 191 176 191h59v72c0 8 5 14 13 14h63c8 0 13 -6 13 -14v-72h58c108 0 176 -76 176 -191v-232c0 -116 -68 -192 -176 -192h-58v-86c0 -8 -5 -14 -13 -14h-63zM211 132h55v447h-55
c-57 0 -89 -39 -89 -104v-239c0 -65 32 -104 89 -104zM355 132h55c57 0 89 39 89 104v239c0 65 -32 104 -89 104h-55v-447z" />
    <glyph glyph-name="uni0425" unicode="&#x425;" horiz-adv-x="426" 
d="M383 492c0 -61 -25 -107 -70 -137c45 -31 70 -77 70 -138v-203c0 -9 -5 -14 -14 -14h-63c-9 0 -14 5 -14 14v207c0 53 -32 91 -79 91s-79 -38 -79 -91v-207c0 -9 -5 -14 -14 -14h-63c-9 0 -14 5 -14 14v203c0 61 25 107 70 138c-45 30 -70 76 -70 137v195c0 8 5 13 14 13
h63c9 0 14 -5 14 -13v-199c0 -53 32 -92 79 -92s79 39 79 92v199c0 8 5 13 14 13h63c9 0 14 -5 14 -13v-195z" />
    <glyph glyph-name="uni0427" unicode="&#x427;" horiz-adv-x="416" 
d="M280 0c-9 0 -14 5 -14 14v225h-75c-108 0 -173 72 -173 180v268c0 8 5 13 14 13h64c8 0 13 -5 13 -13v-270c0 -59 30 -94 83 -94h74v364c0 8 5 13 14 13h63c8 0 13 -5 13 -13v-673c0 -9 -5 -14 -13 -14h-63z" />
    <glyph glyph-name="uni0426" unicode="&#x426;" horiz-adv-x="463" 
d="M377 -111c-8 0 -13 5 -13 13v97h-140c-109 0 -170 79 -170 188v500c0 8 5 13 13 13h64c8 0 13 -5 13 -13v-502c0 -61 32 -103 82 -103h75v605c0 8 5 13 14 13h63c9 0 14 -5 14 -13v-604l5 -1c34 0 53 -19 53 -53v-127c0 -8 -5 -13 -13 -13h-60z" />
    <glyph glyph-name="uni0428" unicode="&#x428;" horiz-adv-x="675" 
d="M223 -1c-107 0 -169 79 -169 180v508c0 8 5 13 13 13h63c9 0 14 -5 14 -13v-509c0 -54 32 -96 81 -96h66v605c0 8 5 13 14 13h62c8 0 13 -5 13 -13v-605h145v605c0 8 5 13 14 13h62c9 0 14 -5 14 -13v-635c0 -34 -19 -53 -54 -53h-338z" />
    <glyph glyph-name="uni0429" unicode="&#x429;" horiz-adv-x="689" 
d="M603 -111c-8 0 -13 5 -13 13v98h-367c-107 0 -169 80 -169 181v506c0 8 5 13 13 13h63c9 0 14 -5 14 -13v-508c0 -54 32 -95 81 -95h67v603c0 8 5 13 13 13h63c8 0 13 -5 13 -13v-603h147v603c0 8 5 13 13 13h63c9 0 14 -5 14 -13v-603h5c34 0 53 -19 53 -54v-128
c0 -8 -5 -13 -13 -13h-60z" />
    <glyph glyph-name="uni040F" unicode="&#x40f;" horiz-adv-x="454" 
d="M197 -111c-9 0 -14 5 -14 13v98h-69c-35 0 -54 19 -54 54v633c0 8 5 13 14 13h63c8 0 13 -5 13 -13v-603h154v603c0 8 5 13 14 13h63c8 0 13 -5 13 -13v-633c0 -35 -19 -54 -53 -54h-69v-98c0 -8 -5 -13 -14 -13h-61z" />
    <glyph glyph-name="uni042C" unicode="&#x42c;" horiz-adv-x="424" 
d="M114 -2c-35 0 -54 19 -54 54v635c0 8 5 13 14 13h63c8 0 13 -5 13 -13v-266h82c98 0 166 -77 166 -180v-63c0 -103 -68 -180 -166 -180h-118zM150 82h77c49 0 80 39 80 92v70c0 53 -31 93 -80 93h-77v-255z" />
    <glyph glyph-name="uni042A" unicode="&#x42a;" horiz-adv-x="475" 
d="M283 421c100 0 166 -75 166 -180v-63c0 -105 -66 -180 -166 -180h-118c-35 0 -54 19 -54 54v564h-85c-8 0 -13 5 -13 14v57c0 8 5 13 13 13h123c35 0 52 -19 52 -53v-226h82zM358 174v70c0 51 -31 93 -80 93h-77v-255h77c49 0 80 41 80 92z" />
    <glyph glyph-name="uni042B" unicode="&#x42b;" horiz-adv-x="618" 
d="M482 0c-9 0 -14 5 -14 14v674c0 8 5 13 14 13h63c8 0 13 -5 13 -13v-674c0 -9 -5 -14 -13 -14h-63zM114 -2c-35 0 -54 19 -54 54v635c0 8 5 13 14 13h63c8 0 13 -5 13 -13v-266h82c100 0 166 -75 166 -180v-63c0 -105 -66 -180 -166 -180h-118zM150 82h77
c49 0 80 40 80 90v74c0 50 -31 91 -80 91h-77v-255z" />
    <glyph glyph-name="uni0409" unicode="&#x409;" horiz-adv-x="686" 
d="M26 -1c-8 -1 -13 4 -13 13v57c0 8 4 13 13 14c44 5 74 42 74 105v334c0 105 69 180 170 180h98c35 0 54 -19 54 -54v-227h72c105 0 167 -81 167 -180v-63c0 -107 -62 -180 -167 -180h-109c-34 0 -53 19 -53 54v566h-61c-48 0 -80 -39 -80 -95v-342
c0 -106 -70 -176 -165 -182zM422 82h68c49 0 80 41 80 96v62c0 55 -31 97 -80 97h-68v-255z" />
    <glyph glyph-name="uni040A" unicode="&#x40a;" horiz-adv-x="653" 
d="M464 403c102 0 163 -77 163 -176v-52c0 -108 -61 -178 -163 -178h-112c-35 0 -54 19 -54 53v270h-147v-306c0 -9 -5 -14 -13 -14h-64c-9 0 -14 5 -14 14v673c0 8 5 13 14 13h64c8 0 13 -5 13 -13v-284h147v284c0 8 5 13 14 13h63c8 0 13 -5 13 -13v-284h76zM536 172v54
c0 57 -30 94 -77 94h-71v-239h71c47 0 77 36 77 91z" />
    <glyph glyph-name="uni0405" unicode="&#x405;" horiz-adv-x="408" 
d="M205 -11c-104 0 -171 77 -175 198c0 9 5 14 14 14h63c8 0 13 -5 14 -13c2 -76 31 -114 85 -114c53 0 81 29 81 83c0 155 -251 202 -251 394c0 98 66 160 165 160c98 0 163 -75 167 -192c0 -8 -4 -13 -13 -13h-63c-8 0 -13 5 -13 13c-3 74 -30 108 -77 108
c-49 0 -76 -26 -76 -76c0 -143 252 -190 252 -394c0 -103 -69 -168 -173 -168z" />
    <glyph glyph-name="uni0404" unicode="&#x404;" horiz-adv-x="410" 
d="M374 201c8 0 13 -5 13 -14c-4 -121 -71 -198 -173 -198s-171 72 -171 180v362c0 108 69 180 171 180c98 0 165 -75 168 -192c0 -8 -4 -13 -13 -13h-64c-8 0 -13 4 -13 13c-2 70 -33 107 -79 107c-50 0 -79 -34 -79 -90v-142h162c8 0 13 -6 13 -14v-50
c0 -8 -5 -13 -13 -13h-162v-153c0 -56 29 -90 79 -90c51 0 82 41 84 114c0 9 5 13 13 13h64z" />
    <glyph glyph-name="uni042D" unicode="&#x42d;" horiz-adv-x="410" 
d="M196 711c102 0 171 -72 171 -180v-362c0 -108 -69 -180 -171 -180s-169 77 -173 198c0 9 5 14 13 14h64c8 0 13 -4 13 -13c2 -73 33 -114 84 -114c50 0 79 34 79 90v153h-162c-8 0 -13 5 -13 13v50c0 8 5 14 13 14h162v142c0 56 -29 90 -79 90c-46 0 -77 -37 -79 -107
c0 -9 -5 -13 -13 -13h-64c-9 0 -13 5 -13 13c3 117 70 192 168 192z" />
    <glyph glyph-name="uni0406" unicode="&#x406;" horiz-adv-x="211" 
d="M60 687c0 8 5 13 14 13h63c8 0 13 -5 13 -13v-673c0 -9 -5 -14 -13 -14h-63c-9 0 -14 5 -14 14v673z" />
    <glyph glyph-name="uni0407" unicode="&#x407;" horiz-adv-x="211" 
d="M47 775c-27 0 -44 18 -44 44s17 44 44 44c26 0 44 -18 44 -44s-18 -44 -44 -44zM165 775c-26 0 -44 18 -44 44s18 44 44 44s44 -18 44 -44s-18 -44 -44 -44zM60 687c0 8 5 13 14 13h63c8 0 13 -5 13 -13v-673c0 -9 -5 -14 -13 -14h-63c-9 0 -14 5 -14 14v673z" />
    <glyph glyph-name="uni0408" unicode="&#x408;" horiz-adv-x="406" 
d="M182 -11c-103 0 -166 80 -169 198c0 9 4 14 13 14h64c8 0 13 -4 13 -13c3 -70 31 -114 81 -114s78 37 78 100v513c0 8 5 13 14 13h63c9 0 14 -5 14 -13v-507c0 -115 -59 -191 -171 -191z" />
    <glyph glyph-name="uni040B" unicode="&#x40b;" horiz-adv-x="506" 
d="M148 0c-8 0 -13 5 -13 14v602h-109c-8 0 -13 5 -13 14v57c0 8 5 13 13 13h307c9 0 14 -5 14 -13v-57c0 -9 -5 -14 -14 -14h-108v-143c20 20 47 34 80 34c95 0 154 -67 154 -166v-327c0 -9 -5 -14 -14 -14h-62c-9 0 -14 5 -14 14v328c0 52 -26 84 -73 84
c-41 0 -71 -32 -71 -81v-331c0 -9 -5 -14 -14 -14h-63z" />
    <glyph glyph-name="uni042E" unicode="&#x42e;" horiz-adv-x="627" 
d="M415 711c98 0 169 -73 169 -177v-368c0 -104 -71 -177 -169 -177c-97 0 -168 73 -168 177v146h-97v-298c0 -9 -5 -14 -13 -14h-63c-9 0 -14 5 -14 14v673c0 8 5 13 14 13h63c8 0 13 -5 13 -13v-291h97v138c0 104 71 177 168 177zM493 162v376c0 54 -34 88 -78 88
s-77 -34 -77 -88v-376c0 -54 33 -88 77 -88s78 34 78 88z" />
    <glyph glyph-name="uni042F" unicode="&#x42f;" horiz-adv-x="437" 
d="M212 711c105 0 171 -76 171 -185v-512c0 -9 -5 -14 -14 -14h-63c-9 0 -14 5 -14 14v240h-78l-89 -242c-2 -8 -6 -12 -14 -12h-67c-10 0 -16 6 -13 15l100 259c-57 27 -92 87 -92 162v90c0 109 66 185 173 185zM292 337v193c0 58 -29 96 -81 96s-81 -38 -81 -96v-96
c0 -59 32 -97 84 -97h78z" />
    <glyph glyph-name="uni0402" unicode="&#x402;" horiz-adv-x="499" 
d="M306 -3c-9 0 -15 6 -15 14v54c0 8 5 14 14 14c36 3 64 34 64 79v189c0 51 -26 82 -73 82c-48 0 -72 -31 -72 -82v-333c0 -9 -5 -14 -14 -14h-62c-8 0 -13 5 -13 14v602h-109c-8 0 -13 5 -13 14v57c0 8 5 13 13 13h307c9 0 14 -5 14 -13v-57c0 -9 -5 -14 -14 -14h-109
v-139c20 20 48 34 82 34c92 0 153 -68 153 -165v-184c0 -95 -65 -161 -153 -165z" />
    <glyph glyph-name="uni0414.loclBGR" horiz-adv-x="489" 
d="M20 -113c-8 0 -13 6 -13 14v124c0 34 20 59 55 59h2l106 581c4 23 18 37 43 37h64c25 0 39 -13 43 -37l106 -581h2c36 0 55 -24 55 -59v-124c0 -8 -5 -14 -14 -14h-61c-9 0 -14 6 -14 14v99h-299v-99c0 -8 -5 -14 -13 -14h-62zM155 84h180l-90 515z" />
    <glyph glyph-name="uni0418.loclBGR" horiz-adv-x="457" 
d="M217 -11c-100 0 -163 76 -163 184v514c0 8 5 13 13 13h64c8 0 13 -5 13 -13v-518c0 -58 30 -96 77 -96c53 0 85 38 85 100v514c0 8 6 13 14 13h63c9 0 14 -5 14 -13v-673c0 -9 -5 -14 -14 -14h-34c-8 0 -12 3 -15 11l-7 35c-23 -35 -59 -57 -110 -57z" />
    <glyph glyph-name="uni0419.loclBGR" horiz-adv-x="457" 
d="M225 768c-65 0 -109 39 -115 99c-1 9 5 14 13 14h39c8 0 12 -4 15 -12c4 -23 21 -37 48 -37s45 14 49 37c2 8 6 12 14 12h39c9 0 14 -4 14 -14c-7 -60 -50 -99 -116 -99zM217 -11c-100 0 -163 76 -163 184v514c0 8 5 13 13 13h64c8 0 13 -5 13 -13v-518
c0 -58 30 -96 77 -96c53 0 85 38 85 100v514c0 8 6 13 14 13h63c9 0 14 -5 14 -13v-673c0 -9 -5 -14 -14 -14h-34c-8 0 -12 3 -15 11l-7 35c-23 -35 -59 -57 -110 -57z" />
    <glyph glyph-name="uni040D.loclBGR" horiz-adv-x="457" 
d="M289 769h-41c-7 0 -13 2 -17 8l-79 90c-8 9 -4 17 7 17h57c6 0 13 -2 17 -8l65 -91c6 -8 2 -16 -9 -16zM217 -11c-100 0 -163 76 -163 184v514c0 8 5 13 13 13h64c8 0 13 -5 13 -13v-518c0 -58 30 -96 77 -96c53 0 85 38 85 100v514c0 8 6 13 14 13h63c9 0 14 -5 14 -13
v-673c0 -9 -5 -14 -14 -14h-34c-8 0 -12 3 -15 11l-7 35c-23 -35 -59 -57 -110 -57z" />
    <glyph glyph-name="uni041B.loclBGR" horiz-adv-x="397" 
d="M388 14c2 -8 -3 -14 -12 -14h-65c-8 0 -13 4 -14 12l-98 586l-98 -586c-1 -8 -7 -12 -15 -12h-65c-9 0 -13 6 -12 14l119 653c4 24 19 37 43 37h55c24 0 39 -13 43 -37z" />
    <glyph glyph-name="uni041F.loclBGR" horiz-adv-x="451" 
d="M67 0c-8 0 -13 5 -13 14v513c0 108 67 184 171 184s172 -76 172 -184v-513c0 -9 -5 -14 -14 -14h-63c-8 0 -14 5 -14 14v517c0 57 -31 95 -81 95s-81 -38 -81 -95v-517c0 -9 -5 -14 -13 -14h-64z" />
    <glyph glyph-name="uni0422.loclBGR" horiz-adv-x="359" 
d="M333 700c9 0 14 -5 14 -13v-57c0 -9 -5 -14 -14 -14h-108v-602c0 -9 -5 -14 -14 -14h-63c-8 0 -13 5 -13 14v602h-109c-8 0 -13 5 -13 14v57c0 8 5 13 13 13h307z" />
    <glyph glyph-name="uni0423.loclBGR" horiz-adv-x="408" 
d="M351 700c8 0 13 -5 13 -13v-506c0 -105 -67 -183 -172 -183h-143c-9 0 -14 5 -14 14v56c0 9 5 14 14 14h138c54 0 87 40 87 98v88c-21 -20 -49 -32 -83 -32c-101 0 -168 76 -168 185v266c0 8 5 13 14 13h63c9 0 14 -5 14 -13v-270c0 -58 30 -96 80 -96c49 0 80 38 80 99
v267c0 8 5 13 13 13h64z" />
    <glyph glyph-name="uni040E.loclBGR" horiz-adv-x="408" 
d="M201 768c-65 0 -109 39 -115 99c-1 9 5 14 13 14h39c8 0 12 -4 15 -12c4 -23 21 -37 48 -37s45 14 49 37c2 8 6 12 14 12h39c9 0 14 -4 14 -14c-7 -60 -50 -99 -116 -99zM351 700c8 0 13 -5 13 -13v-506c0 -105 -67 -183 -172 -183h-143c-9 0 -14 5 -14 14v56
c0 9 5 14 14 14h138c54 0 87 40 87 98v88c-21 -20 -49 -32 -83 -32c-101 0 -168 76 -168 185v266c0 8 5 13 14 13h63c9 0 14 -5 14 -13v-270c0 -58 30 -96 80 -96c49 0 80 38 80 99v267c0 8 5 13 13 13h64z" />
    <glyph glyph-name="uni0424.loclBGR" horiz-adv-x="650" 
d="M448 709c92 0 158 -71 158 -172v-374c0 -101 -66 -173 -158 -173c-28 0 -57 11 -78 27v-104c0 -9 -6 -14 -14 -14h-62c-9 0 -14 5 -14 14v104c-21 -16 -50 -28 -78 -28c-93 0 -159 72 -159 173v376c0 100 66 172 159 172c28 0 57 -12 78 -27v97c0 8 5 13 14 13h62
c8 0 14 -5 14 -13v-97c21 15 50 26 78 26zM207 73c42 0 73 35 73 84v386c0 49 -31 83 -73 83c-44 0 -74 -34 -74 -83v-386c0 -49 30 -84 74 -84zM517 158v384c0 49 -31 83 -74 83s-73 -34 -73 -82v-386c0 -48 30 -83 73 -83s74 35 74 84z" />
    <glyph glyph-name="uni0427.loclBGR" horiz-adv-x="429" 
d="M292 0c-8 0 -13 5 -13 14v249c-20 -22 -47 -34 -83 -34c-101 0 -168 76 -168 185v273c0 8 6 13 14 13h63c9 0 14 -5 14 -13v-277c0 -58 30 -96 80 -96c49 0 80 38 80 99v274c0 8 5 13 13 13h64c8 0 13 -5 13 -13v-673c0 -9 -5 -14 -13 -14h-64z" />
    <glyph glyph-name="uni0426.loclBGR" horiz-adv-x="489" 
d="M404 -111c-8 0 -13 5 -13 13v98c-31 5 -52 26 -60 45c-22 -32 -59 -56 -115 -56c-99 0 -162 76 -162 184v514c0 8 5 13 13 13h64c8 0 13 -5 13 -13v-518c0 -57 29 -96 79 -96c49 0 83 37 83 100v514c0 8 6 13 14 13h63c9 0 14 -5 14 -13v-561c0 -80 79 -19 79 -102v-122
c0 -8 -5 -13 -14 -13h-58z" />
    <glyph glyph-name="uni0428.loclBGR" horiz-adv-x="693" 
d="M221 -11c-104 0 -167 76 -167 185v513c0 8 5 13 13 13h63c8 0 13 -5 13 -13v-517c0 -58 29 -96 78 -96c48 0 77 38 77 96v517c0 8 5 13 14 13h62c9 0 14 -5 14 -13v-518c0 -58 29 -96 74 -96c50 0 81 38 81 100v514c0 8 5 13 13 13h63c9 0 14 -5 14 -13v-673
c0 -9 -5 -14 -13 -14h-36c-8 0 -13 4 -15 12l-4 31c-23 -33 -57 -54 -107 -54c-53 0 -95 25 -116 67c-24 -42 -67 -67 -121 -67z" />
    <glyph glyph-name="uni0429.loclBGR" horiz-adv-x="723" 
d="M640 -111c-8 0 -13 5 -13 13v98c-31 5 -52 26 -60 44c-22 -32 -54 -55 -108 -55c-51 0 -91 21 -118 56c-27 -35 -69 -56 -121 -56c-101 0 -166 76 -166 185v513c0 8 5 13 13 13h63c8 0 13 -5 13 -13v-518c0 -57 30 -95 77 -95c48 0 78 38 78 95v518c0 8 5 13 13 13h63
c9 0 14 -5 14 -13v-518c0 -57 28 -96 77 -96c47 0 77 37 77 100v514c0 8 6 13 14 13h62c9 0 14 -5 14 -13v-561c0 -77 79 -18 79 -98v-126c0 -8 -5 -13 -14 -13h-57z" />
    <glyph glyph-name="uni041B.ss01" horiz-adv-x="484" 
d="M26 -2c-8 0 -13 5 -13 14v59c0 8 4 14 13 14c46 6 74 41 74 101v341c0 111 66 184 165 184s166 -73 166 -184v-513c0 -9 -6 -14 -14 -14h-63c-9 0 -14 5 -14 14v517c0 60 -27 93 -75 93c-46 0 -74 -33 -74 -93v-351c0 -105 -64 -178 -165 -182z" />
    <glyph glyph-name="uni0430" unicode="&#x430;" horiz-adv-x="389" 
d="M194 -10c-97 0 -162 67 -162 161c0 83 64 147 158 147h75v55c0 45 -27 76 -72 76c-42 0 -65 -28 -68 -69c-1 -9 -5 -12 -14 -12h-58c-8 0 -13 6 -13 14c6 87 65 149 154 149c95 0 156 -68 156 -162v-201c0 -92 -60 -158 -156 -158zM193 72c46 0 72 30 72 76v73h-72
c-47 0 -75 -31 -75 -70c0 -48 28 -79 75 -79z" />
    <glyph glyph-name="uni0431" unicode="&#x431;" horiz-adv-x="405" 
d="M206 -11c-95 0 -159 65 -159 155v339c0 112 55 170 142 195c48 14 94 24 125 31c9 1 15 -3 15 -12v-54c0 -8 -4 -13 -12 -14c-37 -7 -84 -17 -112 -27c-49 -18 -72 -45 -72 -118v-30c23 23 53 36 94 36c80 0 138 -65 138 -159v-187c0 -90 -63 -155 -159 -155zM206 71
c46 0 74 32 74 80v177c0 48 -28 81 -74 81s-73 -33 -73 -81v-177c0 -48 27 -80 73 -80z" />
    <glyph glyph-name="uni0432" unicode="&#x432;" horiz-adv-x="399" 
d="M293 270c45 -20 74 -66 74 -125c0 -87 -62 -147 -149 -147h-120c-33 0 -51 18 -51 50v312c0 89 59 151 150 151c90 0 148 -57 148 -141c0 -45 -20 -81 -52 -100zM132 367v-66h62c45 0 69 25 69 66c0 42 -23 66 -66 66c-41 0 -65 -25 -65 -66zM205 79c46 0 77 27 77 72
c0 46 -31 74 -77 74h-73v-146h73z" />
    <glyph glyph-name="uni0433" unicode="&#x433;" horiz-adv-x="296" 
d="M61 0c-9 0 -14 5 -14 14v319c0 109 58 169 163 169h53c8 0 13 -5 13 -13v-55c0 -8 -5 -13 -13 -13h-52c-52 0 -78 -27 -78 -81v-326c0 -9 -5 -14 -14 -14h-58z" />
    <glyph glyph-name="uni0453" unicode="&#x453;" horiz-adv-x="298" 
d="M275 677c12 0 15 -8 8 -17l-70 -93c-4 -6 -10 -8 -17 -8h-41c-11 0 -15 7 -9 16l57 92c3 6 9 10 16 10h56zM61 0c-9 0 -14 5 -14 14v319c0 109 58 169 163 169h53c8 0 13 -5 13 -13v-55c0 -8 -5 -13 -13 -13h-52c-52 0 -78 -27 -78 -81v-326c0 -9 -5 -14 -14 -14h-58z
" />
    <glyph glyph-name="uni0491" unicode="&#x491;" horiz-adv-x="312" 
d="M61 0c-9 0 -14 5 -14 14v335c0 92 61 153 150 153l21 2v61c0 8 5 13 13 13h48c8 0 13 -5 13 -13v-92c0 -33 -17 -51 -50 -51h-38c-43 0 -71 -26 -71 -70v-338c0 -9 -5 -14 -14 -14h-58z" />
    <glyph glyph-name="uni0434" unicode="&#x434;" horiz-adv-x="458" 
d="M26 -111c-9 0 -14 5 -14 13v144c0 19 10 29 25 35c33 12 51 41 51 89v169c0 94 65 163 153 163h91c32 0 52 -17 52 -49v-373l7 -2c30 0 47 -17 47 -49v-127c0 -8 -5 -13 -14 -13h-54c-8 0 -14 5 -14 13v98h-262v-98c0 -8 -5 -13 -14 -13h-54zM135 78h164v346h-52
c-45 0 -75 -35 -75 -91v-150c0 -48 -14 -80 -37 -105z" />
    <glyph glyph-name="uni0435" unicode="&#x435;" horiz-adv-x="390" 
d="M197 -10c-94 0 -158 65 -158 163v196c1 95 63 161 159 161c94 1 160 -66 160 -158c0 -88 -64 -151 -159 -151h-74v-52c0 -46 27 -78 73 -78c41 0 68 30 71 74c1 9 6 13 14 13h59c8 0 13 -5 13 -13c-5 -93 -68 -155 -158 -155zM125 279h74c46 0 73 29 73 71
c0 48 -28 79 -74 79c-47 0 -73 -31 -73 -79v-71z" />
    <glyph glyph-name="uni0451" unicode="&#x451;" horiz-adv-x="390" 
d="M132 568c-27 0 -44 18 -44 44s17 44 44 44c26 0 44 -18 44 -44s-18 -44 -44 -44zM250 568c-26 0 -44 18 -44 44s18 44 44 44s44 -18 44 -44s-18 -44 -44 -44zM197 -10c-94 0 -158 65 -158 163v196c1 95 63 161 159 161c94 1 160 -66 160 -158c0 -88 -64 -151 -159 -151
h-74v-52c0 -46 27 -78 73 -78c41 0 68 30 71 74c1 9 6 13 14 13h59c8 0 13 -5 13 -13c-5 -93 -68 -155 -158 -155zM125 279h74c46 0 73 29 73 71c0 48 -28 79 -74 79c-47 0 -73 -31 -73 -79v-71z" />
    <glyph glyph-name="uni0436" unicode="&#x436;" horiz-adv-x="589" 
d="M52 0c-8 0 -13 5 -13 14v126c0 68 36 119 90 141l-99 203c-4 10 2 16 12 16h62c7 0 13 -3 16 -10l91 -192h42v189c0 8 5 13 13 13h57c8 0 14 -5 14 -13v-189h41l91 192c3 7 9 10 16 10h63c9 0 15 -6 11 -16l-99 -203c54 -22 90 -73 90 -141v-126c0 -9 -5 -14 -13 -14h-58
c-8 0 -13 5 -13 14v129c0 45 -31 74 -76 74h-53v-203c0 -9 -6 -14 -14 -14h-57c-8 0 -13 5 -13 14v203h-54c-45 0 -76 -29 -76 -74v-129c0 -9 -5 -14 -13 -14h-58z" />
    <glyph glyph-name="uni0437" unicode="&#x437;" horiz-adv-x="372" 
d="M180 -11c-92 0 -154 62 -161 149c0 9 5 14 14 14h59c8 0 12 -4 14 -13c4 -41 31 -68 75 -68c45 0 73 28 73 79c0 46 -27 75 -78 75h-39c-8 0 -14 5 -14 13v49c0 9 6 14 14 14h35c45 0 70 26 70 66s-24 65 -65 65c-37 0 -60 -21 -63 -68c-1 -9 -6 -14 -14 -14h-58
c-9 0 -14 5 -13 14c5 93 63 147 148 147c89 0 147 -57 147 -141c0 -46 -23 -82 -58 -101c45 -18 75 -61 75 -119c0 -97 -66 -161 -161 -161z" />
    <glyph glyph-name="uni0438" unicode="&#x438;" horiz-adv-x="409" 
d="M208 -1c-94 0 -161 64 -161 158v330c0 8 5 13 14 13h58c9 0 14 -5 14 -13v-333c0 -45 30 -74 75 -74h61v407c0 8 5 13 13 13h59c8 0 13 -5 13 -13v-438c0 -33 -18 -50 -50 -50h-96z" />
    <glyph glyph-name="uni0439" unicode="&#x439;" horiz-adv-x="409" 
d="M198 561c-65 0 -110 39 -116 100c0 9 5 14 13 14h39c9 0 13 -4 15 -13c4 -23 21 -36 49 -36c27 0 44 13 48 36c3 9 7 13 15 13h39c8 0 13 -5 13 -14c-6 -60 -50 -100 -115 -100zM208 -1c-94 0 -161 64 -161 158v330c0 8 5 13 14 13h58c9 0 14 -5 14 -13v-333
c0 -45 30 -74 75 -74h61v407c0 8 5 13 13 13h59c8 0 13 -5 13 -13v-438c0 -33 -18 -50 -50 -50h-96z" />
    <glyph glyph-name="uni045D" unicode="&#x45d;" horiz-adv-x="409" 
d="M108 677h56c7 0 13 -4 16 -10l57 -92c6 -9 2 -16 -9 -16h-41c-7 0 -13 2 -17 8l-70 93c-7 9 -4 17 8 17zM208 -1c-94 0 -161 64 -161 158v330c0 8 5 13 14 13h58c9 0 14 -5 14 -13v-333c0 -45 30 -74 75 -74h61v407c0 8 5 13 13 13h59c8 0 13 -5 13 -13v-438
c0 -33 -18 -50 -50 -50h-96z" />
    <glyph glyph-name="uni043A" unicode="&#x43a;" horiz-adv-x="401" 
d="M272 281c54 -22 90 -74 90 -141v-126c0 -9 -5 -14 -13 -14h-59c-8 0 -13 5 -13 14v129c0 45 -31 74 -76 74h-60v-203c0 -9 -5 -14 -14 -14h-58c-9 0 -14 5 -14 14v473c0 8 5 13 14 13h58c9 0 14 -5 14 -13v-189h49l92 192c3 7 8 10 16 10h62c9 0 15 -6 11 -16z" />
    <glyph glyph-name="uni045C" unicode="&#x45c;" horiz-adv-x="401" 
d="M292 677c12 0 15 -8 8 -17l-70 -93c-4 -6 -10 -8 -17 -8h-41c-11 0 -15 7 -9 16l57 92c3 6 9 10 16 10h56zM272 281c54 -22 90 -74 90 -141v-126c0 -9 -5 -14 -13 -14h-59c-8 0 -13 5 -13 14v129c0 45 -31 74 -76 74h-60v-203c0 -9 -5 -14 -14 -14h-58c-9 0 -14 5 -14 14
v473c0 8 5 13 14 13h58c9 0 14 -5 14 -13v-189h49l92 192c3 7 8 10 16 10h62c9 0 15 -6 11 -16z" />
    <glyph glyph-name="uni043B" unicode="&#x43b;" horiz-adv-x="426" 
d="M26 -2c-8 0 -14 6 -14 14v54c0 8 5 14 14 14c29 3 47 29 47 76v189c0 94 67 158 161 158h87c32 0 50 -18 50 -50v-439c0 -9 -6 -14 -14 -14h-57c-8 0 -14 5 -14 14v408h-52c-45 0 -76 -29 -76 -74v-190c0 -95 -49 -156 -132 -160z" />
    <glyph glyph-name="uni043C" unicode="&#x43c;" horiz-adv-x="550" 
d="M69 0c-9 0 -14 5 -14 14v447c0 26 15 40 41 40h35c23 0 38 -8 47 -30l58 -130c14 -31 29 -71 38 -98h2c9 27 23 66 38 99l58 129c9 22 24 30 47 30h35c26 0 40 -14 40 -40v-447c0 -9 -5 -14 -13 -14h-57c-8 0 -14 5 -13 14v226c0 53 1 106 3 143h-2
c-12 -33 -25 -67 -38 -99l-45 -107c-8 -21 -24 -31 -47 -31h-14c-23 0 -39 10 -47 31l-46 107c-13 32 -25 66 -37 99h-2c2 -37 3 -90 3 -143v-226c0 -9 -5 -14 -14 -14h-56z" />
    <glyph glyph-name="uni043D" unicode="&#x43d;" horiz-adv-x="414" 
d="M274 487c0 8 5 13 14 13h58c8 0 13 -5 13 -13v-473c0 -9 -5 -14 -13 -14h-58c-9 0 -14 5 -14 14v203h-134v-203c0 -9 -5 -14 -13 -14h-58c-9 0 -14 5 -14 14v473c0 8 5 13 14 13h58c8 0 13 -5 13 -13v-190h134v190z" />
    <glyph glyph-name="uni043E" unicode="&#x43e;" horiz-adv-x="399" 
d="M199 -11c-96 0 -160 68 -160 163v196c0 95 64 163 160 163c97 0 160 -68 160 -163v-196c0 -95 -63 -163 -160 -163zM199 70c46 0 74 32 74 79v202c0 47 -28 79 -74 79s-73 -32 -73 -79v-202c0 -47 27 -79 73 -79z" />
    <glyph glyph-name="uni043F" unicode="&#x43f;" horiz-adv-x="415" 
d="M310 500c32 0 50 -18 50 -50v-436c0 -9 -5 -14 -14 -14h-58c-8 0 -13 5 -13 14v405h-134v-405c0 -9 -5 -14 -14 -14h-58c-9 0 -14 5 -14 14v436c0 32 18 50 50 50h205z" />
    <glyph glyph-name="uni0440" unicode="&#x440;" horiz-adv-x="405" 
d="M207 511c95 0 159 -68 159 -163v-196c0 -95 -64 -163 -145 -163c-36 0 -65 13 -88 34v-210c0 -8 -5 -13 -13 -13h-59c-9 0 -14 5 -14 13v535c0 95 64 163 160 163zM280 149v202c0 47 -27 78 -73 78s-74 -31 -74 -78v-202c0 -47 28 -78 74 -78s73 31 73 78z" />
    <glyph glyph-name="uni0441" unicode="&#x441;" horiz-adv-x="385" 
d="M198 -11c-95 0 -159 68 -159 163v196c0 95 63 163 157 163c90 0 150 -62 156 -153c1 -8 -4 -13 -13 -13h-59c-8 0 -13 4 -14 13c-4 45 -29 71 -70 71c-44 0 -71 -31 -71 -78v-202c0 -47 27 -78 72 -78c42 0 69 29 73 78c1 10 5 14 13 14h60c8 0 13 -5 13 -15
c-6 -94 -67 -159 -158 -159z" />
    <glyph glyph-name="uni0442" unicode="&#x442;" horiz-adv-x="335" 
d="M138 0c-9 0 -14 5 -14 14v405h-98c-9 0 -14 5 -14 14v54c0 8 5 13 14 13h283c8 0 13 -5 13 -13v-54c0 -9 -5 -14 -13 -14h-99v-405c0 -9 -5 -14 -14 -14h-58z" />
    <glyph glyph-name="uni0443" unicode="&#x443;" horiz-adv-x="418" 
d="M349 500c8 0 14 -5 14 -13v-535c0 -99 -62 -163 -158 -163c-91 0 -152 63 -157 161c-1 9 4 14 13 14h59c8 0 12 -4 13 -14c3 -50 29 -79 72 -79c46 0 72 29 72 78v101c-19 -22 -47 -36 -79 -36c-88 0 -151 67 -151 162v311c0 8 5 13 14 13h58c9 0 14 -5 14 -13v-314
c0 -46 27 -78 72 -78s72 32 72 78v314c0 8 5 13 14 13h58z" />
    <glyph glyph-name="uni045E" unicode="&#x45e;" horiz-adv-x="418" 
d="M203 561c-65 0 -110 39 -116 100c0 9 5 14 13 14h39c9 0 13 -4 15 -13c4 -23 21 -36 49 -36c27 0 44 13 48 36c3 9 7 13 15 13h39c8 0 13 -5 13 -14c-6 -60 -50 -100 -115 -100zM349 500c8 0 14 -5 14 -13v-535c0 -99 -62 -163 -158 -163c-91 0 -152 63 -157 161
c-1 9 4 14 13 14h59c8 0 12 -4 13 -14c3 -50 29 -79 72 -79c46 0 72 29 72 78v101c-19 -22 -47 -36 -79 -36c-88 0 -151 67 -151 162v311c0 8 5 13 14 13h58c9 0 14 -5 14 -13v-314c0 -46 27 -78 72 -78s72 32 72 78v314c0 8 5 13 14 13h58z" />
    <glyph glyph-name="uni0444" unicode="&#x444;" horiz-adv-x="599" 
d="M271 -200c-8 0 -13 5 -13 13v184h-64c-92 0 -155 68 -155 163v180c0 95 63 163 155 163h64v184c0 8 5 13 13 13h57c9 0 14 -5 14 -13v-184h64c92 0 154 -68 154 -163v-180c0 -95 -62 -163 -154 -163h-64v-184c0 -8 -5 -13 -14 -13h-57zM194 78h64v344h-64
c-43 0 -69 -32 -69 -78v-188c0 -46 26 -78 69 -78zM342 78h64c43 0 69 32 69 78v188c0 46 -26 78 -69 78h-64v-344z" />
    <glyph glyph-name="uni0445" unicode="&#x445;" horiz-adv-x="391" 
d="M53 0c-9 0 -14 5 -14 14v113c0 52 25 95 67 123c-42 27 -67 69 -67 121v116c0 8 5 13 14 13h59c8 0 13 -5 13 -13v-119c0 -46 27 -78 70 -78c44 0 71 32 71 78v119c0 8 5 13 13 13h59c8 0 13 -5 13 -13v-116c0 -52 -24 -94 -66 -121c42 -28 66 -71 66 -123v-113
c0 -9 -5 -14 -13 -14h-59c-8 0 -13 5 -13 14v116c0 47 -27 79 -71 79c-43 0 -70 -32 -70 -79v-116c0 -9 -5 -14 -13 -14h-59z" />
    <glyph glyph-name="uni0447" unicode="&#x447;" horiz-adv-x="395" 
d="M274 0c-8 0 -13 5 -13 14v151h-73c-90 0 -157 67 -157 156v166c0 8 5 13 14 13h60c9 0 14 -5 14 -13v-169c0 -41 30 -72 69 -72h73v241c0 8 5 13 13 13h60c9 0 14 -5 14 -13v-473c0 -9 -5 -14 -14 -14h-60z" />
    <glyph glyph-name="uni0446" unicode="&#x446;" horiz-adv-x="443" 
d="M349 -111c-8 0 -13 5 -13 13v95h-128c-94 0 -161 64 -161 158v332c0 8 5 13 14 13h58c9 0 14 -5 14 -13v-335c0 -45 30 -74 75 -74h68v409c0 8 5 13 13 13h59c8 0 13 -5 13 -13v-408l7 -1c33 0 51 -18 51 -50v-126c0 -8 -5 -13 -14 -13h-56z" />
    <glyph glyph-name="uni0448" unicode="&#x448;" horiz-adv-x="608" 
d="M205 -2c-95 0 -158 67 -158 162v327c0 8 5 13 14 13h57c9 0 14 -5 14 -13v-330c0 -46 27 -78 72 -78h59v408c0 8 5 13 13 13h58c8 0 13 -5 13 -13v-408h129v408c0 8 5 13 14 13h57c9 0 14 -5 14 -13v-439c0 -33 -18 -50 -50 -50h-306z" />
    <glyph glyph-name="uni0449" unicode="&#x449;" horiz-adv-x="631" 
d="M549 -111c-9 0 -14 5 -14 13v96h-330c-95 0 -158 67 -158 162v327c0 8 5 13 14 13h57c9 0 14 -5 14 -13v-330c0 -46 27 -78 72 -78h59v408c0 8 5 13 13 13h58c8 0 13 -5 13 -13v-408h129v408c0 8 5 13 14 13h57c9 0 14 -5 14 -13v-407l7 -1c33 0 50 -18 50 -50v-127
c0 -8 -5 -13 -13 -13h-56z" />
    <glyph glyph-name="uni045F" unicode="&#x45f;" horiz-adv-x="422" 
d="M185 -111c-8 0 -13 5 -13 13v98h-67c-32 0 -50 18 -50 50v437c0 8 5 13 14 13h58c9 0 14 -5 14 -13v-406h140v406c0 8 5 13 14 13h58c8 0 13 -5 13 -13v-437c0 -32 -17 -50 -50 -50h-66v-98c0 -8 -5 -13 -13 -13h-52z" />
    <glyph glyph-name="uni044C" unicode="&#x44c;" horiz-adv-x="394" 
d="M105 -3c-32 0 -50 18 -50 50v440c0 8 5 13 14 13h58c8 0 13 -5 13 -13v-171h69c95 0 160 -65 160 -158c0 -96 -67 -161 -161 -161h-103zM140 77h68c47 0 76 30 76 82c0 50 -29 80 -76 80h-68v-162z" />
    <glyph glyph-name="uni044A" unicode="&#x44a;" horiz-adv-x="453" 
d="M260 316c95 0 160 -65 160 -158c0 -96 -67 -161 -161 -161h-102c-33 0 -51 18 -51 50v373h-80c-9 0 -14 5 -14 14v53c0 8 5 13 14 13h116c32 0 49 -18 49 -50v-134h69zM259 78c45 0 76 30 76 81c0 50 -31 80 -76 80h-68v-161h68z" />
    <glyph glyph-name="uni044B" unicode="&#x44b;" horiz-adv-x="555" 
d="M105 -3c-32 0 -50 18 -50 50v440c0 8 5 13 14 13h58c8 0 13 -5 13 -13v-180h69c93 0 161 -61 161 -153s-70 -157 -162 -157h-103zM428 0c-8 0 -13 5 -13 14v473c0 8 5 13 13 13h59c8 0 13 -5 13 -13v-473c0 -9 -5 -14 -13 -14h-59zM140 78h68c45 0 76 29 76 77
c0 46 -31 74 -76 74h-68v-151z" />
    <glyph glyph-name="uni0459" unicode="&#x459;" horiz-adv-x="626" 
d="M441 307c93 0 160 -63 160 -155s-69 -154 -161 -154h-96c-32 0 -50 17 -50 50v373h-61c-45 0 -76 -29 -76 -74v-206c0 -80 -54 -139 -131 -143c-8 0 -14 6 -14 14v54c0 8 5 14 14 14c27 3 47 27 47 59v205c0 93 67 158 160 158h94c32 0 51 -18 51 -50v-145h63zM440 79
c45 0 77 28 77 76c0 46 -32 74 -77 74h-62v-150h62z" />
    <glyph glyph-name="uni045A" unicode="&#x45a;" horiz-adv-x="611" 
d="M69 0c-9 0 -14 5 -14 14v473c0 8 5 13 14 13h58c8 0 13 -5 13 -13v-185h137v185c0 8 5 13 13 13h58c9 0 14 -5 14 -13v-183h64c94 0 161 -63 161 -154s-70 -153 -162 -153h-98c-32 0 -50 18 -50 50v174h-137v-207c0 -9 -5 -14 -13 -14h-58zM362 78h63c45 0 77 28 77 75
c0 45 -32 73 -77 73h-63v-148z" />
    <glyph glyph-name="uni0455" unicode="&#x455;" horiz-adv-x="386" 
d="M199 -11c-104 0 -164 71 -167 159c0 8 3 15 14 15h58c7 0 13 -3 14 -13c4 -51 28 -79 80 -79c46 0 70 26 70 62c0 101 -230 74 -230 238c0 80 61 140 151 140c107 0 154 -69 157 -147c0 -7 -3 -14 -13 -14h-59c-8 0 -13 5 -14 13c-3 39 -26 67 -69 67
c-41 0 -68 -25 -68 -61c0 -96 231 -69 231 -237c0 -81 -62 -143 -155 -143z" />
    <glyph glyph-name="uni0454" unicode="&#x454;" horiz-adv-x="390" 
d="M198 -11c-95 0 -159 65 -159 163v196c0 98 64 163 158 163c90 0 153 -60 159 -153c0 -8 -5 -13 -13 -13h-60c-8 0 -12 4 -13 13c-4 47 -31 71 -73 71c-45 0 -72 -29 -72 -78v-62h157c8 0 14 -5 14 -13v-39c0 -8 -6 -13 -14 -13h-157v-75c0 -49 27 -78 72 -78
c44 0 70 27 73 77c1 10 5 14 13 14h60c8 0 13 -5 13 -15c-5 -96 -67 -158 -158 -158z" />
    <glyph glyph-name="uni044D" unicode="&#x44d;" horiz-adv-x="390" 
d="M192 -11c-91 0 -153 62 -158 158c0 10 5 15 13 15h60c8 0 12 -4 13 -14c3 -50 29 -77 73 -77c45 0 72 29 72 78v75h-157c-8 0 -14 5 -14 13v39c0 8 6 13 14 13h157v62c0 49 -27 78 -72 78c-42 0 -69 -24 -73 -71c-1 -9 -5 -13 -13 -13h-60c-8 0 -13 5 -13 13
c6 93 69 153 159 153c94 0 158 -65 158 -163v-196c0 -98 -64 -163 -159 -163z" />
    <glyph glyph-name="uni0456" unicode="&#x456;" horiz-adv-x="196" 
d="M98 563c-30 0 -51 22 -51 51c0 30 21 52 51 52c29 0 52 -22 52 -52c0 -27 -23 -51 -52 -51zM69 0c-9 0 -14 5 -14 14v473c0 8 5 13 14 13h58c9 0 14 -5 14 -13v-473c0 -9 -5 -14 -14 -14h-58z" />
    <glyph glyph-name="uni0457" unicode="&#x457;" horiz-adv-x="201" 
d="M48 570c-24 0 -40 16 -41 41c1 25 17 41 41 41s42 -16 42 -41s-18 -41 -42 -41zM155 570c-25 0 -42 16 -42 41s17 41 42 41c23 0 40 -16 40 -41s-17 -41 -40 -41zM72 0c-9 0 -14 5 -14 14v473c0 8 5 13 14 13h58c9 0 14 -5 14 -13v-473c0 -9 -5 -14 -14 -14h-58z" />
    <glyph glyph-name="uni0458" unicode="&#x458;" horiz-adv-x="255" 
d="M148 563c-30 0 -51 22 -51 51c0 30 21 52 51 52c29 0 52 -22 52 -52c0 -27 -23 -51 -52 -51zM14 -205c-9 0 -14 5 -14 13v55c0 8 4 13 14 13h7c59 2 86 35 86 91v520c0 8 5 13 13 13h59c8 0 13 -5 13 -13v-513c0 -110 -60 -178 -169 -179h-9z" />
    <glyph glyph-name="uni045B" unicode="&#x45b;" horiz-adv-x="455" 
d="M106 0c-8 0 -14 5 -14 14v564h-66c-9 0 -14 5 -14 13v31c0 8 5 13 14 13h66v52c0 8 6 13 14 13h58c9 0 14 -5 14 -13v-52h129c9 0 14 -5 14 -13v-31c0 -8 -5 -13 -14 -13h-129v-106c19 21 47 35 80 35c91 0 150 -67 150 -164v-329c0 -9 -5 -14 -13 -14h-59
c-9 0 -14 5 -14 14v332c0 48 -26 80 -73 80c-43 0 -71 -32 -71 -80v-332c0 -9 -5 -14 -14 -14h-58z" />
    <glyph glyph-name="uni044E" unicode="&#x44e;" horiz-adv-x="561" 
d="M368 -11c-92 0 -153 68 -153 163v64h-75v-202c0 -9 -6 -14 -14 -14h-57c-9 0 -14 5 -14 14v473c0 8 5 13 14 13h57c8 0 14 -5 14 -13v-190h75v51c0 95 61 163 153 163s154 -68 154 -163v-196c0 -95 -62 -163 -154 -163zM368 71c43 0 69 31 69 78v202c0 47 -26 78 -69 78
s-69 -31 -69 -78v-202c0 -47 26 -78 69 -78z" />
    <glyph glyph-name="uni044F" unicode="&#x44f;" horiz-adv-x="407" 
d="M207 511c89 0 152 -62 152 -156v-341c0 -9 -5 -14 -13 -14h-58c-8 0 -13 5 -13 14v168h-74l-84 -170c-3 -9 -9 -12 -17 -12h-62c-10 0 -16 7 -11 16l97 186c-50 25 -82 77 -82 145c0 100 71 164 165 164zM275 262v92c0 48 -27 75 -68 75c-47 0 -79 -29 -79 -83
s30 -84 77 -84h70z" />
    <glyph glyph-name="uni0452" unicode="&#x452;" horiz-adv-x="455" 
d="M259 507c90 0 149 -67 149 -164v-363c0 -119 -65 -185 -172 -188c-9 0 -14 5 -14 13v54c0 9 5 14 14 14c56 3 87 36 87 100v373c0 48 -27 80 -73 80c-43 0 -72 -32 -72 -80v-332c0 -9 -5 -14 -13 -14h-59c-8 0 -13 5 -13 14v564h-67c-8 0 -13 5 -13 13v31c0 8 5 13 13 13
h67v52c0 8 5 13 13 13h59c8 0 13 -5 13 -13v-52h129c9 0 14 -5 14 -13v-31c0 -8 -5 -13 -14 -13h-129v-105c20 20 47 34 81 34z" />
    <glyph glyph-name="uni0432.loclBGR" horiz-adv-x="407" 
d="M296 372c47 -23 77 -67 77 -125v-95c0 -95 -66 -163 -163 -163s-163 68 -163 163v394c0 97 58 165 154 165c95 0 153 -68 153 -165v-61c0 -50 -22 -89 -58 -113zM133 549v-144h55c48 0 80 29 80 76v68c0 49 -17 80 -67 80c-47 0 -68 -31 -68 -80zM287 149v102
c0 46 -33 75 -82 75h-72v-177c0 -47 29 -78 77 -78s77 31 77 78z" />
    <glyph glyph-name="uni0433.loclBGR" horiz-adv-x="386" 
d="M188 -11c-95 0 -156 57 -156 142c0 169 231 142 231 238c0 38 -25 61 -68 61c-41 0 -66 -25 -69 -67c-1 -8 -6 -13 -14 -13h-58c-9 0 -14 5 -14 14c6 88 65 147 155 147c94 0 153 -56 153 -139c0 -166 -230 -138 -230 -238c0 -39 26 -63 71 -63c46 0 75 29 79 78
c1 9 6 13 14 13h59c8 0 13 -5 13 -14c-6 -95 -69 -159 -166 -159z" />
    <glyph glyph-name="uni0434.loclBGR" horiz-adv-x="405" 
d="M199 511c95 0 159 -68 159 -163v-396c0 -99 -62 -163 -159 -163c-93 0 -155 63 -159 161c-1 9 4 14 13 14h59c8 0 13 -4 14 -14c3 -50 30 -79 73 -79c46 0 73 29 73 78v99c-21 -22 -49 -35 -80 -35c-89 0 -153 68 -153 163v172c0 95 64 163 160 163zM199 94
c46 0 73 32 73 79v178c0 47 -27 78 -73 78s-74 -31 -74 -78v-178c0 -47 28 -79 74 -79z" />
    <glyph glyph-name="uni0436.loclBGR" horiz-adv-x="589" 
d="M548 500c9 0 15 -6 11 -16l-99 -203c54 -22 90 -73 90 -141v-126c0 -9 -5 -14 -13 -14h-58c-8 0 -13 5 -13 14v129c0 45 -31 74 -76 74h-53v-203c0 -9 -6 -14 -14 -14h-57c-8 0 -13 5 -13 14v203h-54c-45 0 -76 -29 -76 -74v-129c0 -9 -5 -14 -13 -14h-58
c-8 0 -13 5 -13 14v126c0 68 36 119 90 141l-99 203c-4 10 2 16 12 16h62c7 0 13 -3 16 -10l91 -192h42v389c0 8 5 13 13 13h57c8 0 14 -5 14 -13v-389h41l91 192c3 7 9 10 16 10h63z" />
    <glyph glyph-name="uni0437.loclBGR" horiz-adv-x="380" 
d="M266 179c48 -26 75 -76 75 -133v-72c0 -115 -61 -185 -163 -185c-107 0 -160 79 -164 207c0 8 5 13 14 13h58c8 0 13 -4 13 -12c2 -83 29 -126 78 -126c52 0 78 33 78 101v80c0 53 -30 86 -86 86h-51c-9 0 -14 5 -14 13v53c0 8 5 13 14 13h45c52 0 78 32 78 79v55
c0 47 -17 78 -61 78c-48 0 -67 -28 -70 -71c0 -9 -5 -13 -13 -13h-59c-9 0 -14 5 -13 13c5 93 65 153 154 153c90 0 148 -68 148 -163v-55c0 -50 -22 -91 -61 -114z" />
    <glyph glyph-name="uni0438.loclBGR" horiz-adv-x="414" 
d="M199 -11c-91 0 -152 68 -152 163v335c0 8 5 13 14 13h58c9 0 14 -5 14 -13v-338c0 -47 26 -78 70 -78s70 31 70 78v338c0 8 5 13 14 13h58c9 0 14 -5 14 -13v-473c0 -9 -5 -14 -14 -14h-37c-8 0 -13 4 -15 12l-2 25c-23 -29 -55 -48 -92 -48z" />
    <glyph glyph-name="uni0439.loclBGR" horiz-adv-x="414" 
d="M208 561c-65 0 -110 39 -116 100c0 9 5 14 13 14h39c9 0 13 -4 15 -13c4 -23 21 -36 49 -36c27 0 44 13 48 36c3 9 7 13 15 13h39c8 0 13 -5 13 -14c-6 -60 -50 -100 -115 -100zM199 -11c-91 0 -152 68 -152 163v335c0 8 5 13 14 13h58c9 0 14 -5 14 -13v-338
c0 -47 26 -78 70 -78s70 31 70 78v338c0 8 5 13 14 13h58c9 0 14 -5 14 -13v-473c0 -9 -5 -14 -14 -14h-37c-8 0 -13 4 -15 12l-2 25c-23 -29 -55 -48 -92 -48z" />
    <glyph glyph-name="uni045D.loclBGR" horiz-adv-x="406" 
d="M116 677h56c7 0 13 -4 16 -10l57 -92c6 -9 2 -16 -9 -16h-41c-7 0 -13 2 -17 8l-70 93c-7 9 -4 17 8 17zM199 -11c-91 0 -152 68 -152 163v335c0 8 5 13 14 13h58c9 0 14 -5 14 -13v-338c0 -47 26 -78 70 -78s70 31 70 78v338c0 8 5 13 14 13h58c9 0 14 -5 14 -13v-473
c0 -9 -5 -14 -14 -14h-37c-8 0 -13 4 -15 12l-2 25c-23 -29 -55 -48 -92 -48z" />
    <glyph glyph-name="uni043A.loclBGR" horiz-adv-x="400" 
d="M271 281c55 -22 91 -74 91 -141v-126c0 -9 -5 -14 -13 -14h-59c-8 0 -13 5 -13 14v129c0 45 -31 74 -76 74h-60v-203c0 -9 -5 -14 -14 -14h-58c-9 0 -14 5 -14 14v673c0 8 5 13 14 13h58c9 0 14 -5 14 -13v-389h48l91 192c4 7 9 10 16 10h62c10 0 16 -6 12 -16z" />
    <glyph glyph-name="uni043B.loclBGR" horiz-adv-x="376" 
d="M279 12l-91 411l-90 -411c-1 -8 -7 -12 -15 -12h-62c-9 0 -13 6 -11 15l113 453c5 24 20 36 45 36h41c24 0 40 -12 45 -36l113 -453c2 -9 -2 -15 -12 -15h-61c-8 0 -14 4 -15 12z" />
    <glyph glyph-name="uni043F.loclBGR" horiz-adv-x="406" 
d="M61 0c-9 0 -14 5 -14 14v334c0 95 63 163 156 163s156 -68 156 -163v-334c0 -9 -5 -14 -14 -14h-58c-9 0 -14 5 -14 14v337c0 47 -26 79 -70 79s-70 -32 -70 -79v-337c0 -9 -5 -14 -14 -14h-58z" />
    <glyph glyph-name="uni0442.loclBGR" horiz-adv-x="611" 
d="M414 511c91 0 150 -68 150 -163v-334c0 -9 -5 -14 -13 -14h-58c-9 0 -14 5 -14 14v337c0 47 -23 78 -65 78s-66 -31 -66 -78v-337c0 -9 -5 -14 -13 -14h-58c-9 0 -14 5 -14 14v337c0 47 -23 78 -65 78s-66 -31 -66 -78v-337c0 -9 -5 -14 -14 -14h-57c-9 0 -14 5 -14 14
v334c0 95 60 163 151 163c46 0 85 -25 108 -61c23 36 61 61 108 61z" />
    <glyph glyph-name="uni0443.loclBGR" horiz-adv-x="418" 
d="M349 500c8 0 14 -5 14 -13v-535c0 -99 -62 -163 -158 -163c-91 0 -152 63 -157 161c-1 9 4 14 13 14h59c8 0 12 -4 13 -14c3 -50 29 -79 72 -79c46 0 72 29 72 78v101c-19 -22 -47 -36 -79 -36c-88 0 -151 67 -151 162v311c0 8 5 13 14 13h58c9 0 14 -5 14 -13v-314
c0 -46 27 -78 72 -78s72 32 72 78v314c0 8 5 13 14 13h58z" />
    <glyph glyph-name="uni0444.loclBGR" horiz-adv-x="609" 
d="M421 511c89 0 148 -68 148 -163v-196c0 -95 -59 -163 -148 -163c-29 0 -55 12 -74 33v-209c0 -8 -5 -13 -14 -13h-58c-8 0 -13 5 -13 13v209c-19 -20 -46 -33 -75 -33c-88 0 -148 68 -148 163v196c0 95 60 163 148 163c29 0 56 -12 75 -33v209c0 8 5 13 13 13h58
c9 0 14 -5 14 -13v-209c19 21 45 33 74 33zM192 71c42 0 70 31 70 78v202c0 47 -28 78 -70 78c-43 0 -67 -31 -67 -78v-202c0 -47 24 -78 67 -78zM484 149v202c0 47 -25 78 -67 78s-70 -31 -70 -78v-202c0 -47 28 -78 70 -78s67 31 67 78z" />
    <glyph glyph-name="uni0447.loclBGR" horiz-adv-x="402" 
d="M275 0c-9 0 -14 5 -14 14v173c-20 -22 -49 -36 -80 -36c-88 0 -150 64 -150 162v174c0 8 5 13 14 13h58c9 0 14 -5 14 -13v-177c0 -46 27 -78 72 -78s72 28 72 78v177c0 8 5 13 14 13h58c9 0 14 -5 14 -13v-473c0 -9 -5 -14 -14 -14h-58z" />
    <glyph glyph-name="uni0446.loclBGR" horiz-adv-x="450" 
d="M360 -111c-8 0 -13 5 -13 13v101c-16 4 -36 18 -41 34c-22 -29 -57 -48 -103 -48c-92 0 -156 68 -156 163v335c1 8 6 13 14 13h58c9 0 14 -5 14 -13v-338c0 -47 27 -78 71 -78s69 32 69 78v338c0 8 5 13 14 13h58c8 0 13 -5 13 -13v-372c0 -72 72 -28 72 -91v-122
c0 -8 -5 -13 -13 -13h-57z" />
    <glyph glyph-name="uni0448.loclBGR" horiz-adv-x="619" 
d="M197 -11c-89 0 -150 68 -150 163v335c0 8 5 13 14 13h58c8 0 13 -5 13 -13v-338c0 -47 25 -78 65 -78c41 0 66 31 66 78v338c0 8 5 13 14 13h57c9 0 14 -5 14 -13v-338c0 -47 25 -78 66 -78c40 0 65 31 65 78v338c0 8 5 13 13 13h58c8 0 13 -5 14 -13v-473
c0 -9 -5 -14 -14 -14h-36c-8 0 -13 4 -15 12l-2 23c-21 -28 -50 -46 -87 -46c-47 0 -83 22 -105 57c-23 -35 -59 -57 -108 -57z" />
    <glyph glyph-name="uni0449.loclBGR" horiz-adv-x="655" 
d="M566 -111c-9 0 -14 5 -14 13l1 101c-16 4 -36 18 -42 34c-22 -29 -55 -48 -98 -48c-49 0 -84 22 -107 58c-23 -36 -59 -58 -108 -58c-90 0 -151 68 -151 163v335c0 8 5 13 14 13h58c8 0 13 -5 13 -13v-338c0 -47 26 -78 66 -78s65 31 65 78v338c0 8 5 13 14 13h57
c9 0 14 -5 14 -13v-338c0 -47 25 -78 65 -78s66 31 66 78v338c0 8 5 13 13 13h58c9 0 14 -5 14 -13v-372c0 -72 71 -28 71 -91v-122c0 -8 -5 -13 -13 -13h-56z" />
    <glyph glyph-name="uni044C.loclBGR" horiz-adv-x="390" 
d="M218 354c89 0 147 -67 147 -162v-40c0 -95 -63 -163 -159 -163c-95 0 -159 68 -159 163v335c0 7 6 13 14 13h58c8 0 14 -6 14 -13v-170c21 22 49 37 85 37zM280 149v46c0 46 -28 78 -74 78s-73 -32 -73 -78v-46c0 -47 27 -78 73 -78s74 31 74 78z" />
    <glyph glyph-name="uni044A.loclBGR" horiz-adv-x="440" 
d="M267 354c90 0 149 -67 149 -162v-40c0 -95 -63 -163 -159 -163c-95 0 -159 68 -159 163v268h-77c-9 0 -14 5 -14 14v53c0 8 5 13 14 13h121c23 0 41 -18 41 -41v-143c21 23 49 38 84 38zM331 149v46c0 46 -28 78 -74 78s-74 -32 -74 -78v-46c0 -47 28 -78 74 -78
s74 31 74 78z" />
    <glyph glyph-name="uni044E.loclBGR" horiz-adv-x="561" 
d="M368 -11c-92 0 -153 68 -153 163v64h-75v-202c0 -9 -6 -14 -14 -14h-57c-9 0 -14 5 -14 14v673c0 8 5 13 14 13h57c8 0 14 -5 14 -13v-390h75v51c0 95 61 163 153 163s154 -68 154 -163v-196c0 -95 -62 -163 -154 -163zM368 71c43 0 69 31 69 78v202c0 47 -26 78 -69 78
s-69 -31 -69 -78v-202c0 -47 26 -78 69 -78z" />
    <glyph glyph-name="uni043B.ss01" horiz-adv-x="423" 
d="M224 511c96 0 152 -68 152 -163v-334c0 -9 -5 -14 -14 -14h-58c-8 0 -13 5 -13 14v337c0 47 -21 78 -67 78c-45 0 -66 -31 -66 -78v-193c0 -95 -49 -156 -132 -160c-8 0 -14 6 -14 14v54c0 8 5 14 14 14c29 3 47 29 47 76v192c0 95 56 163 151 163z" />
    <glyph glyph-name="zero" unicode="0" horiz-adv-x="412" 
d="M206 -11c-93 0 -161 71 -161 169v384c0 98 68 169 161 169c92 0 161 -71 161 -169v-384c0 -98 -69 -169 -161 -169zM134 187l128 410c-12 19 -32 31 -56 31c-42 0 -73 -33 -73 -79v-346c0 -5 0 -11 1 -16zM206 72c42 0 73 33 73 79v346c0 6 0 11 -1 17l-128 -410
c12 -20 32 -32 56 -32z" />
    <glyph glyph-name="one" unicode="1" horiz-adv-x="246" 
d="M132 700c35 0 54 -19 54 -53v-633c0 -9 -5 -14 -14 -14h-61c-8 0 -13 5 -13 14v604h-72c-8 0 -13 5 -13 14v55c0 8 5 13 13 13h106z" />
    <glyph glyph-name="two" unicode="2" horiz-adv-x="378" 
d="M347 551c0 -199 -228 -283 -228 -469h216c8 0 13 -5 13 -14v-54c0 -9 -5 -14 -13 -14h-264c-26 0 -41 15 -41 41v21c0 250 232 333 232 487c0 45 -23 81 -70 81c-45 0 -72 -33 -74 -94c-1 -9 -6 -14 -14 -14h-56c-8 0 -13 5 -13 14c5 106 64 175 157 175
c98 0 155 -72 155 -160z" />
    <glyph glyph-name="three" unicode="3" horiz-adv-x="394" 
d="M193 -11c-93 0 -158 68 -160 180c0 8 5 13 13 13h61c9 0 14 -5 14 -13c2 -68 30 -97 72 -97c45 0 72 34 72 89v113c0 58 -32 92 -82 92h-42c-10 0 -16 6 -16 16v20c0 11 2 20 7 29l107 190h-181c-9 0 -14 5 -14 14v54c0 8 5 13 14 13h267c14 0 22 -8 22 -21v-8
c0 -9 -2 -15 -6 -24l-111 -210l2 -3c81 -15 121 -85 121 -167v-104c0 -105 -65 -176 -160 -176z" />
    <glyph glyph-name="four" unicode="4" horiz-adv-x="409" 
d="M374 273c9 0 14 -5 14 -14v-55c0 -8 -5 -13 -14 -13h-42v-177c0 -9 -5 -14 -13 -14h-61c-8 0 -13 5 -13 14v177h-200c-18 0 -28 10 -28 27v26c0 14 2 27 6 43l121 402c3 7 8 11 16 11h61c9 0 14 -6 11 -15l-122 -412h136l5 228c1 8 6 13 14 13h54c8 0 13 -5 13 -14v-227
h42z" />
    <glyph glyph-name="five" unicode="5" horiz-adv-x="400" 
d="M212 475c85 0 150 -70 150 -170v-139c0 -106 -64 -177 -162 -177c-95 0 -158 68 -160 180c0 8 5 13 13 13h60c9 0 14 -5 14 -13c2 -66 28 -97 73 -97c48 0 74 34 74 90v147c0 51 -29 84 -74 84c-37 0 -63 -24 -67 -67c-1 -12 -8 -20 -21 -20h-44c-15 0 -23 9 -23 24v333
c0 26 14 41 40 41h251c9 0 14 -5 14 -14v-51c0 -9 -5 -14 -14 -14h-205v-180c21 18 49 30 81 30z" />
    <glyph glyph-name="six" unicode="6" horiz-adv-x="407" 
d="M206 -11c-92 0 -161 71 -161 169v381c0 101 66 172 160 172c92 0 158 -67 160 -168c0 -9 -5 -14 -13 -14h-61c-8 0 -14 5 -14 14c-2 56 -31 85 -72 85c-43 0 -72 -33 -72 -85v-117c21 21 49 33 86 33c82 0 148 -70 148 -163v-138c0 -98 -69 -169 -161 -169zM206 72
c42 0 73 33 73 82v140c0 50 -31 83 -73 83s-73 -31 -73 -83v-140c0 -50 31 -82 73 -82z" />
    <glyph glyph-name="seven" unicode="7" horiz-adv-x="339" 
d="M13 687c0 8 5 13 13 13h257c19 0 30 -9 30 -28c0 -18 -1 -30 -5 -47l-146 -613c-2 -8 -7 -12 -15 -12h-63c-10 0 -14 6 -12 15l145 601h-191c-8 0 -13 5 -13 14v57z" />
    <glyph glyph-name="eight" unicode="8" horiz-adv-x="416" 
d="M304 364c44 -28 70 -72 70 -134v-73c0 -97 -72 -168 -166 -168c-95 0 -166 71 -166 168v73c0 62 26 106 70 134c-37 29 -60 74 -60 125v60c0 92 63 162 156 162s155 -70 155 -162v-60c0 -51 -23 -96 -59 -125zM140 552v-73c0 -45 28 -79 68 -79s67 34 67 79v73
c0 43 -25 76 -67 76s-68 -33 -68 -76zM286 155v82c0 51 -34 83 -78 83s-78 -32 -78 -83v-82c0 -49 34 -83 78 -83s78 34 78 83z" />
    <glyph glyph-name="nine" unicode="9" horiz-adv-x="408" 
d="M202 711c92 0 161 -71 161 -169v-381c0 -101 -66 -172 -160 -172c-92 0 -158 67 -160 168c0 9 5 14 13 14h61c8 0 14 -5 14 -14c2 -56 31 -85 72 -85c43 0 72 33 72 85v117c-21 -21 -49 -33 -86 -33c-82 0 -148 70 -148 163v138c0 98 69 169 161 169zM202 628
c-42 0 -73 -33 -73 -82v-140c0 -50 31 -83 73 -83s73 31 73 83v140c0 50 -31 82 -73 82z" />
    <glyph glyph-name="asterisk" unicode="*" horiz-adv-x="321" 
d="M98 495l-27 18c-7 5 -8 12 -3 19l41 57l-66 22c-8 3 -11 7 -9 16l10 31c3 9 9 12 17 9l67 -22v71c0 8 5 13 13 13h33c8 0 13 -5 13 -13v-71l67 22c9 3 14 0 17 -9l10 -30c3 -9 -1 -14 -9 -17l-67 -21l41 -58c6 -7 5 -14 -2 -19l-27 -19c-6 -5 -13 -5 -18 3l-42 57
l-41 -57c-5 -7 -12 -8 -18 -2z" />
    <glyph glyph-name="backslash" unicode="\" horiz-adv-x="361" 
d="M77 700c7 0 12 -3 15 -11l256 -673c3 -10 -1 -16 -11 -16h-53c-7 0 -12 3 -15 11l-256 673c-3 10 1 16 11 16h53z" />
    <glyph glyph-name="periodcentered" unicode="&#xb7;" horiz-adv-x="161" 
d="M67 198c-32 0 -56 24 -56 56c0 33 24 56 56 56s57 -23 57 -56c0 -32 -25 -56 -57 -56z" />
    <glyph glyph-name="bullet" unicode="&#x2022;" horiz-adv-x="198" 
d="M98 175c-41 0 -75 32 -75 75c0 42 34 77 75 77c42 0 77 -35 77 -77c0 -43 -35 -75 -77 -75z" />
    <glyph glyph-name="colon" unicode=":" horiz-adv-x="161" 
d="M67 334c-32 0 -56 24 -56 56c0 33 24 56 56 56s57 -23 57 -56c0 -32 -25 -56 -57 -56zM67 -10c-32 0 -56 24 -56 56c0 33 24 56 56 56s57 -23 57 -56c0 -32 -25 -56 -57 -56z" />
    <glyph glyph-name="comma" unicode="," horiz-adv-x="118" 
d="M23 77c0 9 6 13 14 13h55c9 0 14 -6 13 -15l-33 -170c-1 -8 -6 -12 -14 -12h-32c-8 0 -13 5 -13 14z" />
    <glyph glyph-name="ellipsis" unicode="&#x2026;" horiz-adv-x="502" 
d="M81 -10c-33 0 -56 24 -56 56c0 33 23 56 56 56c32 0 56 -23 56 -56c0 -32 -24 -56 -56 -56zM251 -10c-32 0 -56 24 -56 56c0 33 24 56 56 56s56 -23 56 -56c0 -32 -24 -56 -56 -56zM422 -10c-33 0 -56 24 -56 56c0 33 23 56 56 56c32 0 56 -23 56 -56
c0 -32 -24 -56 -56 -56z" />
    <glyph glyph-name="exclam" unicode="!" horiz-adv-x="230" 
d="M85 150c-9 0 -14 5 -14 14v523c0 8 5 13 14 13h60c8 0 13 -5 13 -13v-523c0 -9 -5 -14 -13 -14h-60zM115 -11c-32 0 -55 24 -55 55c0 32 23 55 55 55c31 0 55 -23 55 -55c0 -31 -24 -55 -55 -55z" />
    <glyph glyph-name="exclamdown" unicode="&#xa1;" horiz-adv-x="220" 
d="M110 510c31 0 55 -24 55 -55c0 -32 -24 -55 -55 -55c-32 0 -55 23 -55 55c0 31 23 55 55 55zM80 349h60c8 0 13 -5 13 -14v-523c0 -8 -5 -13 -13 -13h-60c-9 0 -14 5 -14 13v523c0 9 5 14 14 14z" />
    <glyph glyph-name="numbersign" unicode="#" horiz-adv-x="589" 
d="M92 0c-10 0 -14 6 -12 15l37 164h-89c-10 0 -14 5 -12 14l9 40c2 7 7 12 15 12h92l45 196h-89c-10 0 -14 6 -13 14l10 40c2 7 7 12 15 12h92l42 181c1 7 7 12 15 12h51c9 0 13 -6 11 -15l-40 -178h121l41 181c2 7 7 12 15 12h52c10 0 13 -6 12 -15l-41 -178h90
c9 0 14 -6 12 -15l-9 -40c-2 -7 -7 -11 -15 -11h-93l-45 -196h91c9 0 14 -6 11 -15l-9 -40c-2 -7 -7 -11 -15 -11h-93l-38 -167c-2 -7 -7 -12 -15 -12h-52c-9 0 -13 6 -11 15l37 164h-121l-38 -167c-2 -7 -7 -12 -15 -12h-51zM211 245h121l45 196h-121z" />
    <glyph glyph-name="period" unicode="." horiz-adv-x="139" 
d="M69 -10c-32 0 -56 24 -56 56c0 33 24 56 56 56s57 -23 57 -56c0 -32 -25 -56 -57 -56z" />
    <glyph glyph-name="question" unicode="?" horiz-adv-x="336" 
d="M123 153c-8 0 -13 5 -13 14v44c0 176 132 191 132 325c0 55 -29 94 -78 94c-46 0 -76 -35 -79 -98c0 -8 -6 -13 -14 -13h-58c-8 0 -13 5 -13 14c5 108 71 177 162 177c98 0 166 -70 166 -170c0 -170 -132 -185 -132 -333v-40c0 -9 -5 -14 -14 -14h-59zM154 -11
c-32 0 -55 24 -55 55c0 32 23 55 55 55s55 -23 55 -55c0 -31 -23 -55 -55 -55z" />
    <glyph glyph-name="questiondown" unicode="&#xbf;" horiz-adv-x="336" 
d="M182 510c32 0 55 -24 55 -55c0 -32 -23 -55 -55 -55s-55 23 -55 55c0 31 23 55 55 55zM213 346c8 0 13 -5 13 -14v-44c0 -176 -132 -191 -132 -325c0 -55 29 -94 78 -94c46 0 76 35 79 98c0 8 6 13 14 13h58c8 0 13 -5 13 -14c-5 -108 -71 -177 -162 -177
c-98 0 -166 70 -166 170c0 170 132 185 132 333v40c0 9 5 14 14 14h59z" />
    <glyph glyph-name="quotedbl" unicode="&#x22;" horiz-adv-x="244" 
d="M25 687c0 9 6 13 14 13h55c9 0 14 -6 13 -15l-33 -170c-1 -8 -6 -12 -14 -12h-32c-8 0 -13 5 -13 14zM139 687c0 9 6 13 14 13h55c9 0 14 -6 13 -15l-33 -170c-1 -8 -6 -12 -14 -12h-32c-8 0 -13 5 -13 14z" />
    <glyph glyph-name="quotesingle" unicode="'" horiz-adv-x="125" 
d="M26 687c0 9 6 13 14 13h55c10 0 14 -6 13 -15l-33 -170c-1 -8 -6 -12 -14 -12h-32c-8 0 -13 5 -13 13z" />
    <glyph glyph-name="semicolon" unicode=";" horiz-adv-x="152" 
d="M79 335c-32 0 -56 24 -56 56c0 33 24 56 56 56s57 -23 57 -56c0 -32 -25 -56 -57 -56zM40 77c0 9 6 13 14 13h55c9 0 14 -6 13 -15l-33 -170c-1 -8 -6 -12 -14 -12h-32c-8 0 -13 5 -13 14z" />
    <glyph glyph-name="slash" unicode="/" horiz-adv-x="361" 
d="M269 690c3 7 7 10 14 10h56c9 0 13 -6 10 -14l-257 -677c-3 -7 -7 -9 -14 -9h-56c-9 0 -13 6 -10 14z" />
    <glyph glyph-name="underscore" unicode="_" horiz-adv-x="367" 
d="M8 -24c0 9 5 14 14 14h323c8 0 13 -5 13 -14v-55c0 -8 -5 -13 -13 -13h-323c-9 0 -14 5 -14 13v55z" />
    <glyph glyph-name="braceleft" unicode="{" horiz-adv-x="284" 
d="M182 489c0 -60 -25 -106 -65 -136c40 -31 65 -77 65 -137v-164c0 -52 31 -86 74 -89c9 -1 13 -6 13 -15v-55c0 -8 -5 -13 -14 -13c-94 4 -160 73 -160 179v164c0 50 -29 78 -66 86c-8 1 -12 6 -12 14v59c0 8 4 14 12 14c37 8 66 36 66 86v159c0 106 66 175 160 179
c9 0 14 -5 14 -13v-55c0 -9 -4 -14 -13 -15c-43 -3 -74 -37 -74 -89v-159z" />
    <glyph glyph-name="braceright" unicode="}" horiz-adv-x="284" 
d="M255 396c8 0 12 -6 12 -14v-59c0 -8 -4 -13 -12 -14c-37 -8 -66 -36 -66 -86v-164c0 -106 -66 -175 -160 -179c-9 0 -14 5 -14 13v55c0 9 4 14 13 15c43 3 74 37 74 89v164c0 60 25 106 65 137c-40 30 -65 76 -65 136v159c0 52 -31 86 -74 89c-9 1 -13 6 -13 15v55
c0 8 5 13 14 13c94 -4 160 -73 160 -179v-159c0 -50 29 -78 66 -86z" />
    <glyph glyph-name="bracketleft" unicode="[" horiz-adv-x="261" 
d="M233 752c0 -9 -5 -14 -14 -14h-76v-776h76c9 0 14 -5 14 -14v-55c0 -8 -5 -13 -14 -13h-123c-26 0 -41 14 -41 40v860c0 26 15 40 41 40h123c9 0 14 -5 14 -13v-55z" />
    <glyph glyph-name="bracketright" unicode="]" horiz-adv-x="258" 
d="M25 752v55c0 8 5 13 14 13h123c26 0 41 -14 41 -40v-860c0 -26 -15 -40 -41 -40h-123c-9 0 -14 5 -14 13v55c0 9 5 14 14 14h76v776h-76c-9 0 -14 5 -14 14z" />
    <glyph glyph-name="parenleft" unicode="(" horiz-adv-x="246" 
d="M215 -121c-97 3 -161 73 -161 180v581c0 107 64 177 161 180c8 0 13 -5 13 -13v-55c0 -9 -4 -14 -13 -15c-44 -2 -74 -37 -74 -90v-595c0 -53 30 -88 74 -91c9 -1 13 -6 13 -14v-55c0 -8 -5 -13 -13 -13z" />
    <glyph glyph-name="parenright" unicode=")" horiz-adv-x="247" 
d="M32 -121c-8 0 -13 5 -13 13v55c0 8 4 13 13 14c44 3 74 38 74 91v595c0 53 -30 88 -74 90c-9 1 -13 6 -13 15v55c0 8 5 13 13 13c97 -3 161 -73 161 -180v-581c0 -107 -64 -177 -161 -180z" />
    <glyph glyph-name="emdash" unicode="&#x2014;" horiz-adv-x="517" 
d="M17 282c0 8 5 14 13 14h457c8 0 14 -6 14 -14v-50c0 -8 -6 -13 -14 -13h-457c-8 0 -13 5 -13 13v50z" />
    <glyph glyph-name="endash" unicode="&#x2013;" horiz-adv-x="386" 
d="M28 219c-8 0 -13 5 -13 13v50c0 8 5 14 13 14h330c9 0 14 -6 14 -14v-50c0 -8 -5 -13 -14 -13h-330z" />
    <glyph glyph-name="hyphen" unicode="-" horiz-adv-x="279" 
d="M28 219c-8 0 -13 5 -13 13v50c0 8 5 14 13 14h223c9 0 14 -6 14 -14v-50c0 -8 -5 -13 -14 -13h-223z" />
    <glyph glyph-name="emdash.case" horiz-adv-x="513" 
d="M15 382c0 8 5 14 13 14h457c8 0 14 -6 14 -14v-50c0 -8 -6 -13 -14 -13h-457c-8 0 -13 5 -13 13v50z" />
    <glyph glyph-name="endash.case" horiz-adv-x="386" 
d="M28 319c-8 0 -13 5 -13 13v50c0 8 5 14 13 14h330c9 0 14 -6 14 -14v-50c0 -8 -5 -13 -14 -13h-330z" />
    <glyph glyph-name="hyphen.case" horiz-adv-x="279" 
d="M28 319c-8 0 -13 5 -13 13v50c0 8 5 14 13 14h223c9 0 14 -6 14 -14v-50c0 -8 -5 -13 -14 -13h-223z" />
    <glyph glyph-name="guillemotleft" unicode="&#xab;" horiz-adv-x="429" 
d="M149 83c-6 0 -12 2 -16 8l-103 138c-14 19 -14 37 0 56l103 138c4 6 10 8 16 8h60c11 0 15 -8 8 -16l-120 -158l120 -158c7 -8 3 -16 -8 -16h-60zM324 83c-6 0 -12 2 -16 8l-103 138c-14 19 -14 37 0 56l103 138c4 6 10 8 16 8h60c11 0 15 -8 8 -16l-120 -158l120 -158
c7 -8 3 -16 -8 -16h-60z" />
    <glyph glyph-name="guillemotright" unicode="&#xbb;" horiz-adv-x="430" 
d="M105 83h-60c-11 0 -15 8 -8 16l120 158l-120 158c-7 8 -3 16 8 16h60c6 0 12 -2 16 -8l103 -138c14 -19 14 -37 0 -56l-103 -138c-4 -6 -10 -8 -16 -8zM280 83h-60c-11 0 -15 8 -8 16l120 158l-120 158c-7 8 -3 16 8 16h60c6 0 12 -2 16 -8l103 -138c14 -19 14 -37 0 -56
l-103 -138c-4 -6 -10 -8 -16 -8z" />
    <glyph glyph-name="guilsinglleft" unicode="&#x2039;" horiz-adv-x="255" 
d="M153 83c-6 0 -12 2 -16 8l-103 138c-14 19 -14 37 0 56l103 138c4 6 10 8 16 8h60c11 0 15 -8 8 -16l-120 -158l120 -158c7 -8 3 -16 -8 -16h-60z" />
    <glyph glyph-name="guilsinglright" unicode="&#x203a;" horiz-adv-x="255" 
d="M102 83h-60c-11 0 -15 8 -8 16l120 158l-120 158c-7 8 -3 16 8 16h60c6 0 12 -2 16 -8l103 -138c14 -19 14 -37 0 -56l-103 -138c-4 -6 -10 -8 -16 -8z" />
    <glyph glyph-name="quotedblbase" unicode="&#x201e;" horiz-adv-x="126" 
d="M23 77c0 9 6 13 14 13h55c9 0 14 -6 13 -15l-33 -170c-1 -8 -6 -12 -14 -12h-32c-8 0 -13 5 -13 14z" />
    <glyph glyph-name="quotedblleft" unicode="&#x201c;" horiz-adv-x="228" 
d="M92 516c0 -9 -6 -13 -14 -13h-55c-9 0 -14 6 -13 15l33 170c1 8 6 12 14 12h32c8 0 13 -5 13 -14zM206 516c0 -9 -6 -13 -14 -13h-55c-9 0 -14 6 -13 15l33 170c1 8 6 12 14 12h32c8 0 13 -5 13 -14z" />
    <glyph glyph-name="quotedblright" unicode="&#x201d;" horiz-adv-x="234" 
d="M24 687c0 9 6 13 14 13h55c9 0 14 -6 13 -15l-33 -170c-1 -8 -6 -12 -14 -12h-32c-8 0 -13 5 -13 14zM138 687c0 9 6 13 14 13h55c9 0 14 -6 13 -15l-33 -170c-1 -8 -6 -12 -14 -12h-32c-8 0 -13 5 -13 14z" />
    <glyph glyph-name="quoteleft" unicode="&#x2018;" horiz-adv-x="115" 
d="M94 516c0 -9 -6 -13 -14 -13h-55c-9 0 -14 6 -13 15l33 170c1 8 6 12 14 12h32c8 0 13 -5 13 -14z" />
    <glyph glyph-name="quoteright" unicode="&#x2019;" horiz-adv-x="115" 
d="M22 687c0 9 6 13 14 13h55c9 0 14 -6 13 -15l-33 -170c-1 -8 -6 -12 -14 -12h-32c-8 0 -13 5 -13 14z" />
    <glyph glyph-name="quotesinglbase" unicode="&#x201a;" horiz-adv-x="125" 
d="M23 77c0 9 6 13 14 13h55c9 0 14 -6 13 -15l-33 -170c-1 -8 -6 -12 -14 -12h-32c-8 0 -13 5 -13 14z" />
    <glyph glyph-name="guillemotleft.case" horiz-adv-x="437" 
d="M149 143c-6 0 -12 2 -16 8l-103 138c-14 19 -14 37 0 56l103 138c4 6 10 8 16 8h60c11 0 15 -8 8 -16l-120 -158l120 -158c7 -8 3 -16 -8 -16h-60zM324 143c-6 0 -12 2 -16 8l-103 138c-14 19 -14 37 0 56l103 138c4 6 10 8 16 8h60c11 0 15 -8 8 -16l-120 -158l120 -158
c7 -8 3 -16 -8 -16h-60z" />
    <glyph glyph-name="guillemotright.case" horiz-adv-x="437" 
d="M105 143h-60c-11 0 -15 8 -8 16l120 158l-120 158c-7 8 -3 16 8 16h60c6 0 12 -2 16 -8l103 -138c14 -19 14 -37 0 -56l-103 -138c-4 -6 -10 -8 -16 -8zM280 143h-60c-11 0 -15 8 -8 16l120 158l-120 158c-7 8 -3 16 8 16h60c6 0 12 -2 16 -8l103 -138
c14 -19 14 -37 0 -56l-103 -138c-4 -6 -10 -8 -16 -8z" />
    <glyph glyph-name="guilsinglleft.case" horiz-adv-x="252" 
d="M152 143c-6 0 -12 2 -16 8l-103 138c-14 19 -14 37 0 56l103 138c4 6 10 8 16 8h60c11 0 15 -8 8 -16l-120 -158l120 -158c7 -8 3 -16 -8 -16h-60z" />
    <glyph glyph-name="guilsinglright.case" horiz-adv-x="264" 
d="M102 143h-60c-11 0 -15 8 -8 16l120 158l-120 158c-7 8 -3 16 8 16h60c6 0 12 -2 16 -8l103 -138c14 -19 14 -37 0 -56l-103 -138c-4 -6 -10 -8 -16 -8z" />
    <glyph glyph-name="space" unicode=" " horiz-adv-x="218" 
 />
    <glyph glyph-name="cent" unicode="&#xa2;" horiz-adv-x="385" 
d="M177 -85c-8 0 -13 5 -13 13v65c-76 14 -125 76 -125 159v196c0 83 49 146 125 159v65c0 8 5 13 13 13h39c9 0 14 -5 14 -13v-64c73 -13 121 -70 126 -150c0 -8 -5 -13 -13 -13h-60c-8 0 -12 4 -13 13c-4 45 -31 71 -73 71c-45 0 -72 -31 -72 -78v-202
c0 -47 27 -78 72 -78c42 0 69 26 73 71c1 9 5 13 13 13h60c8 0 13 -5 13 -14c-5 -79 -54 -137 -126 -149v-64c0 -8 -5 -13 -14 -13h-39z" />
    <glyph glyph-name="currency" unicode="&#xa4;" horiz-adv-x="452" 
d="M226 93c-42 0 -78 13 -105 35l-36 -44c-6 -6 -12 -7 -19 -2l-31 27c-7 6 -8 12 -2 19l46 55c-11 22 -16 48 -16 75v88c0 28 5 53 16 76l-46 54c-6 7 -5 13 2 19l31 27c7 6 13 5 19 -2l36 -43c27 21 63 34 105 34s78 -13 105 -34l36 43c6 7 13 8 19 2l31 -27
c7 -6 8 -12 2 -19l-46 -54c11 -22 16 -48 16 -76v-88c0 -28 -5 -54 -15 -76l45 -54c6 -7 5 -13 -2 -19l-31 -27c-6 -5 -13 -4 -19 2l-36 44c-27 -22 -63 -35 -105 -35zM226 174c48 0 77 31 77 81v94c0 50 -29 82 -77 82s-77 -32 -77 -82v-94c0 -50 29 -81 77 -81z" />
    <glyph glyph-name="dollar" unicode="$" horiz-adv-x="408" 
d="M378 157c0 -92 -55 -153 -141 -165v-64c0 -8 -5 -13 -13 -13h-45c-8 0 -13 5 -13 13v66c-81 15 -131 79 -136 173c0 9 5 14 14 14h63c8 0 13 -5 14 -13c3 -60 34 -94 85 -94s81 31 81 83c0 155 -251 202 -251 394c0 86 51 143 130 157v64c0 8 5 13 13 13h45
c8 0 13 -5 13 -13v-65c77 -13 127 -73 131 -171c1 -9 -4 -14 -13 -14h-63c-8 0 -13 5 -13 14c-3 62 -30 91 -77 91s-76 -28 -76 -76c0 -143 252 -190 252 -394z" />
    <glyph glyph-name="Euro" unicode="&#x20ac;" horiz-adv-x="476" 
d="M435 201c8 0 13 -5 13 -14c-4 -121 -71 -198 -173 -198s-171 72 -171 180v96h-62c-9 0 -14 6 -14 14v30c0 8 5 13 14 13h62v58h-62c-9 0 -14 5 -14 14v30c0 8 5 13 14 13h62v94c0 108 69 180 171 180c98 0 165 -75 168 -192c0 -8 -4 -13 -13 -13h-64c-8 0 -13 4 -13 13
c-2 70 -33 107 -79 107c-50 0 -79 -34 -79 -90v-99h163c9 0 14 -5 14 -13v-30c0 -9 -5 -14 -14 -14h-163v-58h163c9 0 14 -5 14 -13v-30c0 -8 -5 -14 -14 -14h-163v-101c0 -56 29 -90 79 -90c51 0 82 41 84 114c0 9 5 13 13 13h64z" />
    <glyph glyph-name="sterling" unicode="&#xa3;" horiz-adv-x="460" 
d="M423 84c8 0 13 -5 13 -13v-57c0 -9 -5 -14 -13 -14h-391c-8 0 -14 5 -14 14v51c0 12 8 19 20 21c30 4 44 27 44 74v150h-48c-9 0 -14 5 -14 13v51c0 9 5 14 14 14h48v143c0 104 68 180 170 180c99 0 166 -74 171 -178c0 -9 -5 -14 -13 -14h-64c-8 0 -13 4 -14 13
c-4 57 -34 94 -82 94s-79 -38 -79 -90v-148h164c8 0 13 -5 13 -14v-51c0 -8 -5 -13 -13 -13h-164v-151c0 -31 -7 -56 -18 -75h270z" />
    <glyph glyph-name="yen" unicode="&#xa5;" horiz-adv-x="514" 
d="M457 227h-155v-59h155c9 0 14 -5 14 -13v-43c0 -8 -5 -13 -14 -13h-155v-85c0 -9 -5 -14 -13 -14h-63c-9 0 -14 5 -14 14v85h-155c-9 0 -14 5 -14 13v43c0 8 5 13 14 13h155v59h-155c-9 0 -14 5 -14 13v43c0 8 5 14 14 14h65c-21 27 -34 61 -34 97v293c0 8 5 13 14 13h63
c8 0 13 -5 13 -13v-297c0 -46 35 -80 79 -80c45 0 79 34 79 80v297c0 8 5 13 14 13h63c8 0 13 -5 13 -13v-293c0 -36 -14 -70 -35 -97h66c9 0 14 -6 14 -14v-43c0 -8 -5 -13 -14 -13z" />
    <glyph glyph-name="approxequal" unicode="&#x2248;" horiz-adv-x="467" 
d="M380 479c6 7 12 8 18 0l26 -41c4 -6 5 -13 0 -19c-29 -38 -62 -53 -98 -53c-61 0 -130 46 -178 46c-26 0 -48 -15 -61 -32c-7 -8 -13 -8 -18 0l-26 42c-4 7 -4 13 1 19c29 37 61 51 97 51c61 0 130 -46 178 -46c26 0 48 16 61 33zM380 318c6 8 12 8 18 0l26 -41
c4 -6 5 -12 0 -19c-29 -38 -62 -53 -98 -53c-61 0 -130 46 -178 46c-26 0 -48 -15 -61 -32c-7 -8 -13 -8 -18 0l-26 43c-4 6 -4 12 1 19c29 36 61 51 97 51c61 0 130 -46 178 -46c26 0 48 15 61 32z" />
    <glyph glyph-name="asciitilde" unicode="~" horiz-adv-x="441" 
d="M367 411c6 8 12 8 17 0l27 -41c4 -5 5 -12 -1 -18c-29 -38 -61 -53 -98 -53c-61 0 -130 46 -177 46c-27 0 -48 -16 -62 -33c-6 -7 -12 -7 -18 0l-25 43c-5 6 -5 12 1 19c29 37 61 51 97 51c61 0 130 -46 177 -46c27 0 48 15 62 32z" />
    <glyph glyph-name="divide" unicode="&#xf7;" horiz-adv-x="467" 
d="M234 452c-32 0 -56 24 -56 56s24 56 56 56s56 -24 56 -56s-24 -56 -56 -56zM57 319c-9 0 -14 5 -14 14v51c0 9 5 14 14 14h354c8 0 13 -5 13 -14v-51c0 -9 -5 -14 -13 -14h-354zM234 146c-32 0 -56 24 -56 56c0 33 24 57 56 57s56 -24 56 -57c0 -32 -24 -56 -56 -56z" />
    <glyph glyph-name="emptyset" unicode="&#x2205;" horiz-adv-x="791" 
d="M737 745c10 0 18 -7 12 -15l-98 -121c60 -63 94 -152 94 -259c0 -217 -141 -360 -353 -360c-76 0 -143 18 -198 52l-61 -76c-5 -6 -10 -11 -18 -11h-61c-10 0 -18 7 -12 15l95 118c-62 63 -98 153 -98 262c0 217 141 360 353 360c79 0 147 -19 202 -55l64 79
c5 6 10 11 18 11h61zM115 350c0 -83 26 -152 71 -202l361 448c-43 26 -95 41 -155 41c-166 0 -277 -115 -277 -287zM669 350c0 80 -24 148 -67 198l-360 -446c42 -25 93 -39 150 -39c167 0 277 115 277 287z" />
    <glyph glyph-name="equal" unicode="=" horiz-adv-x="418" 
d="M32 386c-9 0 -14 5 -14 13v52c0 9 5 14 14 14h354c8 0 13 -5 13 -14v-52c0 -8 -5 -13 -13 -13h-354zM32 224c-9 0 -14 5 -14 13v52c0 9 5 14 14 14h354c8 0 13 -5 13 -14v-52c0 -8 -5 -13 -13 -13h-354z" />
    <glyph glyph-name="greater" unicode="&#x3e;" horiz-adv-x="334" 
d="M300 405c4 -2 7 -6 7 -11v-72c0 -4 -3 -9 -7 -11l-250 -132c-11 -6 -23 2 -23 15v52c0 4 2 9 6 11l197 101l-196 101c-4 2 -7 7 -7 11v52c0 13 12 21 23 15z" />
    <glyph glyph-name="greaterequal" unicode="&#x2265;" horiz-adv-x="432" 
d="M324 434c4 -2 6 -6 6 -11v-68c0 -5 -2 -10 -6 -11l-250 -122c-12 -6 -24 2 -24 15v50c0 4 2 9 7 11l198 91l-198 91c-4 1 -7 7 -7 11v50c0 13 12 21 24 15zM316 187c9 0 14 -5 14 -14v-50c0 -8 -5 -13 -14 -13h-253c-8 0 -13 5 -13 13v50c0 9 5 14 13 14h253z" />
    <glyph glyph-name="infinity" unicode="&#x221e;" horiz-adv-x="612" 
d="M429 406c81 0 143 -60 143 -155c0 -92 -60 -153 -141 -153c-64 0 -100 34 -125 77c-25 -43 -61 -77 -125 -77c-81 0 -142 61 -142 153c0 95 63 155 144 155c61 0 97 -30 123 -68c26 38 62 68 123 68zM187 177c40 0 57 35 75 78c-17 41 -36 73 -75 73
c-36 0 -64 -25 -64 -76c0 -47 28 -75 64 -75zM425 177c36 0 64 28 64 75c0 51 -28 76 -64 76c-40 0 -58 -32 -75 -73c18 -43 35 -78 75 -78z" />
    <glyph glyph-name="integral" unicode="&#x222b;" horiz-adv-x="316" 
d="M294 704c8 0 13 -5 13 -14v-54c0 -8 -4 -14 -13 -14h-7c-60 -1 -87 -34 -87 -90v-558c0 -110 -60 -178 -169 -179h-9c-9 0 -14 5 -14 13v55c0 8 5 13 14 13h7c59 2 86 35 86 91v558c0 110 60 178 170 179h9z" />
    <glyph glyph-name="less" unicode="&#x3c;" horiz-adv-x="415" 
d="M371 470c0 -4 -3 -9 -7 -11l-196 -101l197 -101c4 -2 6 -7 6 -11v-52c0 -13 -12 -21 -23 -15l-250 132c-4 2 -7 7 -7 11v72c0 5 3 9 7 11l250 132c11 6 23 -2 23 -15v-52z" />
    <glyph glyph-name="lessequal" unicode="&#x2264;" horiz-adv-x="415" 
d="M344 491c0 -4 -3 -10 -7 -11l-198 -91l198 -91c5 -2 7 -7 7 -11v-50c0 -13 -12 -21 -24 -15l-250 122c-4 1 -6 6 -6 11v68c0 5 2 9 6 11l250 122c12 6 24 -2 24 -15v-50zM331 187c8 0 13 -5 13 -14v-50c0 -8 -5 -13 -13 -13h-253c-9 0 -14 5 -14 13v50c0 9 5 14 14 14
h253z" />
    <glyph glyph-name="logicalnot" unicode="&#xac;" horiz-adv-x="467" 
d="M411 399c8 0 13 -5 13 -14v-134c0 -8 -5 -13 -13 -13h-50c-9 0 -14 5 -14 13v69h-290c-9 0 -14 5 -14 14v51c0 9 5 14 14 14h354z" />
    <glyph glyph-name="minus" unicode="&#x2212;" horiz-adv-x="467" 
d="M57 320c-9 0 -14 5 -14 14v51c0 9 5 14 14 14h354c8 0 13 -5 13 -14v-51c0 -9 -5 -14 -13 -14h-354z" />
    <glyph glyph-name="multiply" unicode="&#xd7;" horiz-adv-x="467" 
d="M85 170l-36 37c-6 6 -6 13 0 20l128 128l-128 128c-6 7 -6 14 0 20l36 37c7 6 13 6 20 0l129 -129l128 129c7 6 13 6 20 0l36 -37c6 -6 6 -13 0 -20l-128 -128l128 -128c6 -7 6 -14 0 -20l-36 -37c-7 -6 -13 -6 -20 0l-128 129l-129 -129c-7 -6 -13 -6 -20 0z" />
    <glyph glyph-name="notequal" unicode="&#x2260;" horiz-adv-x="467" 
d="M411 386h-116l-41 -83h157c8 0 13 -5 13 -14v-52c0 -8 -5 -13 -13 -13h-196l-36 -72c-3 -7 -9 -10 -16 -10h-51c-10 0 -16 7 -11 16l33 66h-77c-9 0 -14 5 -14 13v52c0 9 5 14 14 14h116l41 83h-157c-9 0 -14 5 -14 13v52c0 9 5 14 14 14h197l35 71c2 7 9 10 16 10h51
c10 0 15 -6 11 -16l-32 -65h76c8 0 13 -5 13 -14v-52c0 -8 -5 -13 -13 -13z" />
    <glyph glyph-name="partialdiff" unicode="&#x2202;" horiz-adv-x="405" 
d="M144 710c132 0 213 -87 213 -216v-340c0 -97 -62 -165 -159 -165c-96 0 -159 68 -159 165v191c0 95 59 162 150 162c35 0 63 -14 83 -37v30c0 76 -49 132 -129 132h-24c-8 0 -13 5 -13 14v51c0 8 5 13 13 13h25zM272 151v197c0 46 -28 78 -74 78s-73 -32 -73 -78v-197
c0 -49 27 -80 73 -80c47 0 74 31 74 80z" />
    <glyph glyph-name="percent" unicode="%" horiz-adv-x="578" 
d="M112 391c-53 0 -91 38 -91 88v141c0 51 38 90 91 90c51 0 89 -39 89 -90v-141c0 -50 -38 -88 -89 -88zM34 -4c-10 0 -17 8 -12 15l465 682c5 6 9 11 16 11h41c10 0 18 -8 12 -15l-465 -682c-4 -6 -9 -11 -16 -11h-41zM112 445c18 0 30 14 30 34v142c0 21 -12 35 -30 35
c-19 0 -31 -14 -31 -35v-142c0 -20 12 -34 31 -34zM468 -9c-53 0 -91 38 -91 88v141c0 51 38 90 91 90c51 0 89 -39 89 -90v-141c0 -50 -38 -88 -89 -88zM468 45c17 0 30 14 30 34v142c0 21 -13 35 -30 35c-19 0 -31 -14 -31 -35v-142c0 -20 12 -34 31 -34z" />
    <glyph glyph-name="perthousand" unicode="&#x2030;" horiz-adv-x="834" 
d="M116 391c-53 0 -91 38 -91 88v141c0 51 38 90 91 90c51 0 89 -39 89 -90v-141c0 -50 -38 -88 -89 -88zM34 -4c-9 0 -17 8 -12 15l501 682c5 6 9 11 17 11h40c10 0 18 -8 12 -15l-500 -682c-5 -6 -9 -11 -17 -11h-41zM116 445c18 0 30 14 30 34v142c0 21 -12 35 -30 35
c-19 0 -31 -14 -31 -35v-142c0 -20 12 -34 31 -34zM500 -9c-52 0 -90 38 -90 88v141c0 51 38 90 90 90s90 -39 90 -90v-141c0 -50 -38 -88 -90 -88zM730 -9c-52 0 -90 38 -90 88v141c0 51 38 90 90 90s90 -39 90 -90v-141c0 -50 -38 -88 -90 -88zM500 45c18 0 30 14 30 34
v142c0 21 -12 35 -30 35s-31 -14 -31 -35v-142c0 -20 13 -34 31 -34zM730 45c18 0 30 14 30 34v142c0 21 -12 35 -30 35s-31 -14 -31 -35v-142c0 -20 13 -34 31 -34z" />
    <glyph glyph-name="plus" unicode="+" horiz-adv-x="467" 
d="M411 399c8 0 13 -5 13 -14v-51c0 -9 -5 -14 -13 -14h-138v-141c0 -8 -5 -13 -13 -13h-52c-9 0 -14 5 -14 13v141h-137c-9 0 -14 5 -14 14v51c0 9 5 14 14 14h137v141c0 9 5 13 14 14l51 -1c9 1 14 -4 14 -13v-141h138z" />
    <glyph glyph-name="plusminus" unicode="&#xb1;" horiz-adv-x="467" 
d="M411 436c8 0 13 -5 13 -14v-52c0 -8 -5 -13 -13 -13h-138v-132c0 -8 -5 -13 -13 -14h-52c-9 0 -14 5 -14 14v132h-137c-9 0 -14 5 -14 13v52c0 9 5 14 14 14h137v132c0 8 5 13 14 13h51c9 0 14 -5 14 -14v-131h138zM411 173c8 0 13 -5 13 -13v-52c0 -9 -5 -14 -13 -14
h-354c-9 0 -14 5 -14 14v52c0 8 5 13 14 13h354z" />
    <glyph glyph-name="product" unicode="&#x220f;" horiz-adv-x="467" 
d="M74 -100c-9 0 -14 5 -14 13v734c0 34 19 53 54 53h240c34 0 53 -19 53 -53v-734c0 -8 -5 -13 -13 -13h-65c-8 0 -13 5 -13 13v703h-164v-703c0 -8 -5 -13 -14 -13h-64z" />
    <glyph glyph-name="radical" unicode="&#x221a;" horiz-adv-x="474" 
d="M461 800c10 0 14 -6 12 -15l-152 -753c-5 -24 -19 -36 -43 -36h-49c-24 0 -38 12 -43 36l-81 390h-79c-8 0 -13 5 -13 14v51c0 8 5 13 13 13h115c25 0 40 -12 44 -37l69 -376l130 701c1 8 7 12 15 12h62z" />
    <glyph glyph-name="summation" unicode="&#x2211;" horiz-adv-x="340" 
d="M54 -4c-19 0 -30 9 -30 28c0 18 -2 32 6 47l140 279l-140 279c-8 15 -6 29 -6 47c0 19 11 28 30 28h258c8 0 13 -5 13 -14v-57c0 -8 -5 -13 -13 -13h-193l121 -236c3 -6 4 -12 4 -17v-34c0 -5 -1 -11 -4 -17l-121 -236h193c8 0 13 -5 13 -13v-57c0 -9 -5 -14 -13 -14
h-258z" />
    <glyph glyph-name="lozenge" unicode="&#x25ca;" horiz-adv-x="453" 
d="M207 -4c-24 0 -36 13 -45 35l-118 293c-7 20 -7 33 0 53l118 292c9 22 21 35 45 35h39c24 0 37 -12 46 -35l117 -292c7 -20 7 -33 0 -53l-117 -293c-9 -22 -22 -35 -46 -35h-39zM227 82l101 268l-101 268l-102 -268z" />
    <glyph glyph-name="bar" unicode="|" horiz-adv-x="198" 
d="M55 787c0 8 5 13 14 13h61c8 0 13 -5 13 -13v-843c0 -9 -5 -14 -13 -14h-61c-9 0 -14 5 -14 14v843z" />
    <glyph glyph-name="brokenbar" unicode="&#xa6;" horiz-adv-x="178" 
d="M59 499c-9 0 -14 5 -14 13v275c0 8 5 13 14 13h61c8 0 13 -5 13 -13v-275c0 -8 -5 -13 -13 -13h-61zM59 -70c-9 0 -14 5 -14 14v274c0 8 5 14 14 14h61c8 0 13 -6 13 -14v-274c0 -9 -5 -14 -13 -14h-61z" />
    <glyph glyph-name="at" unicode="@" horiz-adv-x="637" 
d="M269 -100c-144 0 -230 90 -230 232v174c0 140 86 233 230 233h42c92 0 147 -57 147 -143v-205c0 -71 -53 -121 -138 -121c-91 0 -147 52 -147 141c1 92 55 146 139 146h70v39c0 44 -28 73 -71 73h-40c-104 0 -158 -62 -158 -164v-173c0 -104 54 -161 158 -161h96
c101 0 157 58 157 161v341c0 102 -56 160 -155 160h-192c-8 0 -13 5 -13 14v43c0 9 5 14 13 14h192c141 0 229 -90 229 -231v-341c0 -142 -88 -232 -229 -232h-100zM320 140c38 0 62 24 62 59v82h-65c-40 0 -66 -25 -67 -70c0 -44 27 -71 70 -71z" />
    <glyph glyph-name="ampersand" unicode="&#x26;" horiz-adv-x="452" 
d="M209 -4c-96 0 -166 70 -166 163v76c0 56 26 102 64 126c-40 29 -64 78 -64 129v37c0 102 58 184 166 184c109 0 166 -82 169 -192c0 -8 -5 -13 -13 -13h-61c-8 0 -14 4 -14 13c-2 61 -22 109 -82 109c-58 0 -77 -44 -77 -95v-55c0 -44 33 -79 79 -79h198
c9 0 14 -5 14 -13v-52c0 -8 -5 -13 -14 -13h-38v-284c0 -26 -15 -41 -41 -41h-120zM209 80h74v241h-73c-45 0 -78 -30 -78 -80v-80c0 -48 31 -81 77 -81z" />
    <glyph glyph-name="paragraph" unicode="&#xb6;" horiz-adv-x="493" 
d="M393 702c26 0 40 -15 40 -41v-747c0 -8 -5 -13 -13 -13h-61c-8 0 -13 5 -13 13v706h-85v-706c0 -8 -5 -13 -13 -13h-61c-8 0 -13 5 -13 13v471c-96 0 -162 60 -162 158s66 159 162 159h219z" />
    <glyph glyph-name="copyright" unicode="&#xa9;" horiz-adv-x="623" 
d="M251 -4c-122 0 -204 81 -204 200v305c0 121 82 203 204 203h121c122 0 203 -82 203 -203v-305c0 -119 -81 -200 -203 -200h-121zM251 49h121c93 0 147 55 147 147v305c0 94 -54 150 -147 150h-121c-93 0 -147 -56 -147 -150v-305c0 -92 54 -147 147 -147zM311 135
c-77 0 -129 53 -129 133v163c0 80 52 133 128 133c73 0 124 -50 128 -126c1 -7 -3 -11 -10 -11h-49c-6 0 -10 4 -11 11c-4 38 -26 59 -58 59c-37 0 -58 -24 -58 -63v-170c0 -38 21 -61 58 -61c34 0 55 21 60 60c0 7 4 11 10 11h50c7 0 11 -5 10 -12
c-4 -77 -56 -127 -129 -127z" />
    <glyph glyph-name="registered" unicode="&#xae;" horiz-adv-x="430" 
d="M155 261c-64 0 -113 49 -113 113v217c0 64 49 113 113 113h120c64 0 112 -49 112 -113v-217c0 -64 -48 -113 -112 -113h-120zM155 292h120c45 0 79 35 79 81v218c0 47 -34 81 -79 81h-120c-46 0 -80 -34 -80 -81v-218c0 -46 34 -81 80 -81zM146 343c-3 0 -6 2 -6 5v209
c0 45 30 76 74 76s74 -31 74 -76v-31c0 -32 -15 -55 -37 -67l44 -110c1 -4 -2 -6 -5 -6h-32c-3 0 -5 1 -6 4l-38 103h-32v-102c0 -3 -2 -5 -6 -5h-30zM182 487h31c21 0 34 15 34 37v34c0 22 -13 36 -32 36c-21 0 -33 -14 -33 -36v-71z" />
    <glyph glyph-name="section" unicode="&#xa7;" horiz-adv-x="389" 
d="M291 239c35 -23 60 -59 60 -113c0 -77 -61 -135 -152 -135c-102 0 -159 70 -162 145c0 7 3 14 13 14h60c7 0 13 -3 14 -12c5 -38 25 -65 74 -65c43 0 65 23 65 54c0 103 -233 73 -233 239c0 44 25 80 66 101c-35 23 -60 57 -60 108c0 77 62 134 153 134
c103 0 149 -68 152 -132c0 -7 -3 -14 -13 -14h-60c-9 0 -13 5 -14 13c-4 31 -26 52 -65 52c-37 0 -66 -20 -66 -54c0 -94 236 -75 236 -224c0 -53 -25 -88 -68 -111zM211 282c33 5 61 32 61 67c0 37 -47 62 -93 74c-40 -6 -62 -32 -62 -62c0 -41 46 -67 94 -79z" />
    <glyph glyph-name="trademark" unicode="&#x2122;" horiz-adv-x="498" 
d="M392 704c51 0 83 -35 83 -92v-179c0 -4 -2 -7 -6 -7h-37c-4 0 -6 3 -6 7v179c0 30 -11 45 -34 45c-21 0 -32 -17 -32 -45v-179c0 -4 -3 -7 -6 -7h-36c-4 0 -7 3 -7 7v179c0 28 -11 45 -32 45c-22 0 -34 -15 -34 -45v-179c0 -4 -3 -7 -6 -7h-37c-5 0 -6 3 -6 7v179
c0 57 31 92 83 92c23 0 43 -12 57 -32c13 20 33 32 56 32zM168 700c3 0 6 -2 6 -6v-32c0 -4 -3 -7 -6 -7h-49v-223c0 -3 -2 -6 -6 -6h-36c-4 0 -7 3 -7 6v223h-47c-3 0 -6 3 -6 7v32c0 4 3 6 6 6h145z" />
    <glyph glyph-name="degree" unicode="&#xb0;" horiz-adv-x="296" 
d="M19 578c0 79 52 133 129 133s129 -54 129 -133c0 -81 -52 -134 -129 -134s-129 53 -129 134zM83 578c0 -44 26 -73 65 -73s65 29 65 73c0 43 -26 72 -65 72s-65 -29 -65 -72z" />
    <glyph glyph-name="asciicircum" unicode="^" horiz-adv-x="319" 
d="M314 485c5 -10 1 -16 -9 -16h-58c-7 0 -12 2 -16 9l-68 143l-70 -143c-3 -7 -9 -9 -16 -9h-57c-10 0 -14 6 -10 16l105 206c3 6 9 9 17 9h61c7 0 13 -3 16 -9z" />
    <glyph glyph-name="dagger" unicode="&#x2020;" horiz-adv-x="352" 
d="M319 514c9 0 14 -6 14 -14v-51c0 -9 -5 -14 -14 -14h-102v-522c0 -8 -5 -13 -13 -13h-56c-9 0 -14 5 -14 13v522h-102c-8 0 -13 5 -13 14v51c0 8 5 14 13 14h102v173c0 8 5 13 14 13h56c8 0 13 -5 13 -13v-173h102z" />
    <glyph glyph-name="daggerdbl" unicode="&#x2021;" horiz-adv-x="358" 
d="M322 435h-102v-226h102c9 0 14 -5 14 -13v-52c0 -8 -5 -13 -14 -13h-102v-218c0 -8 -5 -13 -13 -13h-56c-9 0 -14 5 -14 13v218h-102c-8 0 -13 5 -13 13v52c0 8 5 13 13 13h102v226h-102c-8 0 -13 5 -13 14v51c0 8 5 14 13 14h102v173c0 8 5 13 14 13h56
c8 0 13 -5 13 -13v-173h102c9 0 14 -6 14 -14v-51c0 -9 -5 -14 -14 -14z" />
    <glyph glyph-name="uni0308" unicode="&#x308;" 
d="M-162 568c-27 0 -44 18 -44 44s17 44 44 44c26 0 44 -18 44 -44s-18 -44 -44 -44zM-44 568c-26 0 -44 18 -44 44s18 44 44 44s44 -18 44 -44s-18 -44 -44 -44z" />
    <glyph glyph-name="uni0307" unicode="&#x307;" 
d="M-54 563c-30 0 -51 22 -51 51c0 30 21 52 51 52c29 0 52 -22 52 -52c0 -27 -23 -51 -52 -51z" />
    <glyph glyph-name="gravecomb" unicode="&#x300;" 
d="M-132 677h56c7 0 13 -4 16 -10l57 -92c6 -9 2 -16 -9 -16h-41c-7 0 -13 2 -17 8l-70 93c-7 9 -4 17 8 17z" />
    <glyph glyph-name="acutecomb" unicode="&#x301;" 
d="M-11 677c12 0 15 -8 8 -17l-70 -93c-4 -6 -10 -8 -17 -8h-41c-11 0 -15 7 -9 16l57 92c3 6 9 10 16 10h56z" />
    <glyph glyph-name="uni030B" unicode="&#x30b;" 
d="M-126 677c11 0 14 -8 8 -17l-70 -93c-5 -6 -11 -8 -17 -8h-34c-11 0 -14 7 -9 16l57 92c4 6 9 10 16 10h49zM-15 677c11 0 14 -8 8 -17l-70 -93c-4 -6 -10 -8 -17 -8h-34c-11 0 -14 7 -9 16l57 92c4 6 9 10 16 10h49z" />
    <glyph glyph-name="uni0302" unicode="&#x302;" 
d="M-219 559c-11 0 -15 8 -9 16l65 93c4 7 10 9 16 9h59c7 0 12 -2 16 -9l65 -93c6 -8 2 -16 -9 -16h-39c-7 0 -13 2 -17 8l-45 57l-45 -57c-4 -6 -10 -8 -17 -8h-40z" />
    <glyph glyph-name="uni030C" unicode="&#x30c;" 
d="M-219 677h40c7 0 13 -2 17 -8l45 -57l45 57c4 6 10 8 17 8h39c11 0 15 -8 9 -16l-65 -93c-4 -7 -9 -9 -16 -9h-59c-6 0 -12 2 -16 9l-65 93c-6 8 -2 16 9 16z" />
    <glyph glyph-name="uni0306" unicode="&#x306;" 
d="M-118 561c-65 0 -110 39 -116 100c0 9 5 14 13 14h39c9 0 13 -4 15 -13c4 -23 21 -36 49 -36c27 0 44 13 48 36c3 9 7 13 15 13h39c8 0 13 -5 13 -14c-6 -60 -50 -100 -115 -100z" />
    <glyph glyph-name="uni030A" unicode="&#x30a;" 
d="M-158 620c0 43 30 71 75 71c44 0 74 -28 74 -71c0 -44 -30 -73 -74 -73c-45 0 -75 29 -75 73zM-110 619c0 -16 10 -27 27 -27c16 0 27 11 27 27s-11 27 -27 27c-17 0 -27 -11 -27 -27z" />
    <glyph glyph-name="tildecomb" unicode="&#x303;" 
d="M-151 602c-9 0 -14 -5 -17 -16c-3 -8 -7 -12 -15 -12h-33c-9 0 -14 5 -14 13c3 35 27 74 73 74c39 0 58 -30 77 -30c10 0 15 6 18 16c2 7 5 13 14 13h34c8 0 13 -5 13 -14c-3 -38 -30 -73 -72 -73c-38 0 -57 29 -78 29z" />
    <glyph glyph-name="uni0304" unicode="&#x304;" 
d="M-173 636c0 8 5 13 14 13h146c8 0 13 -5 13 -13v-35c0 -8 -5 -14 -13 -14h-146c-9 0 -14 6 -14 14v35z" />
    <glyph glyph-name="uni0312" unicode="&#x312;" 
d="M-90 576l-10 170c0 9 5 14 13 14h32c8 0 13 -4 14 -12l33 -170c1 -9 -4 -15 -13 -15h-55c-8 0 -14 4 -14 13z" />
    <glyph glyph-name="uni0326" unicode="&#x326;" 
d="M-92 -70c0 9 6 13 14 13h55c9 0 14 -6 13 -15l-33 -170c-1 -8 -6 -12 -14 -12h-32c-8 0 -13 5 -13 14z" />
    <glyph glyph-name="uni0327" unicode="&#x327;" 
d="M-94 -204c-48 0 -85 26 -91 73c-1 8 4 13 13 13h27c8 0 11 -4 14 -11c5 -15 19 -23 37 -23c22 0 39 12 39 33c0 18 -16 31 -38 31c-13 0 -24 -2 -35 -4c-3 -1 -7 0 -9 2l-3 3c-3 3 -5 5 -4 10l16 77h56l-8 -44h6c41 -3 74 -33 74 -75c0 -54 -40 -85 -94 -85z" />
    <glyph glyph-name="uni0328" unicode="&#x328;" 
d="M0 -189c0 -8 -4 -13 -12 -13c-8 -1 -16 -2 -24 -2c-78 0 -112 34 -112 87c0 42 21 79 53 117h81c-33 -27 -55 -64 -55 -93c0 -27 19 -40 48 -40h8c8 0 13 -4 13 -13v-43z" />
    <glyph glyph-name="uni0335" unicode="&#x335;" 
d="M-210 372v53h200v-53h-200z" />
    <glyph glyph-name="uni0336" unicode="&#x336;" 
d="M-330 425h320v-53h-320v53z" />
    <glyph glyph-name="uni0337" unicode="&#x337;" 
d="M-249 -45c-10 0 -15 6 -12 15l157 564c2 7 7 11 15 11h67c10 0 15 -6 12 -15l-157 -564c-2 -7 -7 -11 -15 -11h-67z" />
    <glyph glyph-name="uni0338" unicode="&#x338;" 
d="M-333 -45c-10 0 -15 6 -12 15l213 764c2 7 7 11 15 11h67c10 0 15 -6 12 -15l-213 -764c-2 -7 -7 -11 -15 -11h-67z" />
    <glyph glyph-name="uni0308.case" 
d="M-162 775c-27 0 -44 18 -44 44s17 44 44 44c26 0 44 -18 44 -44s-18 -44 -44 -44zM-44 775c-26 0 -44 18 -44 44s18 44 44 44s44 -18 44 -44s-18 -44 -44 -44z" />
    <glyph glyph-name="uni0307.case" 
d="M-54 770c-30 0 -51 22 -51 51c0 30 21 52 51 52c29 0 52 -22 52 -52c0 -27 -23 -51 -52 -51z" />
    <glyph glyph-name="gravecomb.case" 
d="M-16 769h-41c-7 0 -13 2 -17 8l-79 90c-8 9 -4 17 7 17h57c6 0 13 -2 17 -8l65 -91c6 -8 2 -16 -9 -16z" />
    <glyph glyph-name="acutecomb.case" 
d="M-145 769c-11 0 -15 8 -9 16l65 91c4 6 11 8 17 8h57c11 0 15 -8 7 -17l-79 -90c-4 -6 -10 -8 -17 -8h-41z" />
    <glyph glyph-name="uni030B.case" 
d="M-263 769c-11 0 -15 8 -8 16l65 91c4 6 10 8 17 8h57c11 0 14 -8 7 -17l-80 -90c-4 -6 -9 -8 -16 -8h-42zM-142 769c-11 0 -15 8 -8 16l65 91c4 6 10 8 17 8h57c11 0 14 -8 7 -17l-80 -90c-4 -6 -9 -8 -16 -8h-42z" />
    <glyph glyph-name="uni0302.case" 
d="M-8 785c6 -9 2 -16 -8 -16h-41c-7 0 -12 2 -16 7l-52 61l-52 -61c-4 -5 -10 -7 -16 -7h-41c-10 0 -14 7 -8 16l69 91c4 5 10 8 17 8h62c7 0 13 -3 17 -8z" />
    <glyph glyph-name="uni030C.case" 
d="M-10 868l-69 -91c-4 -5 -10 -8 -17 -8h-62c-7 0 -13 3 -17 8l-69 91c-6 9 -2 16 8 16h41c6 0 12 -2 16 -7l52 -61l52 61c4 5 9 7 16 7h41c10 0 14 -7 8 -16z" />
    <glyph glyph-name="uni0306.case" 
d="M-118 768c-65 0 -109 39 -115 99c-1 9 5 14 13 14h39c8 0 12 -4 15 -12c4 -23 21 -37 48 -37s45 14 49 37c2 8 6 12 14 12h39c9 0 14 -4 14 -14c-7 -60 -50 -99 -116 -99z" />
    <glyph glyph-name="uni030A.case" 
d="M-159 825c0 43 30 71 75 71c44 0 74 -28 74 -71c0 -44 -30 -73 -74 -73c-45 0 -75 29 -75 73zM-111 824c0 -16 10 -27 27 -27c16 0 27 11 27 27s-11 27 -27 27c-17 0 -27 -11 -27 -27z" />
    <glyph glyph-name="tildecomb.case" 
d="M-151 802c-9 0 -14 -5 -17 -16c-3 -8 -7 -12 -15 -12h-33c-9 0 -14 5 -14 13c3 35 27 74 73 74c39 0 58 -30 77 -30c10 0 15 6 18 16c2 7 5 13 14 13h34c8 0 13 -5 13 -14c-3 -38 -30 -73 -72 -73c-38 0 -57 29 -78 29z" />
    <glyph glyph-name="uni0304.case" 
d="M-177 837c0 8 5 13 14 13h146c8 0 13 -5 13 -13v-35c0 -8 -5 -14 -13 -14h-146c-9 0 -14 6 -14 14v35z" />
    <glyph glyph-name="uni0312.case" 
d="M-116 770l-10 170c0 9 5 14 13 14h32c8 0 13 -4 14 -12l33 -170c1 -9 -4 -15 -13 -15h-55c-8 0 -14 4 -14 13z" />
    <glyph glyph-name="uni0326.case" 
d="M-92 -70c0 9 6 13 14 13h55c9 0 14 -6 13 -15l-33 -170c-1 -8 -6 -12 -14 -12h-32c-8 0 -13 5 -13 14z" />
    <glyph glyph-name="uni0327.case" 
d="M-94 -204c-48 0 -85 26 -91 73c-1 8 4 13 13 13h27c8 0 11 -4 14 -11c5 -15 19 -23 37 -23c22 0 39 12 39 33c0 18 -16 31 -38 31c-13 0 -24 -2 -35 -4c-3 -1 -7 0 -9 2l-3 3c-3 3 -5 5 -4 10l16 77h56l-8 -44h6c41 -3 74 -33 74 -75c0 -54 -40 -85 -94 -85z" />
    <glyph glyph-name="uni0328.case" 
d="M-44 -189c0 -8 -4 -13 -12 -13c-8 -1 -16 -2 -24 -2c-78 0 -112 34 -112 87c0 42 21 79 53 117h81c-33 -27 -55 -64 -55 -93c0 -27 19 -40 48 -40h8c8 0 13 -4 13 -13v-43z" />
    <glyph glyph-name="uni0337.case" 
d="M-240 -45c-10 0 -15 6 -12 15l157 564c2 7 7 11 15 11h67c10 0 15 -6 12 -15l-157 -564c-2 -7 -7 -11 -15 -11h-67z" />
    <glyph glyph-name="uni0338.case" 
d="M-438 -45c-10 0 -15 6 -12 15l213 764c2 7 7 11 15 11h67c10 0 15 -6 12 -15l-213 -764c-2 -7 -7 -11 -15 -11h-67z" />
    <glyph glyph-name="brevecombcy" 
d="M-118 561c-65 0 -110 39 -116 100c0 9 5 14 13 14h39c9 0 13 -4 15 -13c4 -23 21 -36 49 -36c27 0 44 13 48 36c3 9 7 13 15 13h39c8 0 13 -5 13 -14c-6 -60 -50 -100 -115 -100z" />
    <glyph glyph-name="brevecombcy.case" 
d="M-118 768c-65 0 -109 39 -115 99c-1 9 5 14 13 14h39c8 0 12 -4 15 -12c4 -23 21 -37 48 -37s45 14 49 37c2 8 6 12 14 12h39c9 0 14 -4 14 -14c-7 -60 -50 -99 -116 -99z" />
    </font>
</defs>
</svg>
